<svg xmlns="http://www.w3.org/2000/svg" viewBox="0 0 155.5 31.29"><defs><style>.cls-1{fill:#fff;}.cls-2{fill:#c2b697;}</style></defs><title>PLP LAsset 1</title><g id="Layer_2" data-name="Layer 2"><g id="Layer_1-2" data-name="Layer 1"><path class="cls-1" d="M38,10a2.11,2.11,0,0,0-.56-1.61,2.13,2.13,0,0,0-1.52-.52c-.53,0-.79.17-.79.52v5.92A1,1,0,0,0,36,15.35c.27.05.41.12.41.22s-.12.14-.36.14a4.83,4.83,0,0,1-.68-.05,4,4,0,0,0-.54,0c-.21,0-.47,0-.79,0s-.6.05-.82.05-.36-.05-.36-.14.13-.17.41-.22a1.31,1.31,0,0,0,.69-.3.86.86,0,0,0,.21-.65V9.16A2,2,0,0,0,34,8.28a.77.77,0,0,0-.6-.36c-.28,0-.41-.14-.41-.25s.12-.14.36-.14h1.21c.18,0,.43,0,.75,0l.63,0a4.13,4.13,0,0,1,2.3.59,1.83,1.83,0,0,1,.9,1.59,2.9,2.9,0,0,1-.74,2,2.69,2.69,0,0,1-2.1.81.92.92,0,0,1-.4-.08c-.1-.05-.16-.1-.16-.16s0-.06.07-.09a.24.24,0,0,1,.13,0l.19,0a2.33,2.33,0,0,0,.38,0C37.49,12.18,38,11.44,38,10Z"/><path class="cls-1" d="M41.54,14.66a.59.59,0,0,0,.14.45,1.09,1.09,0,0,0,.48.2c.2,0,.3.1.3.2s-.08.15-.25.15l-.58,0-.55,0-.68,0a6.31,6.31,0,0,1-.66,0c-.17,0-.25,0-.25-.15s.1-.16.3-.2a1.73,1.73,0,0,0,.6-.21.51.51,0,0,0,.22-.46V11.27a1,1,0,0,0-.17-.6.82.82,0,0,0-.55-.27q-.3,0-.3-.24c0-.1.08-.15.25-.15s.36,0,.6,0l.55,0,.66,0,.77,0q2.1,0,2.1,1.41a1.18,1.18,0,0,1-.3.86,1.69,1.69,0,0,1-.72.48c-.08,0-.11.07-.08.12a6.5,6.5,0,0,0,1.12,1.91,1.71,1.71,0,0,0,.56.39,2,2,0,0,0,.55.22c.15,0,.23.08.23.17s-.1.12-.3.17a2.57,2.57,0,0,1-.62.08,1.57,1.57,0,0,1-1.24-.62,9.15,9.15,0,0,1-1.1-1.72.58.58,0,0,0-.31-.25,1.35,1.35,0,0,0-.52-.11.29.29,0,0,0-.16.06.17.17,0,0,0-.09.14Zm0-3.94v1.72c0,.14,0,.23.07.26a.48.48,0,0,0,.24.05,2.28,2.28,0,0,0,1.23-.29,1,1,0,0,0,.45-.92,1,1,0,0,0-.47-.85,1.94,1.94,0,0,0-1.1-.31.64.64,0,0,0-.33.06A.35.35,0,0,0,41.54,10.72Z"/><path class="cls-1" d="M48.22,15.64l-.68,0-.68,0a6.31,6.31,0,0,1-.66,0c-.16,0-.25,0-.25-.15s.1-.16.3-.2a1.73,1.73,0,0,0,.6-.21.51.51,0,0,0,.22-.46V11.27a1,1,0,0,0-.17-.6.82.82,0,0,0-.55-.27q-.3,0-.3-.24c0-.1.08-.15.25-.15s.38,0,.63,0l.61,0,.6,0c.26,0,.47,0,.63,0s.25.05.25.15-.1.21-.3.24a.85.85,0,0,0-.55.27,1,1,0,0,0-.17.6v3.39a.53.53,0,0,0,.22.46,1.81,1.81,0,0,0,.6.21c.2,0,.3.1.3.2s-.08.15-.25.15A6.14,6.14,0,0,1,48.22,15.64Z"/><path class="cls-1" d="M56.43,10.82c0,1.35,0,2.66.1,3.92a.49.49,0,0,0,.18.39,1.22,1.22,0,0,0,.52.2c.2,0,.3.1.3.2s-.08.15-.25.15a4.21,4.21,0,0,1-.57,0l-.56,0-.62,0a5.15,5.15,0,0,1-.62,0c-.16,0-.25,0-.25-.15s.1-.16.3-.2a.91.91,0,0,0,.46-.18.51.51,0,0,0,.13-.38c0-1.31,0-2.36,0-3.14q0-.11,0-.12a0,0,0,0,0-.07,0,.31.31,0,0,0-.08.12l-1.76,4c-.06.13-.13.2-.21.2s-.18-.08-.25-.23q-.33-.7-.9-2.07l-.84-2c-.06-.14-.1-.14-.11,0q-.12,1.29-.21,3.09c0,.39.15.62.44.67s.3.1.3.2-.08.15-.25.15a2.29,2.29,0,0,1-.47,0l-.36,0-.4,0a2.78,2.78,0,0,1-.51,0q-.24,0-.24-.15c0-.1.1-.16.29-.2a.75.75,0,0,0,.65-.67c.1-.57.21-1.3.32-2.2S51,11,51,10.84a.29.29,0,0,0-.16-.28,2.24,2.24,0,0,0-.58-.16q-.3,0-.3-.24c0-.1.08-.15.25-.15l.44,0a2.82,2.82,0,0,0,.42,0h.53a.32.32,0,0,1,.15,0l1.84,4.28c.07.15.13.15.2,0,.5-1.15,1-2.33,1.49-3.54a4.66,4.66,0,0,1,.31-.72H56l.64,0,.52,0c.16,0,.25.05.25.15s-.1.21-.3.24l-.44.08a.44.44,0,0,0-.19.1A.3.3,0,0,0,56.43,10.82Z"/><path class="cls-1" d="M59.66,10.08l1.63,0,1.24,0c.1,0,.15,0,.15.07a6,6,0,0,0,.07.74c0,.25,0,.38,0,.41a.26.26,0,0,1,0,.1s0,.06-.07.06-.18-.08-.23-.22a1.55,1.55,0,0,0-.3-.5.61.61,0,0,0-.45-.15h-1.2a.42.42,0,0,0-.21.06.17.17,0,0,0-.11.16v1.54a.54.54,0,0,0,0,.19c0,.07.06.11.09.11h1a.34.34,0,0,0,.28-.1.86.86,0,0,0,.18-.36c0-.14.11-.21.19-.21a.14.14,0,0,1,.12.06.17.17,0,0,1,0,.13c0,.39,0,.62,0,.68a3.18,3.18,0,0,0,0,.36c0,.16,0,.27,0,.32a.18.18,0,0,1,0,.14s-.06.08-.09.08a.14.14,0,0,1-.1-.05l-.06-.08,0-.1,0-.07a.45.45,0,0,0-.39-.34c-.17,0-.46,0-.87,0h-.2a.21.21,0,0,0-.08.06.31.31,0,0,0,0,.16v1.38a.87.87,0,0,0,.07.42c0,.06.16.09.34.09h1.25a1,1,0,0,0,.62-.21,1.34,1.34,0,0,0,.41-.51c.06-.13.12-.19.17-.19s.13.07.13.2A8,8,0,0,1,63,15.52a.24.24,0,0,1-.08.1.27.27,0,0,1-.14.05l-1.7,0-1.44,0-.57,0a5.6,5.6,0,0,1-.65,0c-.16,0-.25,0-.25-.15s.1-.16.3-.2a1.88,1.88,0,0,0,.61-.21.52.52,0,0,0,.21-.46V11.27a1,1,0,0,0-.16-.6.87.87,0,0,0-.56-.27q-.3,0-.3-.24c0-.1.09-.15.25-.15s.37,0,.6,0Z"/><path class="cls-1" d="M66.11,8.6v5.85a.82.82,0,0,0,.18.59,1.24,1.24,0,0,0,.77.17h1.82a1,1,0,0,0,.31-.1,1.46,1.46,0,0,0,.38-.22,2.7,2.7,0,0,0,.65-.89c.09-.25.18-.37.27-.37s.15.08.15.22a.06.06,0,0,1,0,0v0a10.38,10.38,0,0,0-.33,1.58q0,.21-.18.21c-.59,0-1.35,0-2.28,0l-2,0-1.68.07c-.23,0-.35-.05-.35-.15s.09-.16.28-.21a1.77,1.77,0,0,0,.75-.3.7.7,0,0,0,.25-.6V8.69c0-.29,0-.48-.13-.56a1.23,1.23,0,0,0-.62-.21c-.28,0-.41-.14-.41-.25s.12-.14.36-.14l.74,0,.65,0,.76,0,.8,0c.24,0,.36,0,.36.14s-.13.2-.41.25L66.77,8l-.33.11a.55.55,0,0,0-.26.2A.5.5,0,0,0,66.11,8.6Z"/><path class="cls-1" d="M76.82,15.31c.19,0,.28.11.28.22s-.08.15-.24.15l-.57,0-.53,0-.57,0-.61,0c-.16,0-.25,0-.25-.15s.1-.17.29-.22l.29-.08a.41.41,0,0,0,.13-.1.33.33,0,0,0,.06-.21,3.65,3.65,0,0,0-.27-.92c0-.05-.09-.08-.24-.08H72.78a.21.21,0,0,0-.2.15,3.87,3.87,0,0,0-.25.77.39.39,0,0,0,.11.31,1.28,1.28,0,0,0,.35.16c.19.07.29.14.29.22s-.08.15-.25.15l-.52,0-.49,0-.45,0a3.91,3.91,0,0,1-.49,0c-.17,0-.25,0-.25-.15s.1-.16.29-.21a2.69,2.69,0,0,0,.38-.1.79.79,0,0,0,.3-.22,1.49,1.49,0,0,0,.32-.5l1.44-3.33a1.74,1.74,0,0,0,.11-.32,1.22,1.22,0,0,0,0-.22.38.38,0,0,1,0-.08A6.62,6.62,0,0,0,74,10c.09-.1.16-.15.2-.15s.06,0,.08.11L76,14.31a3.35,3.35,0,0,0,.19.44,1.47,1.47,0,0,0,.26.34A.82.82,0,0,0,76.82,15.31ZM73.7,11.46c-.23.56-.51,1.19-.82,1.88,0,.05,0,.09,0,.1a.28.28,0,0,0,.16,0h1.55s0,0,0,0l0-.08c0-.13-.15-.46-.36-1s-.33-.83-.35-.88a.31.31,0,0,0-.06-.13h0A.54.54,0,0,0,73.7,11.46Z"/><path class="cls-1" d="M79.3,11.05l1.62,3.35c0,.09.09.09.14,0l.64-1.25-1-2.1c-.18-.38-.36-.59-.54-.65s-.29-.15-.29-.24S80,10,80.12,10l.44,0,.47,0,.41,0,.35,0c.17,0,.26.05.26.15s-.1.2-.31.24-.2.25,0,.65l.51,1.08.53-1.08a.55.55,0,0,0,0-.38.39.39,0,0,0-.21-.27l-.09,0-.09,0a.15.15,0,0,0-.06,0l0,0a.15.15,0,0,1,0-.07c0-.1.08-.15.25-.15l.33,0,.33,0,.47,0,.48,0c.17,0,.25.05.25.15s-.1.19-.3.24a1.2,1.2,0,0,0-.83.65l-.82,1.59.81,1.76c0,.08.08.08.11,0l1.8-3.35c.19-.35.1-.57-.28-.65q-.3-.08-.3-.24c0-.1.08-.15.25-.15l.37,0,.38,0,.49,0,.43,0c.17,0,.25.05.25.15s-.1.19-.3.24a1.16,1.16,0,0,0-.75.65l-2.43,4.59a.27.27,0,0,1-.26.19s-.11-.06-.18-.19l-.95-2-1,2a.27.27,0,0,1-.25.19c-.07,0-.17-.15-.31-.45l-2.09-4.33a1,1,0,0,0-.28-.38,1.71,1.71,0,0,0-.56-.27q-.3-.11-.3-.24c0-.1.08-.15.25-.15s.35,0,.56,0l.54,0,.51,0,.44,0c.16,0,.25.05.25.15s-.1.21-.3.24a.27.27,0,0,0-.16.08.15.15,0,0,0,0,.16.6.6,0,0,0,0,.16l.09.2A.17.17,0,0,1,79.3,11.05Z"/><path class="cls-1" d="M94.24,10a2.11,2.11,0,0,0-.56-1.61,2.12,2.12,0,0,0-1.51-.52c-.54,0-.8.17-.8.52v5.92a1,1,0,0,0,.83,1.09c.28.05.41.12.41.22s-.12.14-.36.14a4.83,4.83,0,0,1-.68-.05,4,4,0,0,0-.54,0c-.2,0-.47,0-.79,0s-.6.05-.82.05-.36-.05-.36-.14.14-.17.41-.22a1.31,1.31,0,0,0,.69-.3.82.82,0,0,0,.22-.65V9.16a1.94,1.94,0,0,0-.16-.88.74.74,0,0,0-.6-.36c-.28,0-.41-.14-.41-.25s.12-.14.36-.14h1.22c.17,0,.42,0,.74,0l.64,0a4.1,4.1,0,0,1,2.29.59,1.83,1.83,0,0,1,.9,1.59,2.94,2.94,0,0,1-.73,2,2.69,2.69,0,0,1-2.1.81,1,1,0,0,1-.41-.08c-.1-.05-.15-.1-.15-.16a.12.12,0,0,1,.06-.09.25.25,0,0,1,.14,0l.18,0a2.45,2.45,0,0,0,.39,0C93.74,12.18,94.24,11.44,94.24,10Z"/><path class="cls-1" d="M101.06,15.31c.19,0,.29.11.29.22s-.09.15-.25.15l-.57,0-.52,0-.58,0-.6,0c-.17,0-.25,0-.25-.15s.09-.17.28-.22l.29-.08a.61.61,0,0,0,.14-.1.33.33,0,0,0,.06-.21,3.41,3.41,0,0,0-.28-.92c0-.05-.09-.08-.23-.08H97a.22.22,0,0,0-.2.15,3.54,3.54,0,0,0-.24.77.36.36,0,0,0,.11.31,1,1,0,0,0,.35.16c.19.07.28.14.28.22s-.08.15-.25.15l-.52,0-.48,0-.46,0a3.91,3.91,0,0,1-.49,0c-.16,0-.25,0-.25-.15s.1-.16.29-.21l.39-.1a.87.87,0,0,0,.29-.22,1.5,1.5,0,0,0,.33-.5l1.44-3.33a1.65,1.65,0,0,0,.1-.32,1.22,1.22,0,0,0,0-.22c0-.05,0-.07,0-.08q.33-.33.48-.51c.09-.1.16-.15.2-.15s.06,0,.09.11l1.67,4.31a3.35,3.35,0,0,0,.19.44,1.81,1.81,0,0,0,.26.34A.82.82,0,0,0,101.06,15.31Zm-3.12-3.85c-.23.56-.5,1.19-.82,1.88,0,.05,0,.09,0,.1a.3.3,0,0,0,.16,0h1.56s0,0,0,0v-.08c0-.13-.16-.46-.37-1s-.33-.83-.34-.88a.46.46,0,0,0-.07-.13h0A.46.46,0,0,0,97.94,11.46Z"/><path class="cls-1" d="M103.75,14.66a.59.59,0,0,0,.13.45,1.14,1.14,0,0,0,.49.2c.2,0,.3.1.3.2s-.09.15-.25.15l-.58,0-.55,0-.69,0a6.31,6.31,0,0,1-.66,0q-.24,0-.24-.15c0-.1.1-.16.29-.2a1.88,1.88,0,0,0,.61-.21.52.52,0,0,0,.21-.46V11.27a1,1,0,0,0-.16-.6.87.87,0,0,0-.56-.27c-.2,0-.29-.11-.29-.24s.08-.15.24-.15.37,0,.6,0l.56,0,.65,0,.78,0q2.1,0,2.1,1.41a1.19,1.19,0,0,1-.31.86,1.73,1.73,0,0,1-.71.48q-.12,0-.09.12a6.5,6.5,0,0,0,1.12,1.91,1.71,1.71,0,0,0,.56.39,2,2,0,0,0,.56.22c.15,0,.22.08.22.17s-.1.12-.3.17a2.45,2.45,0,0,1-.62.08,1.59,1.59,0,0,1-1.24-.62,9.15,9.15,0,0,1-1.09-1.72.61.61,0,0,0-.32-.25,1.27,1.27,0,0,0-.52-.11.29.29,0,0,0-.16.06.19.19,0,0,0-.08.14Zm0-3.94v1.72c0,.14,0,.23.06.26a.49.49,0,0,0,.25.05,2.33,2.33,0,0,0,1.23-.29,1,1,0,0,0,.44-.92,1,1,0,0,0-.47-.85,1.91,1.91,0,0,0-1.09-.31.66.66,0,0,0-.34.06A.39.39,0,0,0,103.75,10.72Z"/><path class="cls-1" d="M110.67,14.66V11a.54.54,0,0,0-.07-.34.71.71,0,0,0-.38-.06h-.89a.8.8,0,0,0-.41.14,1,1,0,0,0-.32.3c-.08.17-.18.26-.29.26s-.09,0-.09-.1,0-.08,0-.16,0-.19.07-.37.06-.41.08-.69c0-.12.07-.18.16-.18l.12.06A1.1,1.1,0,0,0,109,10a2,2,0,0,0,.58.07h3a3.75,3.75,0,0,0,.81-.07,2.26,2.26,0,0,0,.45-.12l.13-.06c.08,0,.11,0,.11.13,0,.25,0,.48,0,.72s0,.38,0,.44a.41.41,0,0,1,0,.16c0,.06-.06.09-.11.08s-.14-.11-.19-.29-.34-.45-.81-.45c-.66,0-1.1,0-1.29,0s-.14.13-.14.37v3.64a.51.51,0,0,0,.22.46,1.73,1.73,0,0,0,.6.21c.2,0,.3.1.3.2s-.09.15-.25.15a6,6,0,0,1-.65,0l-.68,0-.68,0c-.29,0-.51,0-.66,0s-.25,0-.25-.15.1-.16.3-.2a1.9,1.9,0,0,0,.6-.21A.53.53,0,0,0,110.67,14.66Z"/><path class="cls-1" d="M120.58,11.28v4.1c0,.29-.06.44-.2.44a.72.72,0,0,1-.53-.34l-3.07-3.79c-.13-.15-.23-.23-.31-.23s-.09.11-.09.33c0,1.34,0,2.29.07,2.87a.73.73,0,0,0,.16.47.9.9,0,0,0,.47.2c.2,0,.3.1.3.2s-.09.15-.25.15a3.44,3.44,0,0,1-.54,0l-.47,0-.51,0a4,4,0,0,1-.57,0c-.16,0-.25,0-.25-.15s.1-.16.3-.2a1.27,1.27,0,0,0,.53-.21.6.6,0,0,0,.19-.46c.06-.58.09-1.53.09-2.84a2.11,2.11,0,0,0-.18-1,1,1,0,0,0-.74-.44q-.3,0-.3-.24c0-.1.08-.15.25-.15l.77,0c.36,0,.65,0,.87,0s.15.07.26.19l3,3.57c.08.1.14.16.16.16s.06-.06.06-.16V11.28a.8.8,0,0,0-.72-.88c-.2,0-.29-.11-.29-.24s.08-.15.24-.15.35,0,.55,0l.52,0,.46,0a3.89,3.89,0,0,1,.49,0c.16,0,.25.05.25.15s-.1.21-.3.24a.7.7,0,0,0-.51.27A1.26,1.26,0,0,0,120.58,11.28Z"/><path class="cls-1" d="M123.45,10.08l1.63,0,1.24,0c.1,0,.15,0,.15.07a6,6,0,0,0,.07.74c0,.25.06.38.06.41a.26.26,0,0,1,0,.1.1.1,0,0,1-.07.06c-.1,0-.18-.08-.24-.22a1.55,1.55,0,0,0-.3-.5.6.6,0,0,0-.44-.15h-1.21a.39.39,0,0,0-.2.06.17.17,0,0,0-.11.16v1.54a.5.5,0,0,0,0,.19c0,.07.06.11.1.11h1a.36.36,0,0,0,.28-.1,1.18,1.18,0,0,0,.18-.36q.06-.21.18-.21a.14.14,0,0,1,.12.06.17.17,0,0,1,0,.13c0,.39,0,.62,0,.68a2.71,2.71,0,0,0,0,.36c0,.16,0,.27,0,.32a.35.35,0,0,1,0,.14s-.06.08-.1.08a.14.14,0,0,1-.09-.05l-.06-.08s0-.07-.05-.1l0-.07a.45.45,0,0,0-.4-.34c-.16,0-.45,0-.87,0h-.19a.16.16,0,0,0-.08.06.24.24,0,0,0,0,.16v1.38a.76.76,0,0,0,.07.42c0,.06.16.09.34.09h1.24a1,1,0,0,0,.63-.21,1.32,1.32,0,0,0,.4-.51c.06-.13.12-.19.18-.19s.12.07.12.2a5.76,5.76,0,0,1-.21,1.07.18.18,0,0,1-.08.1.24.24,0,0,1-.13.05l-1.71,0-1.43,0-.58,0a5.45,5.45,0,0,1-.64,0c-.17,0-.25,0-.25-.15s.1-.16.3-.2a1.73,1.73,0,0,0,.6-.21.51.51,0,0,0,.22-.46V11.27a1,1,0,0,0-.17-.6.85.85,0,0,0-.55-.27q-.3,0-.3-.24c0-.1.08-.15.25-.15s.36,0,.59,0Z"/><path class="cls-1" d="M129.72,14.66a.59.59,0,0,0,.13.45,1.14,1.14,0,0,0,.49.2c.2,0,.3.1.3.2s-.09.15-.25.15l-.58,0-.55,0-.69,0a6.31,6.31,0,0,1-.66,0q-.24,0-.24-.15c0-.1.1-.16.29-.2a1.88,1.88,0,0,0,.61-.21.52.52,0,0,0,.21-.46V11.27a1,1,0,0,0-.16-.6.87.87,0,0,0-.56-.27c-.2,0-.29-.11-.29-.24s.08-.15.24-.15.37,0,.6,0l.56,0,.65,0,.78,0q2.1,0,2.1,1.41a1.15,1.15,0,0,1-.31.86,1.73,1.73,0,0,1-.71.48q-.12,0-.09.12a6.73,6.73,0,0,0,1.12,1.91,1.83,1.83,0,0,0,.56.39,2.12,2.12,0,0,0,.56.22c.15,0,.22.08.22.17s-.1.12-.3.17a2.45,2.45,0,0,1-.62.08,1.59,1.59,0,0,1-1.24-.62,9.15,9.15,0,0,1-1.09-1.72.61.61,0,0,0-.32-.25,1.27,1.27,0,0,0-.52-.11.32.32,0,0,0-.16.06.19.19,0,0,0-.08.14Zm0-3.94v1.72c0,.14,0,.23.06.26a.49.49,0,0,0,.25.05,2.33,2.33,0,0,0,1.23-.29,1,1,0,0,0,.44-.92,1,1,0,0,0-.47-.85,1.91,1.91,0,0,0-1.09-.31.66.66,0,0,0-.34.06A.39.39,0,0,0,129.72,10.72Z"/><path class="cls-1" d="M136.24,15.53a1.13,1.13,0,0,0,.83-.29,1,1,0,0,0,.29-.71,1.07,1.07,0,0,0-.57-.94l-1-.62a1.85,1.85,0,0,1-1-1.55,1.22,1.22,0,0,1,.59-1.08,2.42,2.42,0,0,1,1.37-.39,4.07,4.07,0,0,1,.5,0,3,3,0,0,1,.45.07l.23,0a.19.19,0,0,1,.16.17,7,7,0,0,1,.09,1,.37.37,0,0,1-.05.16c0,.06-.07.09-.11.09a.22.22,0,0,1-.15-.08.46.46,0,0,1-.09-.17,1.32,1.32,0,0,0-.49-.76,1.11,1.11,0,0,0-.65-.25,1,1,0,0,0-.71.25.8.8,0,0,0-.27.61.86.86,0,0,0,.16.57,2.47,2.47,0,0,0,.59.45l1.06.65a1.63,1.63,0,0,1,.88,1.42,1.42,1.42,0,0,1-.61,1.09,2.33,2.33,0,0,1-1.59.52,2.92,2.92,0,0,1-.54-.05l-.46-.13a1.71,1.71,0,0,0-.3-.08l-.09,0,0,0v0a3.56,3.56,0,0,1-.21-1.18c0-.19,0-.29.12-.29a.18.18,0,0,1,.11,0,.57.57,0,0,1,.09.16l0,.11.07.12.08.15.09.15.11.17.13.16a1.06,1.06,0,0,0,.14.15l.16.13a.94.94,0,0,0,.18.12l.2.06Z"/><path class="cls-1" d="M144.38,11.27a.79.79,0,0,0-.72-.87q-.3,0-.3-.24c0-.1.08-.15.25-.15s.38,0,.63,0l.61,0,.6,0c.25,0,.47,0,.63,0s.25.05.25.15-.1.21-.3.24a.79.79,0,0,0-.72.87v3.39a.51.51,0,0,0,.22.46,1.73,1.73,0,0,0,.6.21c.2,0,.3.1.3.2s-.08.15-.25.15a6.14,6.14,0,0,1-.65,0l-.68,0-.68,0a6.31,6.31,0,0,1-.66,0c-.17,0-.25,0-.25-.15s.1-.16.3-.2a1.73,1.73,0,0,0,.6-.21.51.51,0,0,0,.22-.46V13s0-.06,0-.06l-1.58,0-1.44,0s0,0,0,.09v1.61a.51.51,0,0,0,.22.46,1.81,1.81,0,0,0,.6.21c.2,0,.3.1.3.2s-.08.15-.25.15a6.14,6.14,0,0,1-.65,0l-.68,0-.68,0a6.31,6.31,0,0,1-.66,0c-.17,0-.25,0-.25-.15s.1-.16.3-.2a1.73,1.73,0,0,0,.6-.21.51.51,0,0,0,.22-.46V11.27a.79.79,0,0,0-.72-.87q-.3,0-.3-.24c0-.1.08-.15.25-.15s.38,0,.63,0l.61,0,.6,0c.26,0,.47,0,.63,0s.25.05.25.15-.1.21-.3.24a.79.79,0,0,0-.72.87v1.16c0,.05,0,.07.13.07l1.39,0c.29,0,.8,0,1.53,0,0,0,.06,0,.06-.1Z"/><path class="cls-1" d="M149.19,15.64l-.67,0-.69,0a6.31,6.31,0,0,1-.66,0q-.24,0-.24-.15c0-.1.1-.16.29-.2a1.88,1.88,0,0,0,.61-.21.52.52,0,0,0,.21-.46V11.27a1,1,0,0,0-.16-.6.87.87,0,0,0-.56-.27c-.19,0-.29-.11-.29-.24s.08-.15.24-.15.38,0,.64,0l.61,0,.59,0c.26,0,.47,0,.64,0s.25.05.25.15-.1.21-.3.24a.87.87,0,0,0-.56.27,1,1,0,0,0-.16.6v3.39a.52.52,0,0,0,.21.46,1.88,1.88,0,0,0,.61.21c.2,0,.29.1.29.2s-.08.15-.24.15A6.31,6.31,0,0,1,149.19,15.64Z"/><path class="cls-1" d="M152.64,14.66a.51.51,0,0,0,.22.46,1.81,1.81,0,0,0,.6.21c.2,0,.3.1.3.2s-.08.15-.25.15a6.14,6.14,0,0,1-.65,0l-.68,0-.68,0a6.31,6.31,0,0,1-.66,0c-.17,0-.25,0-.25-.15s.1-.16.3-.2a1.73,1.73,0,0,0,.6-.21.51.51,0,0,0,.22-.46V11.27a1,1,0,0,0-.17-.6.82.82,0,0,0-.55-.27q-.3,0-.3-.24c0-.1.08-.15.25-.15s.36,0,.6,0l.56,0,.59,0c.29,0,.53,0,.71,0a2.78,2.78,0,0,1,1.5.38,1.25,1.25,0,0,1,.6,1.14,1.76,1.76,0,0,1-.5,1.32,1.81,1.81,0,0,1-1.34.49.8.8,0,0,1-.3-.06c-.11,0-.16-.1-.16-.16s.13-.15.4-.15a.72.72,0,0,0,.65-.35,1.47,1.47,0,0,0,.23-.83,1.41,1.41,0,0,0-.37-1,1.15,1.15,0,0,0-.92-.41c-.37,0-.55.12-.55.36Z"/><path class="cls-2" d="M34.11,21.41l-.32,0-.42,0-.4,0-.34,0s0,0,0-.09,0-.09,0-.1l.21,0a.35.35,0,0,0,.15-.09.44.44,0,0,0,.16-.33V18.57a.66.66,0,0,0-.07-.37.64.64,0,0,0-.35-.21.15.15,0,0,1,0-.06.28.28,0,0,1,0-.09s0-.05,0-.05h.68a2.28,2.28,0,0,0,.32,0l.4,0q1.29,0,1.29.84a.81.81,0,0,1-.17.56,2.53,2.53,0,0,1-.46.24,0,0,0,0,0,0,0s0,0,0,0l.27.1a1,1,0,0,1,.24.13.53.53,0,0,1,.21.26.94.94,0,0,1,.07.39,1,1,0,0,1-.56,1A1.94,1.94,0,0,1,34.11,21.41Zm-.36-2.27a.26.26,0,0,0,0,.16.33.33,0,0,0,.13,0,1.12,1.12,0,0,0,.67-.15.57.57,0,0,0,.23-.52.73.73,0,0,0-.14-.47.68.68,0,0,0-.56-.18.52.52,0,0,0-.3.06s-.07.1-.08.19C33.73,18.55,33.74,18.84,33.75,19.14Zm1.16,1.22a.68.68,0,0,0-.27-.64,1.16,1.16,0,0,0-.58-.14.44.44,0,0,0-.25.06.17.17,0,0,0-.06.14c0,.23,0,.56,0,1a.5.5,0,0,0,.09.29.47.47,0,0,0,.35.11.67.67,0,0,0,.52-.22A.81.81,0,0,0,34.91,20.36Z"/><path class="cls-2" d="M35.85,21.41s-.05,0,0-.09,0-.09,0-.1a1.31,1.31,0,0,0,.46-.23,1.2,1.2,0,0,0,.25-.34c.23-.49.54-1.2.92-2.14a1.15,1.15,0,0,0,.06-.21s0-.06,0-.1,0-.08,0-.11V18a.56.56,0,0,0,.18-.1,1.26,1.26,0,0,0,.18-.14c.06-.08.1-.12.11-.12s0,0,.06.08l.47,1.32c.21.6.39,1.08.53,1.45a1.3,1.3,0,0,0,.28.46.73.73,0,0,0,.36.23s0,0,0,.1,0,.09,0,.09l-.38,0-.39,0-.44,0-.39,0s0,0,0-.05a.14.14,0,0,1,0-.09s0-.05,0-.05a.51.51,0,0,0,.32-.22.48.48,0,0,0,0-.32,2.87,2.87,0,0,0-.11-.35s-.06,0-.15,0H37.09s-.07,0-.09.09a2.55,2.55,0,0,0-.13.35.41.41,0,0,0,0,.26.5.5,0,0,0,.33.24s.06,0,.06.1,0,.09-.06.09l-.4,0-.39,0-.29,0Zm1.87-2.72L37.15,20s0,.05,0,.06l.1,0h1s0,0,0-.07-.18-.55-.44-1.29c0,0,0-.07,0-.08h0A.22.22,0,0,0,37.72,18.69Z"/><path class="cls-2" d="M40.77,19.88c0,.12,0,.28,0,.47s0,.33,0,.39c0,.21.17.36.52.45,0,0,0,0,0,.12s0,.11,0,.11l-.32,0-.45,0-.53,0-.37,0s0,0,0-.1,0-.1,0-.1A.76.76,0,0,0,40,21a.44.44,0,0,0,.16-.33V18.57a.68.68,0,0,0-.07-.4.37.37,0,0,0-.13-.11.83.83,0,0,0-.21-.07.09.09,0,0,1,0-.06.29.29,0,0,1,0-.09s0-.05,0-.05h.73l.29,0,.38,0a1.82,1.82,0,0,1,1,.26.78.78,0,0,1,.38.69.86.86,0,0,1-.1.38,1,1,0,0,1-.18.29,1.07,1.07,0,0,1-.32.23s0,0,0,.05l.28.45a6.09,6.09,0,0,0,.33.52,3.66,3.66,0,0,0,.38.43.83.83,0,0,0,.16.12l.12,0a.72.72,0,0,0,.15,0h.17a0,0,0,0,1,0,0,.09.09,0,0,1,0,.07.15.15,0,0,1,0,.06.7.7,0,0,1-.4.12,1.1,1.1,0,0,1-.88-.3,1.88,1.88,0,0,1-.18-.24l-.13-.19-.17-.29-.23-.38a.56.56,0,0,0-.24-.22,1.07,1.07,0,0,0-.44-.12.06.06,0,0,0-.06,0A.2.2,0,0,0,40.77,19.88Zm0-.56a.21.21,0,0,0,0,.15s0,.05.08.05H41a1,1,0,0,0,.58-.16.7.7,0,0,0,.25-.64.64.64,0,0,0-.72-.72.39.39,0,0,0-.28.07.37.37,0,0,0-.07.23C40.77,18.79,40.77,19.13,40.77,19.32Z"/><path class="cls-2" d="M44.67,19.88c0,.12,0,.28,0,.47s0,.33,0,.39c0,.21.18.36.52.45,0,0,0,0,0,.12s0,.11,0,.11l-.31,0-.46,0-.52,0-.37,0s0,0,0-.1,0-.1,0-.1a.87.87,0,0,0,.36-.18.47.47,0,0,0,.16-.33V18.57a.77.77,0,0,0-.07-.4.38.38,0,0,0-.14-.11.61.61,0,0,0-.21-.07.15.15,0,0,1,0-.06.28.28,0,0,1,0-.09s0-.05,0-.05h.73l.29,0,.38,0a1.78,1.78,0,0,1,1,.26.76.76,0,0,1,.39.69,1,1,0,0,1-.1.38,1,1,0,0,1-.18.29,1.21,1.21,0,0,1-.32.23s0,0,0,.05l.27.45a4.28,4.28,0,0,0,.34.52,2.93,2.93,0,0,0,.38.43l.15.12.12,0a.83.83,0,0,0,.16,0h.17s0,0,0,0a.17.17,0,0,1,0,.07.09.09,0,0,1,0,.06.69.69,0,0,1-.39.12,1.12,1.12,0,0,1-.89-.3L46,21a1.3,1.3,0,0,1-.13-.19l-.17-.29-.23-.38a.71.71,0,0,0-.24-.22,1.11,1.11,0,0,0-.44-.12.06.06,0,0,0-.06,0S44.67,19.84,44.67,19.88Zm0-.56a.21.21,0,0,0,0,.15.1.1,0,0,0,.07.05h.15a1,1,0,0,0,.59-.16c.16-.1.24-.31.24-.64A.64.64,0,0,0,45,18c-.14,0-.23,0-.27.07a.37.37,0,0,0-.08.23C44.67,18.79,44.66,19.13,44.67,19.32Z"/><path class="cls-2" d="M48.93,18.37v2.36A.41.41,0,0,0,49,21a.9.9,0,0,0,.43.19c.05,0,.07,0,.07.1s0,.09-.07.09l-.41,0-.41,0-.44,0-.41,0s0,0-.06,0a.14.14,0,0,1,0-.09.05.05,0,0,1,.06-.06.9.9,0,0,0,.43-.19.39.39,0,0,0,.1-.3V18.37a.28.28,0,0,0-.13-.22,1.09,1.09,0,0,0-.35-.19.09.09,0,0,1,0-.06.14.14,0,0,1,0-.09,0,0,0,0,1,0,0h1.56s.05,0,.05.09a.1.1,0,0,1-.05.1,1.32,1.32,0,0,0-.37.2A.25.25,0,0,0,48.93,18.37Z"/><path class="cls-2" d="M50.74,21.2c.42,0,.62-.2.62-.6a.37.37,0,0,0,0-.11s0-.06,0-.09l0-.08-.06-.08a.3.3,0,0,0-.08-.08.57.57,0,0,1-.08-.08L51,20l-.11-.08-.13-.08-.14-.09a1.35,1.35,0,0,1-.76-1.09.89.89,0,0,1,.33-.63,1.23,1.23,0,0,1,.89-.32,1.66,1.66,0,0,1,.32,0,1.38,1.38,0,0,1,.26.07l.15,0a.13.13,0,0,1,.1.12,3.36,3.36,0,0,1,.09.59.29.29,0,0,1,0,.09s0,.05,0,.05l-.1,0a.17.17,0,0,1-.09-.1A.69.69,0,0,0,51,18c-.37,0-.56.16-.56.48a.39.39,0,0,0,0,.14.41.41,0,0,0,.08.14l.09.11.14.12.13.1.15.1.14.08c.58.38.88.76.88,1.16a1,1,0,0,1-.33.72,1.29,1.29,0,0,1-1,.33,2,2,0,0,1-.35,0,1.73,1.73,0,0,1-.31-.07l-.2-.05h-.06s0,0,0,0v0a2.31,2.31,0,0,1-.11-.36,2.1,2.1,0,0,1-.07-.4s0,0,0-.06l.11,0s0,0,.09.12a2.29,2.29,0,0,0,.17.27.85.85,0,0,0,.29.27A.72.72,0,0,0,50.74,21.2Z"/><path class="cls-2" d="M54.91,18.14a7.26,7.26,0,0,0-.79,0s-.08.08-.08.24v2.34a.36.36,0,0,0,.1.28.78.78,0,0,0,.42.19.1.1,0,0,1,0,.06.17.17,0,0,1,0,.1.05.05,0,0,1,0,0l-.42,0-.42,0-.41,0-.39,0s0,0-.05,0a.31.31,0,0,1,0-.1.09.09,0,0,1,.06-.06.78.78,0,0,0,.41-.19.36.36,0,0,0,.11-.28V18.4c0-.15,0-.23-.1-.24a3.53,3.53,0,0,0-.59,0,.42.42,0,0,0-.4.22.47.47,0,0,1-.12.14.21.21,0,0,1-.14.09c-.07,0-.08-.07,0-.21a1,1,0,0,0,.07-.21c0-.07,0-.17,0-.29s0-.2,0-.23,0-.12.11-.12.08.06.15.17.15.11.35.11H55c.21,0,.35,0,.41-.1a.24.24,0,0,1,.19-.1l0,0a.08.08,0,0,1,0,.07,3.21,3.21,0,0,0-.13.75.64.64,0,0,1,0,.07.09.09,0,0,1,0,.06l-.05,0s-.09-.06-.13-.18v-.05l0-.06s0,0,0,0l0-.05,0,0-.07,0h-.2Z"/><path class="cls-2" d="M57.38,19.66a2.3,2.3,0,0,0-.69,0,.13.13,0,0,0-.13.14c0,.17,0,.46,0,.88,0,.27.13.41.35.41h.7l.19,0A.59.59,0,0,0,58,21a1,1,0,0,0,.26-.37s.06-.05.12-.05.07,0,.07.06a5.14,5.14,0,0,1-.13.69c0,.06,0,.09-.08.09-.27,0-.62,0-1.05,0l-.89,0-.86.05s0,0,0-.05a.28.28,0,0,1,0-.09s0-.05,0-.05a.86.86,0,0,0,.36-.17.41.41,0,0,0,.16-.29V18.53a.64.64,0,0,0-.08-.4l0,0,0,0,0,0-.05,0,0,0-.06,0-.08,0s0,0,0-.09,0-.08,0-.08H57l.75,0h.37c.06,0,.09,0,.09,0a4,4,0,0,1,.09.73s0,.05-.09.05,0,0-.06-.05a.8.8,0,0,0-.16-.31.43.43,0,0,0-.34-.14h-.84a.1.1,0,0,0-.09,0,.14.14,0,0,0-.05.1,3.34,3.34,0,0,0,0,.43c0,.35,0,.54,0,.56s0,.12,0,.12h.7a.32.32,0,0,0,.24-.08.24.24,0,0,0,.09-.14c0-.07.09-.1.12-.1l.05,0a.07.07,0,0,1,0,.06,5.43,5.43,0,0,0,0,.81c0,.07,0,.1,0,.1s-.1-.05-.14-.15A.31.31,0,0,0,57.38,19.66Z"/><path class="cls-2" d="M59.47,19.88c0,.12,0,.28,0,.47s0,.33,0,.39c0,.21.18.36.52.45,0,0,0,0,0,.12s0,.11,0,.11l-.31,0-.46,0-.52,0-.37,0s0,0,0-.1,0-.1,0-.1a.87.87,0,0,0,.36-.18.47.47,0,0,0,.16-.33V18.57a.77.77,0,0,0-.07-.4.38.38,0,0,0-.14-.11.61.61,0,0,0-.21-.07.15.15,0,0,1,0-.06.28.28,0,0,1,0-.09s0-.05,0-.05h.73l.29,0,.38,0a1.78,1.78,0,0,1,1,.26.76.76,0,0,1,.39.69,1,1,0,0,1-.1.38,1,1,0,0,1-.18.29,1.21,1.21,0,0,1-.32.23s0,0,0,.05l.27.45a4.28,4.28,0,0,0,.34.52,2.93,2.93,0,0,0,.38.43.79.79,0,0,0,.15.12l.12,0a.81.81,0,0,0,.16,0h.17s0,0,0,0a.17.17,0,0,1,0,.07.09.09,0,0,1,0,.06.69.69,0,0,1-.39.12,1.12,1.12,0,0,1-.89-.3L60.76,21a1.3,1.3,0,0,1-.13-.19l-.17-.29-.23-.38a.71.71,0,0,0-.24-.22,1.11,1.11,0,0,0-.44-.12.06.06,0,0,0-.06,0S59.47,19.84,59.47,19.88Zm0-.56a.21.21,0,0,0,0,.15.1.1,0,0,0,.07.05h.15a1,1,0,0,0,.59-.16c.16-.1.24-.31.24-.64a.64.64,0,0,0-.72-.72c-.14,0-.23,0-.27.07a.37.37,0,0,0-.08.23C59.47,18.79,59.46,19.13,59.47,19.32Z"/><path class="cls-2" d="M69,18.27a1.37,1.37,0,0,0-.86.45l-.6.64L67,20l-.1.11.14.19c.12.18.2.29.25.35a3,3,0,0,0,.22.25.72.72,0,0,0,.31.2,1.08,1.08,0,0,0,.38.06.56.56,0,0,0,.29-.1,1.09,1.09,0,0,1,.24-.11.1.1,0,0,1,.12,0c.07.06.08.12,0,.15l-.23.15-.23.16-.22.08a.93.93,0,0,1-.29.05,1,1,0,0,1-.66-.2,3.5,3.5,0,0,1-.58-.73l-.1-.17,0,.05-.21.22-.21.24-.19.18a1.24,1.24,0,0,1-.22.18l-.22.12-.28.09-.29,0a1.73,1.73,0,0,1-1-.3.94.94,0,0,1-.43-.77,1.94,1.94,0,0,1,1.35-1.79l.16-.07-.12-.13-.09-.09-.11-.14-.11-.14a1.8,1.8,0,0,1-.1-.18.93.93,0,0,1-.07-.2.83.83,0,0,1,0-.22.73.73,0,0,1,.32-.63,1.27,1.27,0,0,1,.75-.25,1.07,1.07,0,0,1,.71.22.71.71,0,0,1,.3.6,1.08,1.08,0,0,1-.2.66,1.22,1.22,0,0,1-.57.42l-.11,0,.07.08.47.5a4.65,4.65,0,0,1,.57.66l.09.14.13-.13a3.83,3.83,0,0,0,.85-1.15.26.26,0,0,0,0-.21.45.45,0,0,0-.19-.14.09.09,0,0,1-.07-.1.05.05,0,0,1,0,0h.39l.39,0a3.36,3.36,0,0,0,.45-.05l.33-.06c.08,0,.1,0,.07.09A.23.23,0,0,1,69,18.27Zm-3.87.45-.17.06a1.55,1.55,0,0,0-.44.26.84.84,0,0,0-.25.35,1.4,1.4,0,0,0-.1.36,2.17,2.17,0,0,0,0,.38.78.78,0,0,0,.28.61.89.89,0,0,0,.64.25,1.5,1.5,0,0,0,.72-.16,2.34,2.34,0,0,0,.61-.49l.07-.07-.09-.15a4.61,4.61,0,0,0-.28-.38c-.11-.12-.26-.29-.46-.49l-.41-.43Zm.31-.34.1-.05c.3-.13.44-.43.44-.89a.63.63,0,0,0-.16-.42.47.47,0,0,0-.4-.2.59.59,0,0,0-.39.13.42.42,0,0,0-.17.33,1.67,1.67,0,0,0,.46,1Z"/><path class="cls-2" d="M71.52,21.2q.63,0,.63-.6s0-.08,0-.11l0-.09a.25.25,0,0,0,0-.08L72,20.24s0,0-.08-.08l-.08-.08-.1-.07-.12-.08-.13-.08-.13-.09a1.32,1.32,0,0,1-.76-1.09.88.88,0,0,1,.32-.63,1.24,1.24,0,0,1,.89-.32,1.66,1.66,0,0,1,.32,0l.27.07.14,0c.06,0,.09.05.1.12a3.36,3.36,0,0,1,.09.59.29.29,0,0,1,0,.09s0,.05,0,.05l-.11,0s-.08-.06-.08-.1a.71.71,0,0,0-.74-.57c-.37,0-.55.16-.55.48a.78.78,0,0,0,0,.14.7.7,0,0,0,.08.14l.1.11a.81.81,0,0,0,.13.12l.14.1.15.1.13.08c.59.38.88.76.88,1.16a1,1,0,0,1-.33.72,1.27,1.27,0,0,1-.94.33,1.83,1.83,0,0,1-.35,0,1.65,1.65,0,0,1-.32-.07l-.2-.05h-.05l0,0v0a2.09,2.09,0,0,1-.12-.36,3.41,3.41,0,0,1-.07-.4s0,0,.06-.06a.19.19,0,0,1,.1,0s0,0,.09.12.1.17.17.27a1,1,0,0,0,.29.27A.72.72,0,0,0,71.52,21.2Z"/><path class="cls-2" d="M73.2,19.65a1.87,1.87,0,0,1,.57-1.33,1.79,1.79,0,0,1,1.33-.58,2,2,0,0,1,1.4.54,1.73,1.73,0,0,1,.59,1.34A1.85,1.85,0,0,1,76.56,21a2,2,0,0,1-1.46.55A1.86,1.86,0,0,1,73.75,21,1.8,1.8,0,0,1,73.2,19.65ZM75.05,18a1,1,0,0,0-.89.44,2.26,2.26,0,0,0,.07,2.3,1.18,1.18,0,0,0,1,.47,1.15,1.15,0,0,0,.57-.14,1,1,0,0,0,.37-.38,1.84,1.84,0,0,0,.19-.49,2.22,2.22,0,0,0,.06-.51,2.08,2.08,0,0,0-.35-1.19A1.17,1.17,0,0,0,75.05,18Z"/><path class="cls-2" d="M79,18l-.16,0-.15,0-.11,0-.1.07a.61.61,0,0,0-.1.42V20.7a.38.38,0,0,0,.43.43h.77l.15,0a.69.69,0,0,0,.17-.1,2.5,2.5,0,0,0,.33-.51c0-.05.1-.07.22-.06l.06,0a0,0,0,0,1,0,0,6.34,6.34,0,0,0-.17.82s0,0,0,.06l-.08,0H79l-1,0-.85,0s0,0,0,0a.14.14,0,0,1,0-.09s0,0,0,0a.85.85,0,0,0,.37-.17.49.49,0,0,0,.16-.33V18.56a.81.81,0,0,0-.07-.42l0,0,0,0a.05.05,0,0,1,0,0l0,0h0l-.07,0-.08,0s0,0,0-.1,0-.09,0-.09h1.2l.45,0s0,0,0,.1S79,18,79,18Z"/><path class="cls-2" d="M81.73,18.37v2.36a.41.41,0,0,0,.11.3.9.9,0,0,0,.43.19s.07,0,.07.1,0,.09-.07.09l-.41,0-.41,0-.44,0-.42,0s0,0,0,0a.14.14,0,0,1,0-.09s0-.06,0-.06A.9.9,0,0,0,81,21a.39.39,0,0,0,.1-.3V18.37a.28.28,0,0,0-.13-.22,1.09,1.09,0,0,0-.35-.19.09.09,0,0,1,0-.06v-.09s0,0,0,0h1.56s.05,0,.05.09a.1.1,0,0,1-.05.1,1.32,1.32,0,0,0-.37.2A.25.25,0,0,0,81.73,18.37Z"/><path class="cls-2" d="M84.29,17.72a2.12,2.12,0,0,1,.58.07l.23.05.22.05s.05.06.08.17,0,.43,0,.61a.31.31,0,0,1,0,.09.09.09,0,0,1-.07,0c-.11,0-.16-.07-.18-.18a.71.71,0,0,0-.19-.44.73.73,0,0,0-.32-.15,1.86,1.86,0,0,0-.48-.06,1,1,0,0,0-.89.46A1.79,1.79,0,0,0,83,19.48a2.07,2.07,0,0,0,.36,1.2,1.2,1.2,0,0,0,1,.54A1.27,1.27,0,0,0,85,21a.69.69,0,0,0,.3-.41s0-.05.1-.08l.14,0q.08,0,.06.15a2,2,0,0,1-.11.31,1.87,1.87,0,0,1-.16.32c0,.05-.17.1-.43.15a4.17,4.17,0,0,1-.75.08,1.74,1.74,0,0,1-1.28-.56,1.85,1.85,0,0,1-.54-1.33,1.73,1.73,0,0,1,.6-1.34A2,2,0,0,1,84.29,17.72Z"/><path class="cls-2" d="M86.76,18.37v2.36a.41.41,0,0,0,.11.3.9.9,0,0,0,.43.19s.07,0,.07.1,0,.09-.07.09l-.41,0-.41,0-.44,0-.41,0a.07.07,0,0,1-.06,0,.14.14,0,0,1,0-.09.05.05,0,0,1,.06-.06.9.9,0,0,0,.43-.19.39.39,0,0,0,.1-.3V18.37a.28.28,0,0,0-.13-.22,1,1,0,0,0-.35-.19.09.09,0,0,1,0-.06.14.14,0,0,1,0-.09,0,0,0,0,1,0,0h1.56s.05,0,.05.09,0,.09-.05.1a1.32,1.32,0,0,0-.37.2A.25.25,0,0,0,86.76,18.37Z"/><path class="cls-2" d="M90.23,18.14a7.14,7.14,0,0,0-.78,0q-.09,0-.09.24v2.34a.36.36,0,0,0,.11.28.75.75,0,0,0,.41.19.09.09,0,0,1,.06.06.17.17,0,0,1,0,.1.05.05,0,0,1-.06,0l-.41,0-.43,0-.41,0-.39,0s0,0,0,0a.17.17,0,0,1,0-.1.1.1,0,0,1,0-.06.82.82,0,0,0,.42-.19.36.36,0,0,0,.1-.28V18.4q0-.22-.09-.24a3.68,3.68,0,0,0-.6,0,.43.43,0,0,0-.4.22.6.6,0,0,1-.11.14c-.06.06-.1.09-.14.09s-.08-.07,0-.21a.65.65,0,0,0,.07-.21,1.68,1.68,0,0,0,0-.29c0-.13,0-.2,0-.23s0-.12.1-.12.09.06.16.17.15.11.35.11h2.17c.21,0,.34,0,.4-.1a.27.27,0,0,1,.19-.1.05.05,0,0,1,0,0,.06.06,0,0,1,0,.07,2.72,2.72,0,0,0-.13.75.25.25,0,0,0,0,.07l0,.06-.05,0s-.09-.06-.13-.18a.13.13,0,0,0,0-.05v-.06s0,0,0,0a.11.11,0,0,0,0-.05l0,0-.06,0h-.21Z"/><path class="cls-2" d="M91.18,19.65a1.87,1.87,0,0,1,.57-1.33,1.78,1.78,0,0,1,1.32-.58,2,2,0,0,1,1.41.54,1.76,1.76,0,0,1,.59,1.34A1.89,1.89,0,0,1,94.54,21a2,2,0,0,1-1.47.55A1.82,1.82,0,0,1,91.73,21,1.77,1.77,0,0,1,91.18,19.65ZM93,18a1,1,0,0,0-.9.44,2.3,2.3,0,0,0,.08,2.3,1.16,1.16,0,0,0,1,.47,1.21,1.21,0,0,0,.58-.14,1.12,1.12,0,0,0,.37-.38,2.26,2.26,0,0,0,.19-.49,2.22,2.22,0,0,0,.06-.51,2.08,2.08,0,0,0-.35-1.19A1.17,1.17,0,0,0,93,18Z"/><path class="cls-2" d="M96.27,19.88c0,.12,0,.28,0,.47s0,.33,0,.39c0,.21.18.36.52.45,0,0,0,0,0,.12s0,.11,0,.11l-.31,0-.46,0-.52,0-.37,0s0,0,0-.1,0-.1,0-.1a.87.87,0,0,0,.36-.18.47.47,0,0,0,.16-.33V18.57a.66.66,0,0,0-.08-.4.3.3,0,0,0-.13-.11.61.61,0,0,0-.21-.07.09.09,0,0,1,0-.06.28.28,0,0,1,0-.09s0-.05,0-.05H96l.29,0,.38,0a1.8,1.8,0,0,1,1,.26.76.76,0,0,1,.38.69,1.34,1.34,0,0,1-.27.67,1.1,1.1,0,0,1-.33.23s0,0,0,.05.16.25.28.45a4.28,4.28,0,0,0,.34.52,2.93,2.93,0,0,0,.38.43.79.79,0,0,0,.15.12l.12,0a.81.81,0,0,0,.16,0H99s0,0,0,0a.17.17,0,0,1,0,.07.09.09,0,0,1,0,.06.69.69,0,0,1-.39.12,1.12,1.12,0,0,1-.89-.3L97.55,21l-.12-.19-.17-.29L97,20.1a.71.71,0,0,0-.24-.22,1.11,1.11,0,0,0-.44-.12.06.06,0,0,0-.06,0S96.27,19.84,96.27,19.88Zm0-.56a.21.21,0,0,0,0,.15.1.1,0,0,0,.07.05h.15a1,1,0,0,0,.58-.16c.17-.1.25-.31.25-.64a.64.64,0,0,0-.72-.72c-.14,0-.23,0-.27.07a.37.37,0,0,0-.08.23C96.27,18.79,96.26,19.13,96.27,19.32Z"/><path class="cls-2" d="M28.3,0H15.59a11.11,11.11,0,0,1-1.37,20.61l-.53.15v0l-.88.18a2.28,2.28,0,0,0-1.71,1.52v6.81a2,2,0,0,0,2,2H28.3a2,2,0,0,0,2-2V2A2,2,0,0,0,28.3,0Z"/><path class="cls-1" d="M9.72,0H2A2,2,0,0,0,0,2V29.29a2,2,0,0,0,2,2H7.23a2,2,0,0,0,2-2v-7a3.3,3.3,0,0,1,2.57-2.42h0a9.35,9.35,0,0,0,1.29-.32A10,10,0,0,0,20,9.31,10.22,10.22,0,0,0,9.72,0Z"/></g></g></svg>