<svg xmlns="http://www.w3.org/2000/svg" viewBox="0 0 99.25 31.29"><defs><style>.cls-1{fill:#fff;}.cls-2{fill:#c2b697;}</style></defs><title>PLP stackAsset 2</title><g id="Layer_2" data-name="Layer 2"><g id="Layer_1-2" data-name="Layer 1"><path class="cls-1" d="M38,6.94a2.14,2.14,0,0,0-.56-1.62,2.13,2.13,0,0,0-1.52-.52c-.53,0-.79.17-.79.52v5.93A1,1,0,0,0,36,12.33c.27.05.41.12.41.22s-.12.14-.36.14-.47,0-.68,0a4.31,4.31,0,0,0-.54-.05c-.21,0-.47,0-.79.05s-.6,0-.82,0-.36,0-.36-.14.13-.17.41-.22a1.39,1.39,0,0,0,.69-.29.9.9,0,0,0,.21-.66V6.14A2,2,0,0,0,34,5.26a.8.8,0,0,0-.6-.36c-.28-.05-.41-.13-.41-.25s.12-.14.36-.14h1.21l.75,0,.63,0a4.05,4.05,0,0,1,2.3.6,1.82,1.82,0,0,1,.9,1.59,2.89,2.89,0,0,1-.74,2,2.69,2.69,0,0,1-2.1.81.93.93,0,0,1-.4-.07c-.1-.05-.16-.11-.16-.17s0-.06.07-.09a.24.24,0,0,1,.13,0l.19,0a1.58,1.58,0,0,0,.38,0C37.49,9.16,38,8.42,38,6.94Z"/><path class="cls-1" d="M41.54,11.65a.58.58,0,0,0,.14.44,1,1,0,0,0,.48.2c.2,0,.3.1.3.2s-.08.15-.25.15l-.58,0-.55,0a6.49,6.49,0,0,0-.68,0l-.66,0c-.17,0-.25-.05-.25-.14s.1-.17.3-.2a1.72,1.72,0,0,0,.6-.22.5.5,0,0,0,.22-.45V8.25a.94.94,0,0,0-.17-.59.83.83,0,0,0-.55-.28c-.2,0-.3-.11-.3-.23s.08-.15.25-.15l.6,0,.55,0,.66,0,.77,0c1.4,0,2.1.47,2.1,1.4a1.18,1.18,0,0,1-.3.86,1.69,1.69,0,0,1-.72.48c-.08,0-.11.07-.08.13a6.45,6.45,0,0,0,1.12,1.9,1.88,1.88,0,0,0,.56.4,2.21,2.21,0,0,0,.55.21c.15,0,.23.08.23.17s-.1.13-.3.18a2.56,2.56,0,0,1-.62.07,1.57,1.57,0,0,1-1.24-.62,9.15,9.15,0,0,1-1.1-1.72.58.58,0,0,0-.31-.25,1.35,1.35,0,0,0-.52-.11.25.25,0,0,0-.16.07c-.06,0-.09.08-.09.13Zm0-3.94V9.42c0,.14,0,.23.07.26a.39.39,0,0,0,.24.05,2.29,2.29,0,0,0,1.23-.28,1,1,0,0,0,.45-.92,1,1,0,0,0-.47-.86A1.94,1.94,0,0,0,42,7.36a.54.54,0,0,0-.33.07C41.57,7.47,41.54,7.57,41.54,7.71Z"/><path class="cls-1" d="M48.22,12.63a6.35,6.35,0,0,0-.68,0,6.49,6.49,0,0,0-.68,0l-.66,0c-.16,0-.25-.05-.25-.14s.1-.17.3-.2a1.72,1.72,0,0,0,.6-.22.5.5,0,0,0,.22-.45V8.25a.94.94,0,0,0-.17-.59.83.83,0,0,0-.55-.28c-.2,0-.3-.11-.3-.23S46.13,7,46.3,7l.63,0,.61,0,.6,0,.63,0c.17,0,.25,0,.25.15s-.1.2-.3.23a.85.85,0,0,0-.55.28.94.94,0,0,0-.17.59v3.4a.52.52,0,0,0,.22.45,1.8,1.8,0,0,0,.6.22c.2,0,.3.1.3.2s-.08.14-.25.14Z"/><path class="cls-1" d="M56.43,7.81c0,1.35,0,2.65.1,3.91a.52.52,0,0,0,.18.4,1.37,1.37,0,0,0,.52.2c.2,0,.3.1.3.2s-.08.14-.25.14l-.57,0a4.18,4.18,0,0,0-.56,0,5.27,5.27,0,0,0-.62,0l-.62,0c-.16,0-.25-.05-.25-.14s.1-.17.3-.2a1,1,0,0,0,.46-.18.53.53,0,0,0,.13-.38c0-1.32,0-2.37,0-3.15a.17.17,0,0,0,0-.12,0,0,0,0,0-.07,0,.62.62,0,0,0-.08.12l-1.76,4c-.06.13-.13.2-.21.2s-.18-.08-.25-.23c-.22-.47-.52-1.16-.9-2.06l-.84-2c-.06-.14-.1-.14-.11,0-.08.86-.15,1.89-.21,3.1,0,.38.15.61.44.67s.3.1.3.2-.08.14-.25.14a3.38,3.38,0,0,1-.47,0,1.86,1.86,0,0,0-.36,0,2.15,2.15,0,0,0-.4,0,4.12,4.12,0,0,1-.51,0c-.16,0-.24-.05-.24-.14s.1-.17.29-.2a.77.77,0,0,0,.65-.67c.1-.58.21-1.31.32-2.2S51,8,51,7.82a.29.29,0,0,0-.16-.28,2.74,2.74,0,0,0-.58-.16c-.2,0-.3-.11-.3-.23S50,7,50.19,7a3,3,0,0,1,.44,0h.95a.32.32,0,0,1,.15,0l1.84,4.28c.07.15.13.16.2,0,.5-1.15,1-2.33,1.49-3.54a4.66,4.66,0,0,1,.31-.72H56l.64,0,.52,0c.16,0,.25,0,.25.15s-.1.2-.3.23l-.44.08a.58.58,0,0,0-.19.1A.33.33,0,0,0,56.43,7.81Z"/><path class="cls-1" d="M59.66,7.06l1.63,0,1.24,0c.1,0,.15,0,.15.08a6.17,6.17,0,0,0,.07.74c0,.24,0,.38,0,.4a.22.22,0,0,1,0,.1s0,.06-.07.06-.18-.07-.23-.22a1.67,1.67,0,0,0-.3-.5.61.61,0,0,0-.45-.15h-1.2a.42.42,0,0,0-.21.06.18.18,0,0,0-.11.17V9.3a.49.49,0,0,0,0,.18q0,.12.09.12h1a.35.35,0,0,0,.28-.11.87.87,0,0,0,.18-.35c0-.15.11-.22.19-.22a.13.13,0,0,1,.12.07.14.14,0,0,1,0,.12c0,.4,0,.63,0,.68a2.87,2.87,0,0,0,0,.36c0,.16,0,.27,0,.33a.17.17,0,0,1,0,.13c0,.05-.06.08-.09.08a.18.18,0,0,1-.1,0,.24.24,0,0,1-.06-.09,1,1,0,0,1,0-.1l0-.07a.48.48,0,0,0-.39-.34l-.87,0h-.2s0,0-.08.05a.31.31,0,0,0,0,.16v1.38a.89.89,0,0,0,.07.43.5.5,0,0,0,.34.08h1.25a1,1,0,0,0,.62-.21,1.34,1.34,0,0,0,.41-.51c.06-.12.12-.19.17-.19s.13.07.13.2A7.75,7.75,0,0,1,63,12.5a.19.19,0,0,1-.08.1.2.2,0,0,1-.14.05l-1.7,0-1.44,0a5.22,5.22,0,0,0-.57,0l-.65,0c-.16,0-.25-.05-.25-.14s.1-.17.3-.2a1.86,1.86,0,0,0,.61-.22.52.52,0,0,0,.21-.45V8.25a.94.94,0,0,0-.16-.59.88.88,0,0,0-.56-.28c-.2,0-.3-.11-.3-.23S58.34,7,58.5,7l.6,0Z"/><path class="cls-1" d="M66.11,5.58v5.85a.8.8,0,0,0,.18.59,1.24,1.24,0,0,0,.77.17h1.82a1,1,0,0,0,.31-.1,1.23,1.23,0,0,0,.38-.22,2.66,2.66,0,0,0,.65-.88c.09-.25.18-.38.27-.38s.15.08.15.23a0,0,0,0,1,0,0v0a10.38,10.38,0,0,0-.33,1.58q0,.21-.18.21l-2.28,0-2,0-1.68.06c-.23,0-.35,0-.35-.15s.09-.16.28-.21a1.77,1.77,0,0,0,.75-.3.7.7,0,0,0,.25-.6V5.67c0-.29,0-.48-.13-.56a1.47,1.47,0,0,0-.62-.21c-.28-.05-.41-.13-.41-.25s.12-.14.36-.14l.74,0,.65,0,.76,0,.8,0c.24,0,.36,0,.36.14s-.13.2-.41.25L66.77,5l-.33.12a.54.54,0,0,0-.26.19A.54.54,0,0,0,66.11,5.58Z"/><path class="cls-1" d="M76.82,12.29c.19,0,.28.11.28.23s-.08.14-.24.14l-.57,0-.53,0-.57,0-.61,0c-.16,0-.25-.05-.25-.14s.1-.18.29-.23l.29-.08a.31.31,0,0,0,.13-.1.28.28,0,0,0,.06-.2,3.54,3.54,0,0,0-.27-.92c0-.06-.09-.09-.24-.09H72.78a.21.21,0,0,0-.2.15,3.87,3.87,0,0,0-.25.77.39.39,0,0,0,.11.31,1.28,1.28,0,0,0,.35.16c.19.07.29.14.29.23s-.08.14-.25.14l-.52,0-.49,0-.45,0a3.91,3.91,0,0,1-.49,0c-.17,0-.25-.05-.25-.14s.1-.17.29-.22a2.69,2.69,0,0,0,.38-.1.74.74,0,0,0,.3-.21,1.54,1.54,0,0,0,.32-.51l1.44-3.33a1.52,1.52,0,0,0,.11-.32,1.22,1.22,0,0,0,0-.22.54.54,0,0,1,0-.08A6.62,6.62,0,0,0,74,7c.09-.1.16-.15.2-.15s.06,0,.08.11L76,11.3a3.81,3.81,0,0,0,.19.43,1.47,1.47,0,0,0,.26.34A.82.82,0,0,0,76.82,12.29ZM73.7,8.44c-.23.56-.51,1.19-.82,1.89,0,.05,0,.08,0,.1a.47.47,0,0,0,.16,0h1.55s0,0,0,0l0-.07a10.07,10.07,0,0,0-.36-1c-.22-.54-.33-.83-.35-.89s0-.11-.06-.12,0,0,0,0A.3.3,0,0,0,73.7,8.44Z"/><path class="cls-1" d="M79.3,8l1.62,3.35c0,.1.09.1.14,0l.64-1.25-1-2.1c-.18-.37-.36-.59-.54-.65s-.29-.15-.29-.23S80,7,80.12,7l.44,0,.47,0,.41,0,.35,0c.17,0,.26,0,.26.15s-.1.19-.31.23-.2.25,0,.65l.51,1.08L82.77,8a.53.53,0,0,0,0-.37.39.39,0,0,0-.21-.28l-.09,0-.09,0-.06,0s0,0,0,0a.13.13,0,0,1,0-.06c0-.1.08-.15.25-.15l.33,0,.33,0,.47,0,.48,0c.17,0,.25,0,.25.15s-.1.18-.3.23a1.23,1.23,0,0,0-.83.65l-.82,1.59.81,1.76c0,.09.08.09.11,0L85.18,8c.19-.35.1-.56-.28-.65-.2,0-.3-.13-.3-.23s.08-.15.25-.15l.37,0,.38,0,.49,0,.43,0c.17,0,.25,0,.25.15s-.1.18-.3.23a1.19,1.19,0,0,0-.75.65l-2.43,4.6a.28.28,0,0,1-.26.18s-.11-.06-.18-.18l-.95-2-1,2a.27.27,0,0,1-.25.18c-.07,0-.17-.15-.31-.44L78.22,8a1.11,1.11,0,0,0-.28-.38,2.25,2.25,0,0,0-.56-.27c-.2-.06-.3-.14-.3-.23s.08-.15.25-.15l.56,0,.54,0,.51,0,.44,0c.16,0,.25,0,.25.15s-.1.2-.3.23a.34.34,0,0,0-.16.08.15.15,0,0,0,0,.16.69.69,0,0,0,0,.17l.09.19Z"/><path class="cls-1" d="M38,16.24a2.14,2.14,0,0,0-.56-1.62,2.17,2.17,0,0,0-1.52-.52c-.53,0-.79.18-.79.52v5.93A1,1,0,0,0,36,21.63c.27.05.41.13.41.23S36.24,22,36,22a4.88,4.88,0,0,1-.68,0,4.31,4.31,0,0,0-.54-.05c-.21,0-.47,0-.79.05s-.6,0-.82,0-.36,0-.36-.13.13-.18.41-.23a1.31,1.31,0,0,0,.69-.29.88.88,0,0,0,.21-.65V15.44a2,2,0,0,0-.15-.88.8.8,0,0,0-.6-.36c-.28,0-.41-.13-.41-.25s.12-.13.36-.13h1.21c.18,0,.43,0,.75,0l.63,0a4.05,4.05,0,0,1,2.3.6,1.83,1.83,0,0,1,.9,1.59,2.92,2.92,0,0,1-.74,2,2.72,2.72,0,0,1-2.1.8.93.93,0,0,1-.4-.07c-.1-.05-.16-.1-.16-.16s0-.07.07-.1a.38.38,0,0,1,.13,0l.19,0a2.34,2.34,0,0,0,.38,0C37.49,18.46,38,17.72,38,16.24Z"/><path class="cls-1" d="M44.81,21.59c.19,0,.29.11.29.23S45,22,44.85,22l-.57,0c-.21,0-.39,0-.53,0l-.57,0-.61,0c-.16,0-.25,0-.25-.15s.1-.18.29-.23l.29-.08a.31.31,0,0,0,.13-.1.28.28,0,0,0,.06-.2,3.54,3.54,0,0,0-.27-.92c0-.06-.09-.09-.23-.09H40.77a.21.21,0,0,0-.2.15,3.87,3.87,0,0,0-.25.77.35.35,0,0,0,.12.31,1.08,1.08,0,0,0,.34.16c.19.07.29.15.29.23S41,22,40.82,22l-.52,0a4.6,4.6,0,0,0-.49,0,3.75,3.75,0,0,0-.45,0,3.91,3.91,0,0,1-.49,0c-.17,0-.25,0-.25-.15s.1-.16.29-.21l.38-.1a.92.92,0,0,0,.3-.22,1.6,1.6,0,0,0,.32-.5l1.45-3.33a3,3,0,0,0,.1-.33,1.26,1.26,0,0,0,0-.21.28.28,0,0,1,0-.08l.49-.51c.09-.1.16-.15.2-.15s.06,0,.08.11L44,20.6a4.08,4.08,0,0,0,.19.44,1.68,1.68,0,0,0,.26.33A.75.75,0,0,0,44.81,21.59Zm-3.12-3.85c-.23.57-.5,1.2-.82,1.89,0,.05,0,.08,0,.1a.3.3,0,0,0,.16,0h1.52l0,0s0,0,0,0l0-.08c0-.13-.15-.46-.36-1l-.35-.89a.33.33,0,0,0-.06-.12s0,0,0,0Z"/><path class="cls-1" d="M47.49,21a.62.62,0,0,0,.14.45,1.1,1.1,0,0,0,.48.19c.2,0,.3.1.3.2s-.08.15-.25.15l-.57,0-.56,0a6.49,6.49,0,0,0-.68,0l-.66,0c-.16,0-.25,0-.25-.15s.1-.17.3-.2a1.54,1.54,0,0,0,.6-.22.48.48,0,0,0,.22-.45V17.56a.89.89,0,0,0-.17-.6.82.82,0,0,0-.55-.27q-.3-.06-.3-.24c0-.1.09-.15.25-.15l.6,0,.56,0,.65,0,.78,0c1.4,0,2.1.47,2.1,1.4a1.23,1.23,0,0,1-.31.86,1.75,1.75,0,0,1-.71.49q-.14,0-.09.12a6.45,6.45,0,0,0,1.12,1.9,1.72,1.72,0,0,0,.56.4,2.25,2.25,0,0,0,.56.21c.15,0,.22.08.22.18s-.1.12-.3.17a2.51,2.51,0,0,1-.62.07,1.56,1.56,0,0,1-1.24-.62,9.56,9.56,0,0,1-1.1-1.71.55.55,0,0,0-.31-.26,1.3,1.3,0,0,0-.52-.1.29.29,0,0,0-.16.06.17.17,0,0,0-.09.14Zm0-3.94v1.71a.35.35,0,0,0,.07.26.39.39,0,0,0,.24.05A2.29,2.29,0,0,0,49,18.75a1,1,0,0,0,.45-.92A1,1,0,0,0,49,17a2,2,0,0,0-1.09-.31.55.55,0,0,0-.34.07A.35.35,0,0,0,47.49,17Z"/><path class="cls-1" d="M54.42,21V17.31c0-.19,0-.31-.07-.34a.74.74,0,0,0-.38-.06h-.9a.77.77,0,0,0-.4.14,1,1,0,0,0-.32.29q-.12.27-.3.27s-.08,0-.08-.1a1.37,1.37,0,0,1,0-.16c0-.07,0-.2.07-.38s.06-.41.08-.68.06-.19.16-.19l.12.07a1.1,1.1,0,0,0,.36.13,2.46,2.46,0,0,0,.58.06h3a4.62,4.62,0,0,0,.81-.06,2,2,0,0,0,.44-.12l.14-.07c.07,0,.11.05.11.14s0,.48,0,.72,0,.38,0,.44a.34.34,0,0,1,0,.15c0,.06-.07.09-.11.08s-.14-.1-.2-.28-.33-.45-.8-.45c-.67,0-1.1,0-1.3,0s-.13.13-.13.37V21a.49.49,0,0,0,.21.45,1.66,1.66,0,0,0,.61.22c.2,0,.3.1.3.2s-.09.15-.25.15l-.66,0a6.18,6.18,0,0,0-.67,0,6.66,6.66,0,0,0-.69,0l-.65,0c-.17,0-.25,0-.25-.15s.1-.17.29-.2a1.66,1.66,0,0,0,.61-.22A.5.5,0,0,0,54.42,21Z"/><path class="cls-1" d="M64.33,17.57v4.1c0,.29-.07.43-.2.43a.74.74,0,0,1-.53-.33L60.53,18c-.13-.16-.24-.24-.31-.24s-.09.11-.09.34c0,1.33,0,2.29.06,2.87a.76.76,0,0,0,.16.46.86.86,0,0,0,.48.21c.2,0,.3.1.3.2S61,22,60.88,22a5.29,5.29,0,0,1-.54,0,3.06,3.06,0,0,0-.47,0,3.88,3.88,0,0,0-.52,0c-.21,0-.4,0-.56,0s-.25,0-.25-.15.1-.17.3-.2a1.27,1.27,0,0,0,.53-.21.66.66,0,0,0,.19-.46q.09-.87.09-2.85a2.07,2.07,0,0,0-.18-1,1,1,0,0,0-.74-.44q-.3-.06-.3-.24c0-.1.08-.15.25-.15l.77,0,.87,0c.06,0,.15.06.26.19l3,3.56c.08.11.13.17.16.17s.06-.06.06-.17V17.57a.79.79,0,0,0-.72-.88q-.3-.06-.3-.24c0-.1.09-.15.25-.15l.55,0,.52,0,.45,0,.49,0c.17,0,.25.05.25.15s-.1.2-.3.24a.7.7,0,0,0-.5.27A1.13,1.13,0,0,0,64.33,17.57Z"/><path class="cls-1" d="M67.2,16.36c.41,0,1,0,1.63,0h1.24c.1,0,.15,0,.15.07a6,6,0,0,0,.07.74,3.62,3.62,0,0,1,0,.4.22.22,0,0,1,0,.1s0,.06-.06.06-.18-.07-.24-.22a1.67,1.67,0,0,0-.3-.5.65.65,0,0,0-.45-.14h-1.2a.41.41,0,0,0-.21.05.18.18,0,0,0-.1.17V18.6a.54.54,0,0,0,0,.19c0,.07.06.11.09.11h1a.38.38,0,0,0,.28-.11,1.23,1.23,0,0,0,.18-.35q.06-.21.18-.21a.14.14,0,0,1,.12.06.14.14,0,0,1,0,.12c0,.4,0,.63,0,.69a3.18,3.18,0,0,0,0,.36,2.28,2.28,0,0,1,0,.32.19.19,0,0,1,0,.14s-.06.07-.09.07a.12.12,0,0,1-.09,0l-.07-.09,0-.1a.14.14,0,0,1,0-.07.47.47,0,0,0-.4-.33,8.56,8.56,0,0,0-.87,0h-.19a.09.09,0,0,0-.08.06.22.22,0,0,0,0,.16v1.38a.76.76,0,0,0,.07.42c0,.06.16.09.34.09H69.4a1,1,0,0,0,.63-.22,1.32,1.32,0,0,0,.4-.51q.09-.18.18-.18c.08,0,.12.07.12.2a5.92,5.92,0,0,1-.21,1.07.22.22,0,0,1-.08.09.2.2,0,0,1-.13.05l-1.71,0-1.44,0a5.22,5.22,0,0,0-.57,0c-.25,0-.47,0-.64,0s-.25,0-.25-.15.1-.17.3-.2a1.67,1.67,0,0,0,.6-.22.5.5,0,0,0,.22-.45V17.56a1,1,0,0,0-.17-.6.85.85,0,0,0-.55-.27q-.3-.06-.3-.24c0-.1.08-.15.25-.15l.59,0Z"/><path class="cls-1" d="M73.46,21a.62.62,0,0,0,.14.45,1.1,1.1,0,0,0,.49.19c.19,0,.29.1.29.2s-.08.15-.25.15l-.57,0-.56,0a6.49,6.49,0,0,0-.68,0l-.66,0c-.16,0-.25,0-.25-.15s.1-.17.3-.2a1.54,1.54,0,0,0,.6-.22.48.48,0,0,0,.22-.45V17.56a.89.89,0,0,0-.17-.6.82.82,0,0,0-.55-.27q-.3-.06-.3-.24c0-.1.09-.15.25-.15l.6,0,.56,0,.65,0,.78,0c1.4,0,2.1.47,2.1,1.4a1.23,1.23,0,0,1-.31.86,1.75,1.75,0,0,1-.71.49c-.09,0-.11.06-.09.12a6.45,6.45,0,0,0,1.12,1.9,1.72,1.72,0,0,0,.56.4,2.25,2.25,0,0,0,.56.21c.15,0,.22.08.22.18s-.1.12-.3.17a2.51,2.51,0,0,1-.62.07,1.56,1.56,0,0,1-1.24-.62,9,9,0,0,1-1.09-1.71.62.62,0,0,0-.32-.26,1.3,1.3,0,0,0-.52-.1.29.29,0,0,0-.16.06.17.17,0,0,0-.09.14Zm0-3.94v1.71a.35.35,0,0,0,.07.26.39.39,0,0,0,.24.05A2.29,2.29,0,0,0,75,18.75a1,1,0,0,0,.45-.92A1,1,0,0,0,75,17a2,2,0,0,0-1.09-.31.55.55,0,0,0-.34.07A.35.35,0,0,0,73.46,17Z"/><path class="cls-1" d="M80,21.82a1.13,1.13,0,0,0,.83-.29,1,1,0,0,0,.29-.72,1.06,1.06,0,0,0-.58-.93l-1-.62a1.89,1.89,0,0,1-1-1.56,1.23,1.23,0,0,1,.59-1.07,2.45,2.45,0,0,1,1.38-.39l.5,0,.45.07.23.05c.09,0,.14.07.16.17a6.86,6.86,0,0,1,.09,1,.37.37,0,0,1-.05.16c0,.06-.07.08-.12.08a.19.19,0,0,1-.14-.07.4.4,0,0,1-.09-.17,1.34,1.34,0,0,0-.49-.77,1.17,1.17,0,0,0-.66-.24,1,1,0,0,0-.7.25.77.77,0,0,0-.28.61.86.86,0,0,0,.17.57,2.52,2.52,0,0,0,.59.45l1.06.64a1.64,1.64,0,0,1,.88,1.43,1.45,1.45,0,0,1-.61,1.09,2.39,2.39,0,0,1-1.59.51,2.26,2.26,0,0,1-.54-.05,3.45,3.45,0,0,1-.46-.12l-.3-.09-.09,0a.08.08,0,0,1,0,0v0a3.06,3.06,0,0,1-.21-1.18c0-.19,0-.28.12-.28a.15.15,0,0,1,.11,0,.45.45,0,0,1,.09.16l0,.11.07.12a.94.94,0,0,0,.08.15,1.1,1.1,0,0,0,.09.15l.11.17.13.15a1.22,1.22,0,0,0,.14.16l.15.13a1,1,0,0,0,.18.11.66.66,0,0,0,.2.06A.91.91,0,0,0,80,21.82Z"/><path class="cls-1" d="M88.13,17.56a.79.79,0,0,0-.72-.87q-.3-.06-.3-.24c0-.1.08-.15.25-.15l.63,0,.61,0,.59,0,.64,0c.16,0,.25.05.25.15s-.1.2-.3.24a.79.79,0,0,0-.72.87V21a.48.48,0,0,0,.22.45,1.54,1.54,0,0,0,.6.22c.2,0,.3.1.3.2s-.09.15-.25.15l-.65,0a6.49,6.49,0,0,0-.68,0,6.35,6.35,0,0,0-.68,0l-.66,0c-.17,0-.25,0-.25-.15s.1-.17.3-.2a1.67,1.67,0,0,0,.6-.22.5.5,0,0,0,.22-.45V19.31s0-.06,0-.06l-1.58,0-1.44,0s0,0,0,.08V21a.48.48,0,0,0,.22.45,1.54,1.54,0,0,0,.6.22c.2,0,.3.1.3.2s-.08.15-.25.15l-.65,0a5.8,5.8,0,0,0-1.36,0l-.66,0c-.17,0-.25,0-.25-.15s.1-.17.3-.2a1.6,1.6,0,0,0,.6-.22.48.48,0,0,0,.22-.45V17.56a.79.79,0,0,0-.72-.87q-.3-.06-.3-.24c0-.1.08-.15.25-.15l.63,0,.61,0,.6,0,.63,0c.17,0,.25.05.25.15s-.1.2-.3.24a.79.79,0,0,0-.72.87v1.15c0,.05,0,.08.12.08l1.4,0,1.52,0s.07,0,.07-.1Z"/><path class="cls-1" d="M92.94,21.93a6.35,6.35,0,0,0-.68,0,6.49,6.49,0,0,0-.68,0l-.66,0c-.16,0-.25,0-.25-.15s.1-.17.3-.2a1.54,1.54,0,0,0,.6-.22.48.48,0,0,0,.22-.45V17.56a.89.89,0,0,0-.17-.6.82.82,0,0,0-.55-.27q-.3-.06-.3-.24c0-.1.09-.15.25-.15l.64,0,.6,0,.6,0,.63,0c.17,0,.25.05.25.15s-.1.2-.3.24a.85.85,0,0,0-.55.27,1,1,0,0,0-.17.6V21a.5.5,0,0,0,.22.45,1.67,1.67,0,0,0,.6.22c.2,0,.3.1.3.2s-.08.15-.25.15Z"/><path class="cls-1" d="M96.39,21a.48.48,0,0,0,.22.45,1.54,1.54,0,0,0,.6.22c.2,0,.3.1.3.2s-.09.15-.25.15l-.65,0a5.8,5.8,0,0,0-1.36,0l-.66,0c-.17,0-.25,0-.25-.15s.1-.17.3-.2a1.67,1.67,0,0,0,.6-.22.5.5,0,0,0,.22-.45V17.56a1,1,0,0,0-.17-.6.85.85,0,0,0-.55-.27q-.3-.06-.3-.24c0-.1.08-.15.25-.15l.59,0,.56,0,.59,0,.72,0a2.86,2.86,0,0,1,1.49.37,1.25,1.25,0,0,1,.61,1.15,1.79,1.79,0,0,1-.5,1.32,1.81,1.81,0,0,1-1.34.49.73.73,0,0,1-.31-.07Q97,19.5,97,19.41c0-.1.13-.15.4-.15a.74.74,0,0,0,.65-.35,1.5,1.5,0,0,0,.23-.83,1.43,1.43,0,0,0-.37-1,1.19,1.19,0,0,0-.92-.41c-.37,0-.55.12-.55.36Z"/><path class="cls-2" d="M34.11,27.42l-.32,0-.42,0-.4,0-.34,0s0,0,0-.09,0-.1,0-.1l.21,0A.35.35,0,0,0,33,27.1a.44.44,0,0,0,.16-.34V24.58a.73.73,0,0,0-.07-.38.78.78,0,0,0-.35-.21s0,0,0,0a.34.34,0,0,1,0-.1,0,0,0,0,1,0-.05h.68l.32,0,.4,0c.86,0,1.29.28,1.29.83a.78.78,0,0,1-.17.56,1.67,1.67,0,0,1-.46.24l0,0s0,0,0,0l.27.1a1,1,0,0,1,.24.13.49.49,0,0,1,.21.26.94.94,0,0,1,.07.39,1,1,0,0,1-.56.94A1.91,1.91,0,0,1,34.11,27.42Zm-.36-2.27a.26.26,0,0,0,0,.16.33.33,0,0,0,.13,0,1.06,1.06,0,0,0,.67-.16.55.55,0,0,0,.23-.52.77.77,0,0,0-.14-.47.72.72,0,0,0-.56-.17.64.64,0,0,0-.3,0,.27.27,0,0,0-.08.2C33.73,24.56,33.74,24.85,33.75,25.15Zm1.16,1.21a.69.69,0,0,0-.27-.64,1.16,1.16,0,0,0-.58-.13.44.44,0,0,0-.25.06.16.16,0,0,0-.06.14q0,.34,0,1a.47.47,0,0,0,.09.29.43.43,0,0,0,.35.11.7.7,0,0,0,.52-.21A.85.85,0,0,0,34.91,26.36Z"/><path class="cls-2" d="M35.85,27.42s-.05,0,0-.09,0-.09,0-.1a1.32,1.32,0,0,0,.46-.24,1,1,0,0,0,.25-.33c.23-.49.54-1.21.92-2.14a1.15,1.15,0,0,0,.06-.21s0-.06,0-.11,0-.07,0-.1v-.05a.56.56,0,0,0,.18-.1l.18-.15.11-.11s0,0,.06.07l.47,1.33c.21.6.39,1.08.53,1.45a1.18,1.18,0,0,0,.28.45.76.76,0,0,0,.36.24s0,0,0,.1,0,.09,0,.09l-.38,0-.39,0-.44,0-.39,0a0,0,0,0,1,0-.05.14.14,0,0,1,0-.09s0-.05,0-.05a.51.51,0,0,0,.32-.22.5.5,0,0,0,0-.33,2.91,2.91,0,0,0-.11-.34s-.06-.06-.15-.06H37.09s-.07,0-.09.1a2.79,2.79,0,0,0-.13.34.44.44,0,0,0,0,.27.57.57,0,0,0,.33.24s.06,0,.06.1,0,.09-.06.09l-.4,0-.39,0-.29,0Zm1.87-2.72L37.15,26s0,.05,0,.06l.1,0h1s0,0,0-.07-.18-.55-.44-1.29c0,0,0-.07,0-.08a0,0,0,0,0,0,0A.22.22,0,0,0,37.72,24.7Z"/><path class="cls-2" d="M40.77,25.88c0,.13,0,.28,0,.48s0,.32,0,.39.17.36.52.44a.18.18,0,0,1,0,.13c0,.07,0,.11,0,.11l-.32,0-.45,0-.53,0-.37,0s0,0,0-.1,0-.1,0-.1A.69.69,0,0,0,40,27a.41.41,0,0,0,.16-.33V24.58a.68.68,0,0,0-.07-.4.64.64,0,0,0-.13-.12L39.76,24s0,0,0,0a.36.36,0,0,1,0-.1s0-.05,0-.05l.34,0h.39l.29,0,.38,0a1.91,1.91,0,0,1,1,.25.8.8,0,0,1,.38.69.9.9,0,0,1-.1.39,1.23,1.23,0,0,1-.18.29,1.28,1.28,0,0,1-.32.23s0,0,0,.05.16.24.28.45.23.38.33.52a4.7,4.7,0,0,0,.38.43.51.51,0,0,0,.16.11l.12.05h.32a0,0,0,0,1,0,0,.08.08,0,0,1,0,.07.15.15,0,0,1,0,.06.7.7,0,0,1-.4.12,1.07,1.07,0,0,1-.88-.31,1.81,1.81,0,0,1-.18-.23l-.13-.19-.17-.3c-.08-.14-.16-.26-.23-.37a.56.56,0,0,0-.24-.22,1.07,1.07,0,0,0-.44-.12s-.05,0-.06,0A.29.29,0,0,0,40.77,25.88Zm0-.55a.21.21,0,0,0,0,.15.18.18,0,0,0,.08.05H41a1,1,0,0,0,.58-.16.72.72,0,0,0,.25-.65.64.64,0,0,0-.72-.72.39.39,0,0,0-.28.08.37.37,0,0,0-.07.23C40.77,24.8,40.77,25.14,40.77,25.33Z"/><path class="cls-2" d="M44.67,25.88c0,.13,0,.28,0,.48s0,.32,0,.39.18.36.52.44c0,0,0,.06,0,.13s0,.11,0,.11l-.31,0-.46,0-.52,0-.37,0s0,0,0-.1,0-.1,0-.1a.78.78,0,0,0,.36-.19.44.44,0,0,0,.16-.33V24.58a.77.77,0,0,0-.07-.4.64.64,0,0,0-.14-.12L43.65,24s0,0,0,0a.34.34,0,0,1,0-.1,0,0,0,0,1,0-.05l.35,0h.38l.29,0,.38,0a1.86,1.86,0,0,1,1,.25.79.79,0,0,1,.39.69,1.07,1.07,0,0,1-.1.39,1.23,1.23,0,0,1-.18.29,1.49,1.49,0,0,1-.32.23s0,0,0,.05.15.24.27.45a5.24,5.24,0,0,0,.34.52,3.55,3.55,0,0,0,.38.43.48.48,0,0,0,.15.11l.12.05h.33s0,0,0,0a.2.2,0,0,1,0,.07.09.09,0,0,1,0,.06.69.69,0,0,1-.39.12,1.09,1.09,0,0,1-.89-.31c-.06-.08-.12-.15-.17-.23a1.3,1.3,0,0,1-.13-.19l-.17-.3-.23-.37a.71.71,0,0,0-.24-.22,1.11,1.11,0,0,0-.44-.12s0,0-.06,0A.15.15,0,0,0,44.67,25.88Zm0-.55a.21.21,0,0,0,0,.15.15.15,0,0,0,.07.05h.15a1,1,0,0,0,.59-.16c.16-.1.24-.32.24-.65A.64.64,0,0,0,45,24a.35.35,0,0,0-.27.08.37.37,0,0,0-.08.23C44.67,24.8,44.66,25.14,44.67,25.33Z"/><path class="cls-2" d="M48.93,24.38v2.36A.37.37,0,0,0,49,27a.91.91,0,0,0,.43.2c.05,0,.07,0,.07.1s0,.09-.07.09l-.41,0-.41,0-.44,0-.41,0s0,0-.06-.05a.14.14,0,0,1,0-.09s0-.05.06-.05a.82.82,0,0,0,.43-.2.37.37,0,0,0,.1-.29V24.38a.29.29,0,0,0-.13-.23,1.7,1.7,0,0,0-.35-.19s0,0,0-.05a.14.14,0,0,1,0-.09s0,0,0,0h1.56s.05,0,.05.08,0,.09-.05.1a1.64,1.64,0,0,0-.37.2A.28.28,0,0,0,48.93,24.38Z"/><path class="cls-2" d="M50.74,27.2c.42,0,.62-.2.62-.6a.34.34,0,0,0,0-.1s0-.06,0-.09a.9.9,0,0,0,0-.09l-.06-.08-.08-.08a.3.3,0,0,1-.08-.07L51,26l-.11-.08-.13-.08-.14-.09a1.35,1.35,0,0,1-.76-1.1.89.89,0,0,1,.33-.62,1.23,1.23,0,0,1,.89-.32,1.66,1.66,0,0,1,.32,0l.26.06.15.05c.05,0,.09,0,.1.12a3.36,3.36,0,0,1,.09.59.29.29,0,0,1,0,.09s0,0,0,0l-.1,0a.13.13,0,0,1-.09-.09A.69.69,0,0,0,51,24c-.37,0-.56.16-.56.47a.32.32,0,0,0,0,.14.34.34,0,0,0,.08.14l.09.12.14.11.13.11.15.09.14.09c.58.37.88.76.88,1.16a1,1,0,0,1-.33.71,1.29,1.29,0,0,1-1,.33,2,2,0,0,1-.35,0l-.31-.07-.2-.05-.06,0a0,0,0,0,1,0,0v0a2.19,2.19,0,0,1-.11-.37,2,2,0,0,1-.07-.39s0-.05,0-.07l.11,0s0,0,.09.12a2.29,2.29,0,0,0,.17.27.94.94,0,0,0,.29.26A.72.72,0,0,0,50.74,27.2Z"/><path class="cls-2" d="M54.91,24.15h-.79s-.08.09-.08.24v2.35a.37.37,0,0,0,.1.28.86.86,0,0,0,.42.19s0,0,0,.06a.14.14,0,0,1,0,.09s0,.05,0,.05l-.42,0-.42,0-.41,0-.39,0s0,0-.05-.05a.25.25,0,0,1,0-.09s0-.06.06-.06a.87.87,0,0,0,.41-.19.38.38,0,0,0,.11-.28V24.4c0-.15,0-.23-.1-.24h-.59a.42.42,0,0,0-.4.22.64.64,0,0,1-.12.14.21.21,0,0,1-.14.09c-.07,0-.08-.07,0-.21a1.72,1.72,0,0,0,.07-.21c0-.08,0-.17,0-.3s0-.19,0-.22,0-.12.11-.12.08.06.15.17.15.11.35.11H55a.56.56,0,0,0,.41-.11.26.26,0,0,1,.19-.09l0,0a.06.06,0,0,1,0,.06,3.47,3.47,0,0,0-.13.76s0,.05,0,.07a.09.09,0,0,1,0,.06l-.05,0s-.09-.07-.13-.18v-.05l0-.06,0,0s0,0,0,0l0,0-.07,0-.09,0Z"/><path class="cls-2" d="M57.38,25.67a2.3,2.3,0,0,0-.69,0c-.09,0-.13.05-.13.13s0,.47,0,.88.13.41.35.41h.7l.19,0A.59.59,0,0,0,58,27a1.1,1.1,0,0,0,.26-.37.12.12,0,0,1,.12-.06s.07,0,.07.07a5.14,5.14,0,0,1-.13.69c0,.06,0,.09-.08.09l-1.05,0-.89,0-.86.05s0,0,0-.05a.28.28,0,0,1,0-.09s0-.05,0-.05a1,1,0,0,0,.36-.17.41.41,0,0,0,.16-.3V24.54a.64.64,0,0,0-.08-.4l0,0,0,0s0,0,0,0l-.05,0h0l-.06,0-.08,0s0,0,0-.09,0-.08,0-.08h2.53c.06,0,.09,0,.09,0a4.05,4.05,0,0,1,.09.74s0,.05-.09.05,0,0-.06-.06a.82.82,0,0,0-.16-.3.41.41,0,0,0-.34-.15h-.84a.11.11,0,0,0-.09.05.14.14,0,0,0-.05.1,3.41,3.41,0,0,0,0,.42c0,.35,0,.54,0,.57s0,.12,0,.12h.7a.36.36,0,0,0,.24-.08.33.33,0,0,0,.09-.14c0-.07.09-.11.12-.11l.05,0a.07.07,0,0,1,0,.06,5.41,5.41,0,0,0,0,.81c0,.06,0,.09,0,.09s-.1-.05-.14-.15A.3.3,0,0,0,57.38,25.67Z"/><path class="cls-2" d="M59.47,25.88c0,.13,0,.28,0,.48s0,.32,0,.39.18.36.52.44c0,0,0,.06,0,.13s0,.11,0,.11l-.31,0-.46,0-.52,0-.37,0s0,0,0-.1,0-.1,0-.1a.78.78,0,0,0,.36-.19.44.44,0,0,0,.16-.33V24.58a.77.77,0,0,0-.07-.4.64.64,0,0,0-.14-.12,1,1,0,0,0-.21-.07s0,0,0,0a.34.34,0,0,1,0-.1,0,0,0,0,1,0-.05l.35,0h.38l.29,0,.38,0a1.86,1.86,0,0,1,1,.25.79.79,0,0,1,.39.69,1.07,1.07,0,0,1-.1.39,1.23,1.23,0,0,1-.18.29,1.49,1.49,0,0,1-.32.23s0,0,0,.05.15.24.27.45a5.24,5.24,0,0,0,.34.52,3.55,3.55,0,0,0,.38.43.48.48,0,0,0,.15.11l.12.05h.33s0,0,0,0a.2.2,0,0,1,0,.07.09.09,0,0,1,0,.06.69.69,0,0,1-.39.12,1.09,1.09,0,0,1-.89-.31c-.06-.08-.12-.15-.17-.23a1.3,1.3,0,0,1-.13-.19l-.17-.3-.23-.37a.71.71,0,0,0-.24-.22,1.11,1.11,0,0,0-.44-.12s0,0-.06,0A.15.15,0,0,0,59.47,25.88Zm0-.55a.21.21,0,0,0,0,.15.15.15,0,0,0,.07.05h.15a1,1,0,0,0,.59-.16c.16-.1.24-.32.24-.65a.64.64,0,0,0-.72-.72.35.35,0,0,0-.27.08.37.37,0,0,0-.08.23C59.47,24.8,59.46,25.14,59.47,25.33Z"/><path class="cls-2" d="M69,24.28a1.37,1.37,0,0,0-.86.45l-.6.64L67,26l-.1.11.14.2c.12.17.2.29.25.35a2,2,0,0,0,.22.24.66.66,0,0,0,.31.21,1.09,1.09,0,0,0,.38.05.64.64,0,0,0,.29-.09l.24-.12a.12.12,0,0,1,.12,0c.07.07.08.12,0,.15l-.23.16-.23.15a1,1,0,0,1-.22.09.93.93,0,0,1-.29.05,1,1,0,0,1-.66-.2,3.79,3.79,0,0,1-.58-.73l-.1-.17,0,0-.21.22a1.85,1.85,0,0,1-.21.23l-.19.19a1.24,1.24,0,0,1-.22.18l-.22.11a.83.83,0,0,1-.28.09,1.36,1.36,0,0,1-.29,0,1.67,1.67,0,0,1-1-.31.92.92,0,0,1-.43-.77,1.93,1.93,0,0,1,1.35-1.78l.16-.07-.12-.13-.09-.1-.11-.13-.11-.15a1.8,1.8,0,0,1-.1-.18.69.69,0,0,1-.07-.19.91.91,0,0,1,0-.23.73.73,0,0,1,.32-.62,1.28,1.28,0,0,1,.75-.26,1.13,1.13,0,0,1,.71.22.74.74,0,0,1,.3.61,1.08,1.08,0,0,1-.2.66,1.22,1.22,0,0,1-.57.42l-.11,0,.07.08.47.5a4.65,4.65,0,0,1,.57.66l.09.14.13-.14a3.7,3.7,0,0,0,.85-1.14.26.26,0,0,0,0-.21.38.38,0,0,0-.19-.14.1.1,0,0,1-.07-.11l0,0,.39,0h.39a2.24,2.24,0,0,0,.45-.05l.33-.05c.08,0,.1,0,.07.09A.28.28,0,0,1,69,24.28Zm-3.87.44-.17.07a1.35,1.35,0,0,0-.44.26.84.84,0,0,0-.25.35,1.4,1.4,0,0,0-.1.36,2.09,2.09,0,0,0,0,.38.78.78,0,0,0,.28.61.93.93,0,0,0,.64.24,1.62,1.62,0,0,0,.72-.15,2.57,2.57,0,0,0,.61-.49l.07-.07-.09-.16c-.08-.12-.18-.24-.28-.37l-.46-.5-.41-.42Zm.31-.33.1-.05c.3-.13.44-.43.44-.89a.66.66,0,0,0-.16-.43.48.48,0,0,0-.4-.19.59.59,0,0,0-.39.13.42.42,0,0,0-.17.33,1.72,1.72,0,0,0,.46,1Z"/><path class="cls-2" d="M71.52,27.2q.63,0,.63-.6s0-.07,0-.1l0-.09a.28.28,0,0,0,0-.09L72,26.24l-.08-.08-.08-.07-.1-.07a.8.8,0,0,0-.12-.08l-.13-.08-.13-.09a1.33,1.33,0,0,1-.76-1.1.87.87,0,0,1,.32-.62,1.24,1.24,0,0,1,.89-.32,1.66,1.66,0,0,1,.32,0l.27.06.14.05c.06,0,.09,0,.1.12a3.36,3.36,0,0,1,.09.59.29.29,0,0,1,0,.09s0,0,0,0a.24.24,0,0,1-.11,0s-.08-.05-.08-.09a.71.71,0,0,0-.74-.57c-.37,0-.55.16-.55.47a.59.59,0,0,0,0,.14.5.5,0,0,0,.08.14l.1.12a.52.52,0,0,0,.13.11l.14.11.15.09.13.09c.59.37.88.76.88,1.16a1,1,0,0,1-.33.71,1.27,1.27,0,0,1-.94.33,1.89,1.89,0,0,1-.35,0l-.32-.07-.2-.05-.05,0,0,0v0a2,2,0,0,1-.12-.37,3.32,3.32,0,0,1-.07-.39s0-.05.06-.07l.1,0s0,0,.09.12.1.17.17.27a1.07,1.07,0,0,0,.29.26A.72.72,0,0,0,71.52,27.2Z"/><path class="cls-2" d="M73.2,25.66a1.85,1.85,0,0,1,.57-1.33,1.79,1.79,0,0,1,1.33-.58,2,2,0,0,1,1.4.54,1.71,1.71,0,0,1,.59,1.34A1.81,1.81,0,0,1,76.56,27a2.07,2.07,0,0,1-2.81,0A1.82,1.82,0,0,1,73.2,25.66ZM75.05,24a1,1,0,0,0-.89.44,2.09,2.09,0,0,0-.28,1.1,2,2,0,0,0,.35,1.21,1.18,1.18,0,0,0,1,.47,1.05,1.05,0,0,0,.57-.15.9.9,0,0,0,.37-.38,1.78,1.78,0,0,0,.19-.48,2.22,2.22,0,0,0,.06-.51,2.08,2.08,0,0,0-.35-1.19A1.15,1.15,0,0,0,75.05,24Z"/><path class="cls-2" d="M79,24l-.16,0-.15,0-.11,0-.1.07a.61.61,0,0,0-.1.42v2.14a.38.38,0,0,0,.43.43h.77l.15,0a.5.5,0,0,0,.17-.11,2,2,0,0,0,.33-.51s.1-.06.22-.05a.07.07,0,0,1,.06,0,0,0,0,0,1,0,.05,6,6,0,0,0-.17.82s0,0,0,.06l-.08,0H79c-.48,0-.8,0-1,0l-.85,0s0,0,0,0a.14.14,0,0,1,0-.09s0,0,0,0a1,1,0,0,0,.37-.17.51.51,0,0,0,.16-.34V24.56a.79.79,0,0,0-.07-.41l0,0,0,0,0,0,0,0h0l-.07,0-.08,0s0,0,0-.1,0-.09,0-.09H79s0,0,0,.09S79,24,79,24Z"/><path class="cls-2" d="M81.73,24.38v2.36a.37.37,0,0,0,.11.29.91.91,0,0,0,.43.2s.07,0,.07.1,0,.09-.07.09l-.41,0-.41,0-.44,0-.42,0s0,0,0-.05a.14.14,0,0,1,0-.09,0,0,0,0,1,0-.05A.82.82,0,0,0,81,27a.37.37,0,0,0,.1-.29V24.38a.29.29,0,0,0-.13-.23,1.7,1.7,0,0,0-.35-.19s0,0,0-.05v-.09s0,0,0,0h1.56s.05,0,.05.08,0,.09-.05.1a1.64,1.64,0,0,0-.37.2A.28.28,0,0,0,81.73,24.38Z"/><path class="cls-2" d="M84.29,23.73a2.19,2.19,0,0,1,.58.06,1.33,1.33,0,0,0,.23.06l.22,0s.05.06.08.17,0,.43,0,.6a.18.18,0,0,1,0,.09s-.05,0-.07,0a.18.18,0,0,1-.18-.17.71.71,0,0,0-.19-.44.73.73,0,0,0-.32-.15,1.86,1.86,0,0,0-.48-.06,1,1,0,0,0-.89.46,1.78,1.78,0,0,0-.32,1,2,2,0,0,0,.36,1.2,1.19,1.19,0,0,0,1,.55A1.36,1.36,0,0,0,85,27a.68.68,0,0,0,.3-.42.17.17,0,0,1,.1-.07l.14,0c.05,0,.07.05.06.14a1.47,1.47,0,0,1-.11.31,1.69,1.69,0,0,1-.16.33s-.17.1-.43.15a4.17,4.17,0,0,1-.75.08A1.74,1.74,0,0,1,82.82,27a1.87,1.87,0,0,1-.54-1.33,1.73,1.73,0,0,1,.6-1.34A2,2,0,0,1,84.29,23.73Z"/><path class="cls-2" d="M86.76,24.38v2.36a.37.37,0,0,0,.11.29.91.91,0,0,0,.43.2s.07,0,.07.1,0,.09-.07.09l-.41,0-.41,0-.44,0-.41,0s0,0-.06-.05a.14.14,0,0,1,0-.09s0-.05.06-.05a.82.82,0,0,0,.43-.2.37.37,0,0,0,.1-.29V24.38a.29.29,0,0,0-.13-.23,1.46,1.46,0,0,0-.35-.19s0,0,0-.05a.14.14,0,0,1,0-.09s0,0,0,0h1.56s.05,0,.05.08,0,.09-.05.1a1.64,1.64,0,0,0-.37.2A.28.28,0,0,0,86.76,24.38Z"/><path class="cls-2" d="M90.23,24.15h-.78q-.09,0-.09.24v2.35a.38.38,0,0,0,.11.28.82.82,0,0,0,.41.19s.05,0,.06.06a.14.14,0,0,1,0,.09.06.06,0,0,1-.06.05l-.41,0-.43,0-.41,0-.39,0s0,0,0-.05a.14.14,0,0,1,0-.09s0-.06,0-.06a.9.9,0,0,0,.42-.19.37.37,0,0,0,.1-.28V24.4q0-.22-.09-.24h-.6a.43.43,0,0,0-.4.22.92.92,0,0,1-.11.14c-.06.06-.1.09-.14.09s-.08-.07,0-.21a.86.86,0,0,0,.07-.21,1.82,1.82,0,0,0,0-.3c0-.12,0-.19,0-.22s0-.12.1-.12.09.06.16.17.15.11.35.11h2.17a.53.53,0,0,0,.4-.11.3.3,0,0,1,.19-.09.05.05,0,0,1,0,0,0,0,0,0,1,0,.06,2.93,2.93,0,0,0-.13.76.19.19,0,0,0,0,.07l0,.06-.05,0s-.09-.07-.13-.18a.11.11,0,0,0,0-.05v-.06l0,0,0,0,0,0-.06,0-.09,0Z"/><path class="cls-2" d="M91.18,25.66a1.85,1.85,0,0,1,.57-1.33,1.78,1.78,0,0,1,1.32-.58,2,2,0,0,1,1.41.54,1.74,1.74,0,0,1,.59,1.34A1.85,1.85,0,0,1,94.54,27a1.93,1.93,0,0,1-1.47.56A1.86,1.86,0,0,1,91.73,27,1.78,1.78,0,0,1,91.18,25.66ZM93,24a1,1,0,0,0-.9.44,2.09,2.09,0,0,0-.27,1.1,2,2,0,0,0,.35,1.21,1.16,1.16,0,0,0,1,.47,1.11,1.11,0,0,0,.58-.15,1,1,0,0,0,.37-.38,2.18,2.18,0,0,0,.19-.48,2.22,2.22,0,0,0,.06-.51,2.08,2.08,0,0,0-.35-1.19A1.15,1.15,0,0,0,93,24Z"/><path class="cls-2" d="M96.27,25.88c0,.13,0,.28,0,.48s0,.32,0,.39.18.36.52.44c0,0,0,.06,0,.13s0,.11,0,.11l-.31,0-.46,0-.52,0-.37,0s0,0,0-.1,0-.1,0-.1a.78.78,0,0,0,.36-.19.44.44,0,0,0,.16-.33V24.58a.66.66,0,0,0-.08-.4.46.46,0,0,0-.13-.12,1,1,0,0,0-.21-.07s0,0,0,0a.34.34,0,0,1,0-.1,0,0,0,0,1,0-.05l.35,0H96l.29,0,.38,0a1.89,1.89,0,0,1,1,.25.78.78,0,0,1,.38.69.9.9,0,0,1-.1.39,1,1,0,0,1-.17.29,1.32,1.32,0,0,1-.33.23s0,0,0,.05a4.33,4.33,0,0,1,.28.45,5.24,5.24,0,0,0,.34.52,3.55,3.55,0,0,0,.38.43.48.48,0,0,0,.15.11l.12.05H99s0,0,0,0a.2.2,0,0,1,0,.07.09.09,0,0,1,0,.06.69.69,0,0,1-.39.12,1.09,1.09,0,0,1-.89-.31L97.55,27l-.12-.19c0-.06-.09-.16-.17-.3L97,26.11a.71.71,0,0,0-.24-.22,1.11,1.11,0,0,0-.44-.12s0,0-.06,0A.15.15,0,0,0,96.27,25.88Zm0-.55a.21.21,0,0,0,0,.15.15.15,0,0,0,.07.05h.15a1,1,0,0,0,.58-.16c.17-.1.25-.32.25-.65a.64.64,0,0,0-.72-.72.35.35,0,0,0-.27.08.37.37,0,0,0-.08.23C96.27,24.8,96.26,25.14,96.27,25.33Z"/><path class="cls-2" d="M28.3,0H15.59a11.11,11.11,0,0,1-1.37,20.61l-.53.15v0l-.88.18a2.28,2.28,0,0,0-1.71,1.52v6.81a2,2,0,0,0,2,2H28.3a2,2,0,0,0,2-2V2A2,2,0,0,0,28.3,0Z"/><path class="cls-1" d="M9.72,0H2A2,2,0,0,0,0,2V29.29a2,2,0,0,0,2,2H7.23a2,2,0,0,0,2-2v-7a3.3,3.3,0,0,1,2.57-2.42h0a9.35,9.35,0,0,0,1.29-.32A10,10,0,0,0,20,9.31,10.22,10.22,0,0,0,9.72,0Z"/></g></g></svg>