<svg xmlns="http://www.w3.org/2000/svg" viewBox="0 0 776.85 155.92"><defs><style>.cls-1{fill:#c2b697;}.cls-2{fill:#fff;}</style></defs><title>Prime lawAsset 24</title><g id="Layer_2" data-name="Layer 2"><g id="Layer_2-2" data-name="Layer 2"><path class="cls-1" d="M145.65,0h-68a55.34,55.34,0,0,1-6.85,102.69c-.86.27-1.73.53-2.62.76v.11l-4.39.89A11.25,11.25,0,0,0,55.32,112v43.89h90.33a5.35,5.35,0,0,0,5.35-5.35V5.35A5.34,5.34,0,0,0,145.65,0Z"/><path class="cls-2" d="M49.34,0h-44A5.34,5.34,0,0,0,0,5.35V150.57a5.35,5.35,0,0,0,5.35,5.35H46V111.28A16.61,16.61,0,0,1,58.8,99.2v0h0a50.41,50.41,0,0,0,6.41-1.58A50,50,0,0,0,100,49.4C99.65,21.92,76.83,0,49.34,0Z"/><path class="cls-2" d="M168.21,56.41V75.85c0,1.65,1.33,2.81,4,3.47.2,0,.31.34.31.9s-.11.83-.31.83-1-.06-2.48-.18-2.7-.19-3.65-.19-2.19.06-3.72.19-2.43.18-2.72.18-.25-.23-.25-.71.08-.73.25-.77a4.89,4.89,0,0,0,2.78-1.43,3.52,3.52,0,0,0,1.18-2.54V59.19c0-1.73-.19-2.78-.56-3.15a3.89,3.89,0,0,0-1-.84,11.09,11.09,0,0,0-1.64-.59c-.12,0-.22-.19-.31-.46a2.13,2.13,0,0,1-.09-.78c0-.24.13-.37.34-.37.58,0,1.34,0,2.29.06s1.74.07,2.35.07,1.62-.06,3.13-.16,2.45-.15,2.82-.15a18.92,18.92,0,0,1,8.95,2,6.37,6.37,0,0,1,3.74,5.94,8.09,8.09,0,0,1-3,6.81,10.1,10.1,0,0,1-4.74,1.77,15.78,15.78,0,0,1-4.86.15c-.74-.12-1-.37-.68-.74a.55.55,0,0,1,.56-.25,5.7,5.7,0,0,0,4.46-1,8.59,8.59,0,0,0,2.47-2.69,9.83,9.83,0,0,0,.75-4.43,4.9,4.9,0,0,0-1.3-3.56A6.17,6.17,0,0,0,174.41,55a14.26,14.26,0,0,0-3.47-.4Q168.21,54.61,168.21,56.41Z"/><path class="cls-2" d="M196.45,69.16q.06,1.43.12,3.69c.05,1.51.07,2.51.07,3q.06,2.48,4,3.47c.21.08.31.4.31,1s-.1.83-.31.83-1-.06-2.41-.18-2.63-.19-3.53-.19-2.39.07-4.06.19-2.63.18-2.88.18-.31-.24-.31-.74.1-.76.31-.8a5.77,5.77,0,0,0,2.79-1.43,3.36,3.36,0,0,0,1.24-2.54V59.07c0-1.65-.19-2.68-.56-3.1a4.22,4.22,0,0,0-1-.89,8.37,8.37,0,0,0-1.64-.53c-.13,0-.23-.19-.31-.43a1.77,1.77,0,0,1-.1-.75c0-.24.14-.37.34-.37q.87,0,2.67.09c1.19.07,2.19.1,3,.1a20.77,20.77,0,0,0,2.26-.19,26,26,0,0,1,2.94-.18,14,14,0,0,1,7.8,2,6.07,6.07,0,0,1,3,5.35,7.22,7.22,0,0,1-.78,3A7.21,7.21,0,0,1,208,65.32a8.44,8.44,0,0,1-2.48,1.8c-.16,0-.16.17,0,.37.5.74,1.21,1.91,2.14,3.5a46.29,46.29,0,0,0,2.6,4,26.21,26.21,0,0,0,2.94,3.31,4.46,4.46,0,0,0,1.21.9,4.19,4.19,0,0,0,.93.34,6.67,6.67,0,0,0,1.2,0l1.3,0c.13,0,.21.08.25.24a.93.93,0,0,1-.06.56,1,1,0,0,1-.31.44,5.33,5.33,0,0,1-3,.92q-4.91,0-6.88-2.35c-.49-.62-.95-1.22-1.36-1.79s-.74-1.09-1-1.52-.69-1.19-1.33-2.26-1.23-2-1.77-2.91a4.69,4.69,0,0,0-1.85-1.67,8.48,8.48,0,0,0-3.41-.93.4.4,0,0,0-.46.18A1.25,1.25,0,0,0,196.45,69.16Zm0-4.27a1.68,1.68,0,0,0,.31,1.15,1,1,0,0,0,.59.37c.18,0,.57,0,1.14,0A7.9,7.9,0,0,0,203,65.2q1.92-1.17,1.92-5c0-3.71-1.85-5.57-5.57-5.57a2.87,2.87,0,0,0-2.13.59,2.74,2.74,0,0,0-.59,1.76Q196.39,62.66,196.45,64.89Z"/><path class="cls-2" d="M234.41,57.52V75.79a3,3,0,0,0,.87,2.29,6.57,6.57,0,0,0,3.28,1.49.71.71,0,0,1,.56.8c0,.46-.19.68-.56.68-.83,0-1.88,0-3.16-.15s-2.33-.16-3.16-.16-2.05.06-3.43.16-2.45.15-3.19.15c-.17,0-.3-.11-.41-.34a1.07,1.07,0,0,1-.06-.71.53.53,0,0,1,.47-.43A6.65,6.65,0,0,0,229,78.08a3,3,0,0,0,.81-2.29V57.52a2.27,2.27,0,0,0-1-1.73,10.79,10.79,0,0,0-2.72-1.49c-.12,0-.22-.18-.28-.43a1.3,1.3,0,0,1,0-.68c.06-.21.16-.31.28-.31.91,0,2,0,3.19.06s2.22.06,3,.06,1.69,0,2.85-.06,2.17-.06,3-.06c.25,0,.38.21.38.65s-.13.69-.38.77a10.48,10.48,0,0,0-2.84,1.55A1.94,1.94,0,0,0,234.41,57.52Z"/><path class="cls-2" d="M265.49,80.93q-.56,1-1.2,1c-.44-.06-.8-.42-1.09-1.08q-1.67-3.54-4.49-10.31t-4.18-9.94c-.29-.71-.47-.71-.55,0Q252.74,72.63,252.55,76a3.51,3.51,0,0,0,1.24,2.41,4.47,4.47,0,0,0,2.29,1.18c.21,0,.34.3.4.77s-.07.71-.4.71c-.54,0-1.31,0-2.32-.12s-1.83-.12-2.45-.12-1.6,0-2.69.12-1.87.12-2.32.12c-.25,0-.36-.23-.34-.71s.13-.73.34-.77a7.56,7.56,0,0,0,2.72-1,2.37,2.37,0,0,0,.81-1.61q1.92-14.13,1.92-18.83a3.58,3.58,0,0,0-.68-2.35,6.94,6.94,0,0,0-3.6-1.61c-.37-.08-.49-.46-.37-1.12.09-.24.19-.37.31-.37a28.86,28.86,0,0,0,4.49.31c1.67,0,2.85,0,3.53-.09A3.79,3.79,0,0,1,257,53q6.81,17.1,8.54,21.3c.33.83.66.87,1,.13.83-1.7,1.6-3.35,2.33-5s1.26-2.85,1.61-3.71.94-2.33,1.76-4.4,1.45-3.59,1.86-4.58a27.24,27.24,0,0,1,1.67-3.59h2.85q1.11,0,5.57-.56.44-.06,0,.87a1.13,1.13,0,0,1-.37.49,4,4,0,0,1-1,.25,2.85,2.85,0,0,0-.8.19,4.71,4.71,0,0,0-.81.43,2.34,2.34,0,0,0-.68,2q.06,10.65.8,19.51a2.42,2.42,0,0,0,1,1.73,6.19,6.19,0,0,0,2.85,1.42c.21.09.33.37.38.84s-.09.71-.38.71-1.11,0-2.23-.12-2.06-.12-2.84-.12c-1,0-2.39,0-4.06.12l-2.82.12c-.25,0-.39-.23-.43-.71s0-.75.25-.84l.74-.21a1.86,1.86,0,0,0,.53-.25,1.57,1.57,0,0,0,.27-.22,3.43,3.43,0,0,0,.28-.28l.34-.34a2.57,2.57,0,0,0,.87-1.85q.06-2.61-.49-15.48c0-.79-.25-.79-.62,0Q266,79.7,265.49,80.93Z"/><path class="cls-2" d="M304.63,67.49a17.73,17.73,0,0,0-5.33-.06q-1.05.12-1.05,1,0,2,.12,6.81c.09,2.11,1,3.16,2.67,3.16h5.45a9.11,9.11,0,0,0,1.45-.25,5.18,5.18,0,0,0,1.52-.49,7.92,7.92,0,0,0,2-2.85c.12-.29.43-.43.93-.43s.56.16.56.49a31.34,31.34,0,0,1-1.06,5.33c-.08.49-.27.74-.55.74-2.11,0-4.82,0-8.15-.15s-5.62-.16-6.9-.16l-6.63.37c-.08,0-.15-.12-.21-.37a1.55,1.55,0,0,1,0-.74c0-.25.12-.37.24-.37a7.11,7.11,0,0,0,2.79-1.3A3.1,3.1,0,0,0,293.61,76V58.76c0-1.69-.19-2.72-.56-3.1a3.09,3.09,0,0,1-.31-.34,1.05,1.05,0,0,0-.28-.24l-.25-.16a1.68,1.68,0,0,0-.34-.15,2.41,2.41,0,0,0-.37-.13l-.49-.15-.62-.19c-.21,0-.32-.27-.34-.68s.09-.62.34-.62c.57,0,1.39,0,2.44.06s1.91.07,2.57.07c1.61,0,3.57,0,5.88-.07l5.86-.09,2.81,0c.46,0,.71.12.75.37a31.86,31.86,0,0,1,.68,5.7c0,.25-.23.37-.68.37-.21,0-.37-.14-.5-.43A6.06,6.06,0,0,0,309,56.59a3.2,3.2,0,0,0-2.6-1.11H299.8a.88.88,0,0,0-.68.34,1.42,1.42,0,0,0-.37.77,25.19,25.19,0,0,0-.38,3.29c-.08,2.72-.12,4.19-.12,4.39,0,.62.14.93.43.93h5.39a2.7,2.7,0,0,0,1.86-.62,2.87,2.87,0,0,0,.74-1.11q.56-.81.87-.81a.58.58,0,0,1,.4.22.46.46,0,0,1,.16.46,49.74,49.74,0,0,0,0,6.26c.08.49-.05.74-.38.74s-.74-.39-1.11-1.18A2.31,2.31,0,0,0,304.63,67.49Z"/><path class="cls-2" d="M331,54.3c-.33.09-.75.18-1.24.28s-.88.2-1.15.28a6.93,6.93,0,0,0-.86.34,2.82,2.82,0,0,0-.78.53c-.53.53-.8,1.63-.8,3.28V75.54q0,3.34,3.34,3.35h6a4.44,4.44,0,0,0,1.14-.31,3.67,3.67,0,0,0,1.33-.81,14.55,14.55,0,0,0,2.54-4c.21-.37.79-.52,1.74-.44a.69.69,0,0,1,.43.16.37.37,0,0,1,.12.4,44.47,44.47,0,0,0-1.36,6.32.65.65,0,0,1-.31.49,1,1,0,0,1-.62.25q-3.47,0-9-.12c-3.69-.08-6.18-.13-7.46-.13l-6.56.19c-.09,0-.16-.11-.22-.34a1.57,1.57,0,0,1,0-.68c0-.23.12-.34.25-.34a6.53,6.53,0,0,0,2.84-1.3,3.68,3.68,0,0,0,1.24-2.6V59c0-1.74-.18-2.81-.55-3.22a4.18,4.18,0,0,1-.31-.34.93.93,0,0,0-.31-.25,2,2,0,0,1-.28-.16,2,2,0,0,0-.34-.15l-.37-.13-.5-.15-.62-.19c-.21,0-.32-.29-.34-.77s.09-.71.34-.71c.58,0,1.35,0,2.32.06s1.77.06,2.39.06c1.07,0,2.59,0,4.55-.09l3.5-.09c.29,0,.41.23.37.71S331.21,54.26,331,54.3Z"/><path class="cls-2" d="M347,81.05c-.24,0-.36-.22-.34-.68s.14-.72.34-.8a10.44,10.44,0,0,0,3.53-1.8,7.78,7.78,0,0,0,1.92-2.6q2.73-5.7,7.19-16.6a9.46,9.46,0,0,0,.43-1.61c0-.2.08-.47.12-.8s.09-.6.13-.81l.06-.37a4.8,4.8,0,0,0,1.42-.8,8.51,8.51,0,0,0,1.37-1.12c.49-.57.78-.86.86-.86s.31.18.44.55q1.23,3.34,3.68,10.28t4.06,11.21a9.44,9.44,0,0,0,2.16,3.53,5.51,5.51,0,0,0,2.79,1.8c.25.08.39.35.43.8s-.1.68-.43.68q-1.11,0-2.94-.15c-1.22-.1-2.22-.16-3-.16s-2.05.06-3.41.16-2.37.15-3,.15c-.17,0-.27-.12-.31-.37a1.34,1.34,0,0,1,.06-.74c.08-.25.18-.37.31-.37a3.62,3.62,0,0,0,2.47-1.68,3.56,3.56,0,0,0,.13-2.53,19,19,0,0,0-.87-2.67c-.08-.29-.47-.43-1.17-.43h-8.8c-.29,0-.54.25-.74.74a24.25,24.25,0,0,0-1,2.67,3.33,3.33,0,0,0,.06,2,4,4,0,0,0,2.6,1.86c.29,0,.43.3.43.77s-.14.71-.43.71c-.83,0-1.86,0-3.1-.15s-2.25-.16-3-.16a21.62,21.62,0,0,0-2.23.16A20.9,20.9,0,0,1,347,81.05Zm14.43-21q-1.31,3.22-4.39,10c-.13.25-.13.41,0,.49a1.54,1.54,0,0,0,.8.13h7.25a1.24,1.24,0,0,0,.55-.06s0-.23-.06-.56q-.37-1.36-3.4-10a3.64,3.64,0,0,0-.28-.62c-.07-.08-.13-.08-.19,0A3.64,3.64,0,0,0,361.47,60Z"/><path class="cls-2" d="M409.52,58.45q-1.29,3.84-3.34,10.09t-3.47,10.35a7.74,7.74,0,0,1-1.3,2.1c-.66.83-1.07,1.24-1.24,1.24a2,2,0,0,1-.74-.34,1.76,1.76,0,0,1-.74-.78c-.66-1.36-1.22-2.54-1.67-3.56s-1-2.38-1.64-4.11-1.17-3.1-1.58-4.09a.64.64,0,0,0-.07-.19c-.16-.49-.33-.55-.49-.18l-.13.25c-.57,1.56-1.35,3.43-2.32,5.6S389,79,388.41,80.74a3,3,0,0,1-.9,1,2.06,2.06,0,0,1-1,.56,2.94,2.94,0,0,1-.81-.52,2.39,2.39,0,0,1-.8-.9l-9.41-23.29a5.1,5.1,0,0,0-1.06-1.67,7,7,0,0,0-2.35-1.36c-.29-.08-.43-.34-.43-.77s.14-.65.43-.65c.62,0,1.47,0,2.54.09s1.94.09,2.6.09,1.79,0,3-.09,2.12-.09,2.7-.09a.39.39,0,0,1,.4.34,1.24,1.24,0,0,1,0,.71.45.45,0,0,1-.43.37,5.33,5.33,0,0,0-1.92.43q-.81.38-.81.81l.74,2.23q5.7,14.55,7.13,17.77a.47.47,0,0,0,.34.22.33.33,0,0,0,.34-.16c.45-1.11,1-2.57,1.67-4.36s1.22-3.26,1.67-4.37a4.67,4.67,0,0,0,.34-1.18c0-.08-.15-.45-.4-1.11s-.61-1.62-1.09-3a30.7,30.7,0,0,0-1.39-3.5,6.92,6.92,0,0,0-1.73-2.42,6.34,6.34,0,0,0-2.85-1.36c-.25,0-.36-.24-.34-.71s.13-.71.34-.71q.67,0,2.07.09c.93.06,1.71.09,2.33.09s1.52,0,2.6-.09,1.77-.09,2.1-.09.42.21.4.65-.15.69-.4.77a1.14,1.14,0,0,0-1.05,1.24,24.43,24.43,0,0,0,1.55,4.7l.12.25.25.5s.08-.13.12-.37.17-.48.25-.69a20.12,20.12,0,0,0,1.49-4.39,1.34,1.34,0,0,0-.31-.78,1.2,1.2,0,0,0-.81-.46c-.12,0-.21-.18-.28-.4a1.31,1.31,0,0,1,0-.68c.07-.23.16-.34.28-.34.46,0,1,0,1.61.09s1.14.09,1.55.09c.58,0,1.31,0,2.2-.09s1.54-.09,1.95-.09.42.2.4.62-.15.66-.4.74a4.25,4.25,0,0,1-.56.12l-.49.09-.44.1-.4.09a2.14,2.14,0,0,0-.34.16,2.18,2.18,0,0,0-.37.21c-.09.06-.2.14-.34.22a.85.85,0,0,0-.34.31l-.31.43-.37.5a36.29,36.29,0,0,0-2.67,5.76,2.61,2.61,0,0,0-.12,1.92Q397.76,69,401,76a.21.21,0,0,0,.16.06.31.31,0,0,0,.21-.13c.08-.08.13-.14.13-.18q3.34-10.28,5.38-17.53a9.37,9.37,0,0,0,.25-2.41c0-.25-.23-.5-.68-.74a4.42,4.42,0,0,0-1.55-.5c-.29,0-.43-.29-.43-.74s.14-.68.43-.68c.58,0,1.36,0,2.36.09s1.79.09,2.41.09,1.24,0,2.11-.09,1.61-.09,2.22-.09c.09,0,.17.11.25.34a1.22,1.22,0,0,1,.06.71c0,.25-.14.37-.31.37a10.48,10.48,0,0,0-2.6.87A5.9,5.9,0,0,0,409.52,58.45Z"/><path class="cls-2" d="M442.16,56.41V75.85q0,2.48,4,3.47c.21,0,.31.34.31.9s-.1.83-.31.83-1-.06-2.48-.18-2.7-.19-3.65-.19-2.19.06-3.72.19-2.43.18-2.72.18-.25-.23-.25-.71.08-.73.25-.77a5,5,0,0,0,2.79-1.43,3.55,3.55,0,0,0,1.17-2.54V59.19c0-1.73-.18-2.78-.55-3.15a4.28,4.28,0,0,0-1-.84,11.57,11.57,0,0,0-1.64-.59c-.13,0-.23-.19-.31-.46a2,2,0,0,1-.1-.78c0-.24.14-.37.34-.37.58,0,1.34,0,2.29.06s1.74.07,2.36.07,1.62-.06,3.12-.16,2.45-.15,2.82-.15a18.92,18.92,0,0,1,8.95,2,6.36,6.36,0,0,1,3.75,5.94,8.1,8.1,0,0,1-3,6.81,10.06,10.06,0,0,1-4.73,1.77,15.84,15.84,0,0,1-4.87.15c-.74-.12-1-.37-.68-.74a.56.56,0,0,1,.56-.25,5.7,5.7,0,0,0,4.46-1,8.76,8.76,0,0,0,2.48-2.69,10,10,0,0,0,.74-4.43,4.86,4.86,0,0,0-1.3-3.56A6.17,6.17,0,0,0,448.35,55a14.2,14.2,0,0,0-3.47-.4C443.06,54.61,442.16,55.21,442.16,56.41Z"/><path class="cls-2" d="M463,81.05c-.25,0-.36-.22-.34-.68s.14-.72.34-.8a10.44,10.44,0,0,0,3.53-1.8,7.91,7.91,0,0,0,1.92-2.6q2.73-5.7,7.18-16.6A8.68,8.68,0,0,0,476,57c0-.2.08-.47.12-.8a7.68,7.68,0,0,1,.13-.81l.06-.37a4.8,4.8,0,0,0,1.42-.8,7.87,7.87,0,0,0,1.36-1.12c.5-.57.79-.86.87-.86s.31.18.43.55q1.24,3.34,3.69,10.28t4.06,11.21a9.44,9.44,0,0,0,2.16,3.53,5.51,5.51,0,0,0,2.79,1.8c.25.08.39.35.43.8s-.1.68-.43.68q-1.11,0-2.94-.15c-1.22-.1-2.22-.16-3-.16s-2,.06-3.4.16-2.38.15-3,.15c-.16,0-.26-.12-.31-.37a1.45,1.45,0,0,1,.07-.74c.08-.25.18-.37.31-.37a3.64,3.64,0,0,0,2.47-1.68,3.56,3.56,0,0,0,.13-2.53,20.46,20.46,0,0,0-.87-2.67c-.08-.29-.47-.43-1.18-.43h-8.79c-.29,0-.54.25-.74.74a24.25,24.25,0,0,0-1,2.67,3.33,3.33,0,0,0,.06,2,4,4,0,0,0,2.6,1.86c.29,0,.43.3.43.77s-.14.71-.43.71c-.83,0-1.86,0-3.1-.15s-2.25-.16-3-.16a21.62,21.62,0,0,0-2.23.16A20.9,20.9,0,0,1,463,81.05Zm14.43-21q-1.31,3.22-4.4,10c-.12.25-.12.41,0,.49a1.61,1.61,0,0,0,.81.13H481a1.3,1.3,0,0,0,.56-.06s0-.23-.06-.56q-.37-1.36-3.41-10a2.5,2.5,0,0,0-.28-.62q-.09-.12-.18,0A3,3,0,0,0,477.39,60Z"/><path class="cls-2" d="M506,69.16q.06,1.43.12,3.69t.06,3q.07,2.48,4,3.47c.21.08.31.4.31,1s-.1.83-.31.83-1-.06-2.42-.18-2.62-.19-3.52-.19-2.39.07-4.06.19-2.63.18-2.88.18-.31-.24-.31-.74.1-.76.31-.8a5.77,5.77,0,0,0,2.79-1.43,3.35,3.35,0,0,0,1.23-2.54V59.07c0-1.65-.18-2.68-.55-3.1a4.63,4.63,0,0,0-1-.89,8.3,8.3,0,0,0-1.65-.53c-.12,0-.22-.19-.31-.43a1.93,1.93,0,0,1-.09-.75c0-.24.14-.37.34-.37q.87,0,2.67.09c1.19.07,2.18.1,3,.1A20.77,20.77,0,0,0,506,53a26,26,0,0,1,2.94-.18,14,14,0,0,1,7.8,2,6.08,6.08,0,0,1,3,5.35,7.19,7.19,0,0,1-.77,3,7.4,7.4,0,0,1-1.39,2.22,8.57,8.57,0,0,1-2.48,1.8c-.17,0-.17.17,0,.37.49.74,1.21,1.91,2.14,3.5a44.06,44.06,0,0,0,2.6,4,26.21,26.21,0,0,0,2.94,3.31,4.46,4.46,0,0,0,1.21.9,4.33,4.33,0,0,0,.92.34,6.8,6.8,0,0,0,1.21,0l1.3,0c.13,0,.21.08.25.24a.93.93,0,0,1-.06.56,1,1,0,0,1-.31.44,5.34,5.34,0,0,1-3,.92q-4.89,0-6.87-2.35c-.49-.62-1-1.22-1.36-1.79s-.74-1.09-1-1.52-.69-1.19-1.33-2.26-1.23-2-1.77-2.91A4.65,4.65,0,0,0,510,69.23a8.39,8.39,0,0,0-3.4-.93.42.42,0,0,0-.47.18A1.34,1.34,0,0,0,506,69.16Zm0-4.27a1.68,1.68,0,0,0,.31,1.15,1,1,0,0,0,.59.37q.27,0,1.14,0a7.92,7.92,0,0,0,4.52-1.24q1.92-1.17,1.92-5,0-5.57-5.57-5.57A2.17,2.17,0,0,0,506.18,57Q505.94,62.66,506,64.89Z"/><path class="cls-2" d="M554.73,55.73c-3.05,0-5.08,0-6.07.12-.45,0-.68.66-.68,1.86V75.85a2.81,2.81,0,0,0,.81,2.17A6.42,6.42,0,0,0,552,79.5a.61.61,0,0,1,.43.47,1.17,1.17,0,0,1,0,.74.44.44,0,0,1-.43.34c-.79,0-1.85-.07-3.19-.21a30.77,30.77,0,0,0-3.31-.22,27.94,27.94,0,0,0-3.16.22,29.5,29.5,0,0,1-3,.21c-.16,0-.29-.11-.37-.34a1.31,1.31,0,0,1,0-.74.55.55,0,0,1,.4-.47A6.42,6.42,0,0,0,542.53,78a2.81,2.81,0,0,0,.81-2.17V57.71q0-1.74-.75-1.86c-.49-.08-2-.12-4.58-.12a3.32,3.32,0,0,0-3.09,1.73,5.88,5.88,0,0,1-.9,1.08,1.77,1.77,0,0,1-1.09.65c-.57,0-.61-.53-.12-1.61a6.8,6.8,0,0,0,.56-1.61,21.75,21.75,0,0,0,.31-2.29c.08-1,.14-1.52.18-1.73.09-.62.35-.93.81-.93.29,0,.68.43,1.18,1.3.28.58,1.19.87,2.72.87h16.78c1.65,0,2.7-.27,3.16-.81a2.15,2.15,0,0,1,1.49-.74c.12,0,.24.08.37.25a.45.45,0,0,1,.06.49,23.13,23.13,0,0,0-1,5.82c0,.21-.09.4-.13.56a1,1,0,0,1-.21.43.5.5,0,0,1-.41.19c-.37,0-.7-.52-1-1.42a3,3,0,0,0-.06-.38c0-.2-.07-.35-.09-.43a2.25,2.25,0,0,0-.16-.37,1.26,1.26,0,0,0-.21-.34l-.31-.28a1.18,1.18,0,0,0-.5-.25l-.68-.12A6.17,6.17,0,0,0,554.73,55.73Z"/><path class="cls-2" d="M567.05,81.05c-.24,0-.36-.23-.34-.71s.14-.73.34-.77a4.42,4.42,0,0,0,2.48-1,4.34,4.34,0,0,0,.93-2.73q.43-7.86.43-17.34a4.07,4.07,0,0,0-.37-2.23,5.57,5.57,0,0,0-4-1.73c-.29,0-.43-.25-.43-.74s.14-.75.43-.75,1.72.06,4.55,0l4.37,0a.54.54,0,0,1,.37.13,3,3,0,0,1,.31.4,1.92,1.92,0,0,0,.31.4q2,2.35,7.4,9t9.32,11.06a2.6,2.6,0,0,1,.21.27,2.2,2.2,0,0,0,.28.34.73.73,0,0,0,.28.19c.1,0,.19,0,.25-.12a1.77,1.77,0,0,0,.09-.68q.18-5.52-.19-16.6a1.58,1.58,0,0,0-.37-1,3,3,0,0,0-1-.78,9.73,9.73,0,0,0-1.08-.49c-.33-.12-.7-.25-1.12-.37s-.66-.21-.74-.25-.19-.28-.22-.71.06-.65.22-.65q1.11,0,2.76.12c1.09.08,2,.13,2.69.13s1.53,0,2.6-.13,1.92-.12,2.54-.12c.12,0,.21.22.25.68s0,.68-.25.68a4.47,4.47,0,0,0-2.17,1,2.25,2.25,0,0,0-1.17,1.67c-.13,2.11-.22,4.18-.28,6.23s-.09,3.71-.09,5,0,3.18,0,5.64,0,4.45,0,6a1.66,1.66,0,0,1-.47,1.18,1.43,1.43,0,0,1-1.08.49,4.19,4.19,0,0,1-3.1-1.67q-7.61-9.41-16.59-19.57a2.51,2.51,0,0,0-.93-.74c-.25-.08-.4-.07-.47,0a1.72,1.72,0,0,0-.15.53q-.37,11.76-.25,16a3.15,3.15,0,0,0,2.85,3.22c.25,0,.36.3.34.77s-.2.71-.53.71c-.74,0-1.57,0-2.47-.12s-1.65-.12-2.23-.12-1.34,0-2.29.12S567.67,81.05,567.05,81.05Z"/><path class="cls-2" d="M619.13,67.49a17.67,17.67,0,0,0-5.32-.06c-.71.08-1.06.43-1.06,1q0,2,.13,6.81c.08,2.11,1,3.16,2.66,3.16H621a8.93,8.93,0,0,0,1.45-.25,5.07,5.07,0,0,0,1.52-.49,7.92,7.92,0,0,0,2-2.85c.13-.29.44-.43.93-.43s.56.16.56.49a32.26,32.26,0,0,1-1,5.33c-.09.49-.27.74-.56.74q-3.17,0-8.14-.15t-6.91-.16l-6.62.37c-.09,0-.16-.12-.22-.37a1.85,1.85,0,0,1,0-.74c0-.25.12-.37.25-.37a7,7,0,0,0,2.78-1.3A3.06,3.06,0,0,0,608.11,76V58.76c0-1.69-.19-2.72-.56-3.1a3.09,3.09,0,0,1-.31-.34.92.92,0,0,0-.28-.24l-.24-.16a2.47,2.47,0,0,0-.34-.15,2.44,2.44,0,0,0-.38-.13l-.49-.15-.62-.19c-.21,0-.32-.27-.34-.68s.09-.62.34-.62c.58,0,1.39,0,2.44.06s1.91.07,2.57.07c1.62,0,3.58,0,5.89-.07l5.85-.09,2.82,0c.45,0,.7.12.74.37a31.86,31.86,0,0,1,.68,5.7c0,.25-.23.37-.68.37-.21,0-.37-.14-.5-.43a6.2,6.2,0,0,0-1.23-2.36,3.21,3.21,0,0,0-2.6-1.11H614.3a.9.9,0,0,0-.68.34,1.42,1.42,0,0,0-.37.77,23.5,23.5,0,0,0-.37,3.29c-.09,2.72-.13,4.19-.13,4.39,0,.62.15.93.44.93h5.38a2.66,2.66,0,0,0,1.86-.62,2.87,2.87,0,0,0,.74-1.11c.38-.54.66-.81.87-.81a.56.56,0,0,1,.4.22.46.46,0,0,1,.16.46,53.88,53.88,0,0,0,0,6.26c.08.49,0,.74-.37.74s-.75-.39-1.12-1.18A2.3,2.3,0,0,0,619.13,67.49Z"/><path class="cls-2" d="M640.25,69.16q.06,1.43.12,3.69t.06,3q.06,2.48,4,3.47c.2.08.31.4.31,1s-.11.83-.31.83-1-.06-2.42-.18-2.62-.19-3.53-.19-2.38.07-4,.19-2.64.18-2.88.18-.31-.24-.31-.74.1-.76.31-.8a5.78,5.78,0,0,0,2.78-1.43,3.33,3.33,0,0,0,1.24-2.54V59.07c0-1.65-.18-2.68-.56-3.1a4.22,4.22,0,0,0-1-.89,8.13,8.13,0,0,0-1.64-.53c-.12,0-.23-.19-.31-.43a1.93,1.93,0,0,1-.09-.75c0-.24.13-.37.34-.37.58,0,1.47,0,2.66.09s2.19.1,3,.1a21,21,0,0,0,2.26-.19,26,26,0,0,1,2.94-.18,14,14,0,0,1,7.8,2,6.08,6.08,0,0,1,3,5.35,7.35,7.35,0,0,1-.77,3,7.19,7.19,0,0,1-1.4,2.22,8.41,8.41,0,0,1-2.47,1.8c-.17,0-.17.17,0,.37.49.74,1.2,1.91,2.13,3.5s1.8,2.93,2.6,4a27.15,27.15,0,0,0,3,3.31,4.58,4.58,0,0,0,1.2.9,4.19,4.19,0,0,0,.93.34,6.8,6.8,0,0,0,1.21,0l1.3,0c.12,0,.21.08.25.24a.93.93,0,0,1-.06.56,1,1,0,0,1-.31.44,5.34,5.34,0,0,1-3,.92q-4.89,0-6.87-2.35c-.5-.62-1-1.22-1.36-1.79a15.78,15.78,0,0,1-1-1.52c-.25-.44-.7-1.19-1.34-2.26s-1.22-2-1.76-2.91a4.78,4.78,0,0,0-1.86-1.67,8.43,8.43,0,0,0-3.4-.93.42.42,0,0,0-.47.18A1.34,1.34,0,0,0,640.25,69.16Zm0-4.27a1.68,1.68,0,0,0,.31,1.15,1,1,0,0,0,.58.37c.19,0,.57,0,1.15,0a7.94,7.94,0,0,0,4.52-1.24q1.92-1.17,1.92-5,0-5.57-5.57-5.57a2.88,2.88,0,0,0-2.14.59,2.8,2.8,0,0,0-.59,1.76C640.27,60.76,640.2,63.4,640.25,64.89Z"/><path class="cls-2" d="M676.1,79.38q4.83,0,4.83-4.64a3.47,3.47,0,0,0-.09-.81l-.19-.68a2.1,2.1,0,0,0-.37-.68l-.47-.62a4.85,4.85,0,0,0-.61-.62l-.65-.56c-.15-.12-.42-.32-.81-.58l-.87-.59c-.18-.13-.52-.34-1-.65s-.84-.53-1.05-.65q-5.88-3.72-5.88-8.49c0-1.61.84-3.23,2.54-4.86a9.48,9.48,0,0,1,6.87-2.44,14.14,14.14,0,0,1,2.48.21,17,17,0,0,1,2,.5l1.11.34q.69.06.81.93a27.09,27.09,0,0,1,.68,4.58,1.82,1.82,0,0,1-.15.68c-.11.25-.22.37-.35.37a2.14,2.14,0,0,1-.83-.31,1,1,0,0,1-.65-.74,5.44,5.44,0,0,0-5.7-4.4q-4.28,0-4.27,3.66a3.31,3.31,0,0,0,.18,1.08,4,4,0,0,0,.62,1.08,11,11,0,0,0,.75.9,7,7,0,0,0,1.05.9l1,.77c.19.15.58.41,1.18.78l1,.62q6.81,4.4,6.81,9A7.76,7.76,0,0,1,683.59,79c-1.69,1.69-4.13,2.54-7.3,2.54a17.64,17.64,0,0,1-2.73-.19,20.52,20.52,0,0,1-2.45-.52c-.8-.23-1.31-.36-1.51-.41a2.12,2.12,0,0,1-.44-.12.37.37,0,0,1-.18-.19l-.06-.18a17.59,17.59,0,0,1-.87-2.79,17.71,17.71,0,0,1-.56-3.09c0-.17.15-.32.44-.47a1.82,1.82,0,0,1,.8-.22c.08,0,.31.31.68.93s.82,1.31,1.33,2.08A7.6,7.6,0,0,0,673,78.45,5.72,5.72,0,0,0,676.1,79.38Z"/><path class="cls-2" d="M700.12,64.83c0,.25.21.37.62.37q9,.18,15.11,0c.21,0,.31-.16.31-.49V57.52a2.26,2.26,0,0,0-1-1.73,10.79,10.79,0,0,0-2.72-1.49c-.21-.08-.31-.34-.31-.77s.1-.65.31-.65q1.37,0,3.09.06t2.85.06c.79,0,1.8,0,3-.06s2.29-.06,3.15-.06c.25,0,.37.21.35.65s-.14.69-.35.77a10.69,10.69,0,0,0-2.91,1.55,2.19,2.19,0,0,0-.86,1.67V75.79a3,3,0,0,0,.86,2.29A6.66,6.66,0,0,0,725,79.57c.33.08.49.35.49.8s-.16.68-.49.68c-.83,0-1.92,0-3.28-.15s-2.48-.16-3.35-.16-1.9.06-3.22.16-2.37.15-3.16.15c-.16,0-.3-.11-.4-.34a1.07,1.07,0,0,1-.06-.71.53.53,0,0,1,.46-.43,6.65,6.65,0,0,0,3.35-1.49,3,3,0,0,0,.8-2.29v-8c0-.2-.08-.31-.24-.31q-9.36-.18-15.61,0c-.12,0-.19.15-.19.44v7.86a3,3,0,0,0,.87,2.29,6.61,6.61,0,0,0,3.28,1.49c.38.08.56.35.56.8s-.18.68-.56.68q-1.23,0-3.15-.15c-1.28-.1-2.34-.16-3.16-.16s-2.06.06-3.44.16-2.44.15-3.19.15c-.16,0-.3-.11-.4-.34a1.07,1.07,0,0,1-.06-.71.52.52,0,0,1,.46-.43,6.69,6.69,0,0,0,3.35-1.49,3,3,0,0,0,.8-2.29V57.52a2.26,2.26,0,0,0-1-1.73,11.18,11.18,0,0,0-2.72-1.49c-.13,0-.22-.18-.28-.43a1.12,1.12,0,0,1,0-.68c.06-.21.15-.31.28-.31.9,0,2,0,3.18.06s2.22.06,3,.06,1.69,0,2.85-.06,2.16-.06,3-.06c.25,0,.37.21.37.65s-.12.69-.37.77A10.74,10.74,0,0,0,701,55.85a1.94,1.94,0,0,0-.87,1.67Z"/><path class="cls-2" d="M741.24,57.52V75.79a3,3,0,0,0,.87,2.29,6.57,6.57,0,0,0,3.28,1.49.71.71,0,0,1,.56.8c0,.46-.19.68-.56.68-.83,0-1.88,0-3.16-.15s-2.33-.16-3.16-.16-2.05.06-3.43.16-2.45.15-3.19.15c-.17,0-.3-.11-.4-.34A1,1,0,0,1,732,80a.54.54,0,0,1,.47-.43,6.65,6.65,0,0,0,3.34-1.49,3,3,0,0,0,.81-2.29V57.52a2.26,2.26,0,0,0-1-1.73,11.09,11.09,0,0,0-2.73-1.49c-.12,0-.21-.18-.28-.43a1.3,1.3,0,0,1,0-.68c.07-.21.16-.31.28-.31.91,0,2,0,3.19.06s2.22.06,3,.06,1.7,0,2.85-.06,2.17-.06,3-.06c.24,0,.37.21.37.65s-.13.69-.37.77a10.41,10.41,0,0,0-2.85,1.55A1.94,1.94,0,0,0,741.24,57.52Z"/><path class="cls-2" d="M761.43,56.41V75.85q0,2.48,4,3.47c.21,0,.31.34.31.9s-.1.83-.31.83-1-.06-2.48-.18-2.7-.19-3.65-.19-2.19.06-3.72.19-2.43.18-2.72.18-.25-.23-.25-.71.08-.73.25-.77a5,5,0,0,0,2.79-1.43,3.55,3.55,0,0,0,1.17-2.54V59.19c0-1.73-.18-2.78-.55-3.15a4.28,4.28,0,0,0-1-.84,11.57,11.57,0,0,0-1.64-.59c-.13,0-.23-.19-.31-.46a2,2,0,0,1-.1-.78c0-.24.14-.37.34-.37.58,0,1.34,0,2.29.06s1.74.07,2.36.07,1.62-.06,3.12-.16,2.45-.15,2.82-.15a18.92,18.92,0,0,1,9,2,6.36,6.36,0,0,1,3.75,5.94,8.1,8.1,0,0,1-3,6.81,10.06,10.06,0,0,1-4.73,1.77,15.84,15.84,0,0,1-4.87.15c-.74-.12-1-.37-.68-.74a.56.56,0,0,1,.56-.25,5.7,5.7,0,0,0,4.46-1A8.76,8.76,0,0,0,771,64.74a10,10,0,0,0,.74-4.43,4.86,4.86,0,0,0-1.3-3.56A6.17,6.17,0,0,0,767.62,55a14.2,14.2,0,0,0-3.47-.4C762.33,54.61,761.43,55.21,761.43,56.41Z"/><path class="cls-1" d="M167.71,104.58l-1-.07c-.61-.06-1.06-.08-1.35-.08s-.72,0-1.31.06-1,.07-1.11.07-.13-.1-.13-.3,0-.31.13-.33a6,6,0,0,0,.7-.1,1.07,1.07,0,0,0,.47-.29,1.35,1.35,0,0,0,.52-1.09v-7.1a1.55,1.55,0,0,0-1.35-1.89.27.27,0,0,1-.13-.19.65.65,0,0,1,0-.31c0-.1.06-.15.14-.15.25,0,.6,0,1.06,0l1.13,0c.21,0,.55,0,1-.07s.92-.06,1.3-.06q4.22,0,4.21,2.7a2.5,2.5,0,0,1-.57,1.82,5.13,5.13,0,0,1-1.48.78.13.13,0,0,0-.07.09s0,.08.07.09c.38.12.67.23.88.32a4.12,4.12,0,0,1,.78.44,1.89,1.89,0,0,1,.69.84,3.26,3.26,0,0,1,.22,1.26,3.3,3.3,0,0,1-1.82,3.07A6.29,6.29,0,0,1,167.71,104.58Zm-1.17-7.38a.9.9,0,0,0,.14.52.76.76,0,0,0,.41.13,3.61,3.61,0,0,0,2.18-.49,1.81,1.81,0,0,0,.76-1.69,2.41,2.41,0,0,0-.46-1.54,2.27,2.27,0,0,0-1.83-.57,1.73,1.73,0,0,0-1,.18.75.75,0,0,0-.27.63C166.5,95.28,166.51,96.23,166.54,97.2Zm3.77,4a2.21,2.21,0,0,0-.88-2.08,3.72,3.72,0,0,0-1.87-.44,1.27,1.27,0,0,0-.81.21.47.47,0,0,0-.21.44q0,1.14,0,3.15a1.51,1.51,0,0,0,.31.93,1.43,1.43,0,0,0,1.12.37,2.2,2.2,0,0,0,1.69-.71A2.64,2.64,0,0,0,170.31,101.15Z"/><path class="cls-1" d="M175.46,104.58c-.1,0-.15-.09-.14-.28s.05-.31.14-.34a4.53,4.53,0,0,0,1.48-.75,3.41,3.41,0,0,0,.81-1.1c.76-1.59,1.77-3.91,3-7a4.44,4.44,0,0,0,.19-.68c0-.09,0-.2.05-.34s0-.25.05-.34l0-.15a2.05,2.05,0,0,0,.59-.34,3.24,3.24,0,0,0,.58-.47c.2-.24.33-.36.36-.36s.13.08.18.23c.35.94.86,2.38,1.55,4.32s1.25,3.51,1.7,4.7a4.11,4.11,0,0,0,.91,1.49,2.33,2.33,0,0,0,1.17.75c.11,0,.17.15.18.34s0,.28-.18.28q-.47,0-1.23-.06c-.51,0-.93-.07-1.26-.07s-.86,0-1.43.07-1,.06-1.28.06c-.07,0-.11,0-.13-.15a.54.54,0,0,1,0-.31c0-.11.08-.16.13-.16a1.29,1.29,0,0,0,1.09-1.77,11,11,0,0,0-.36-1.12c0-.12-.2-.18-.5-.18h-3.69c-.12,0-.23.11-.31.31a11.3,11.3,0,0,0-.42,1.12,1.39,1.39,0,0,0,0,.86,1.64,1.64,0,0,0,1.09.78c.12,0,.18.13.18.32s-.06.3-.18.3c-.35,0-.78,0-1.3-.06s-1-.07-1.27-.07-.56,0-.94.07S175.68,104.58,175.46,104.58Zm6.06-8.84c-.37.9-1,2.3-1.85,4.19q-.07.15,0,.21a.79.79,0,0,0,.34,0h3a.5.5,0,0,0,.24,0,.64.64,0,0,0,0-.23c-.1-.38-.58-1.78-1.43-4.19a1.08,1.08,0,0,0-.12-.26s-.05,0-.08,0A2.17,2.17,0,0,0,181.52,95.74Z"/><path class="cls-1" d="M193.53,99.59c0,.4,0,.92.05,1.55s0,1,0,1.26c0,.69.58,1.18,1.69,1.46.09,0,.13.16.13.4s0,.35-.13.35l-1-.08c-.6,0-1.1-.08-1.48-.08s-1,0-1.7.08l-1.21.08c-.09,0-.13-.1-.13-.31s0-.32.13-.34a2.41,2.41,0,0,0,1.17-.6,1.39,1.39,0,0,0,.52-1.06v-7a2.33,2.33,0,0,0-.23-1.3,2,2,0,0,0-.43-.37,3.49,3.49,0,0,0-.69-.22.27.27,0,0,1-.13-.19.65.65,0,0,1,0-.31c0-.1.06-.15.14-.15l1.12,0c.5,0,.92,0,1.25,0a9.23,9.23,0,0,0,1-.07,9,9,0,0,1,1.23-.08,5.86,5.86,0,0,1,3.28.82,2.55,2.55,0,0,1,1.25,2.25A3,3,0,0,1,199,97a3.28,3.28,0,0,1-.58.94,3.52,3.52,0,0,1-1,.75c-.07,0-.07.07,0,.16.2.31.5.8.89,1.47a18.56,18.56,0,0,0,1.1,1.69,10.86,10.86,0,0,0,1.23,1.39,1.87,1.87,0,0,0,.51.38,2.1,2.1,0,0,0,.39.14,2.48,2.48,0,0,0,.51,0h.54c.05,0,.09,0,.1.1a.41.41,0,0,1,0,.24.44.44,0,0,1-.13.18,2.22,2.22,0,0,1-1.28.39,3.59,3.59,0,0,1-2.88-1q-.31-.39-.57-.75a5.71,5.71,0,0,1-.42-.64c-.1-.18-.29-.5-.56-.95s-.51-.86-.74-1.22a2,2,0,0,0-.78-.7,3.42,3.42,0,0,0-1.43-.39.16.16,0,0,0-.19.08A.45.45,0,0,0,193.53,99.59Zm0-1.79a.71.71,0,0,0,.13.48.4.4,0,0,0,.25.15l.48,0a3.42,3.42,0,0,0,1.9-.52,2.31,2.31,0,0,0,.8-2.11,2.07,2.07,0,0,0-2.34-2.34.91.91,0,0,0-1.14,1C193.54,96.06,193.51,97.17,193.53,97.8Z"/><path class="cls-1" d="M208.27,99.59c0,.4,0,.92.06,1.55s0,1,0,1.26c0,.69.58,1.18,1.69,1.46.09,0,.13.16.13.4s0,.35-.13.35l-1-.08c-.61,0-1.1-.08-1.49-.08s-1,0-1.7.08l-1.21.08c-.08,0-.13-.1-.13-.31s.05-.32.13-.34a2.32,2.32,0,0,0,1.17-.6,1.39,1.39,0,0,0,.52-1.06v-7a2.24,2.24,0,0,0-.23-1.3,1.76,1.76,0,0,0-.43-.37,3.07,3.07,0,0,0-.69-.22c-.05,0-.09-.08-.13-.19a.8.8,0,0,1,0-.31c0-.1.06-.15.14-.15l1.12,0c.51,0,.92,0,1.25,0a9.23,9.23,0,0,0,.95-.07,9.09,9.09,0,0,1,1.24-.08,5.83,5.83,0,0,1,3.27.82A2.55,2.55,0,0,1,214,95.8a3,3,0,0,1-.33,1.24,3.07,3.07,0,0,1-.58.94,3.39,3.39,0,0,1-1,.75c-.07,0-.07.07,0,.16q.31.47.9,1.47a18.68,18.68,0,0,0,1.09,1.69,11.69,11.69,0,0,0,1.23,1.39,2.24,2.24,0,0,0,.51.38,2.39,2.39,0,0,0,.39.14,2.51,2.51,0,0,0,.51,0h.54c.06,0,.09,0,.11.1a.42.42,0,0,1,0,.24.37.37,0,0,1-.13.18,2.19,2.19,0,0,1-1.27.39,3.62,3.62,0,0,1-2.89-1q-.32-.39-.57-.75c-.17-.24-.31-.46-.42-.64s-.29-.5-.56-.95-.51-.86-.74-1.22a1.87,1.87,0,0,0-.78-.7,3.42,3.42,0,0,0-1.43-.39.16.16,0,0,0-.19.08A.45.45,0,0,0,208.27,99.59Zm0-1.79a.76.76,0,0,0,.13.48.4.4,0,0,0,.25.15,4.34,4.34,0,0,0,.48,0,3.39,3.39,0,0,0,1.9-.52c.54-.33.81-1,.81-2.11a2.07,2.07,0,0,0-2.34-2.34,1.18,1.18,0,0,0-.9.25,1.16,1.16,0,0,0-.25.74C208.28,96.06,208.26,97.17,208.27,97.8Z"/><path class="cls-1" d="M224.21,94.7v7.67a1.24,1.24,0,0,0,.37,1A2.68,2.68,0,0,0,226,104c.16,0,.24.15.24.34s-.08.28-.24.28q-.51,0-1.32-.06c-.54,0-1-.07-1.33-.07s-.86,0-1.44.07-1,.06-1.34.06c-.07,0-.13,0-.17-.14a.5.5,0,0,1,0-.3.25.25,0,0,1,.2-.18,2.8,2.8,0,0,0,1.4-.62,1.24,1.24,0,0,0,.34-1V94.7a.94.94,0,0,0-.41-.72,4.57,4.57,0,0,0-1.15-.63s-.09-.08-.12-.18a.71.71,0,0,1,0-.29c0-.08.07-.13.12-.13l1.34,0,1.26,0,1.2,0,1.27,0c.11,0,.16.09.16.28s-.05.29-.16.32a4.14,4.14,0,0,0-1.19.65A.81.81,0,0,0,224.21,94.7Z"/><path class="cls-1" d="M232.17,103.88c1.35,0,2-.65,2-1.95a1.86,1.86,0,0,0,0-.34c0-.1-.06-.2-.08-.28a1.07,1.07,0,0,0-.16-.29l-.19-.26a2.08,2.08,0,0,0-.26-.26l-.28-.23c-.06,0-.17-.14-.33-.25l-.37-.25-.43-.27-.44-.27q-2.48-1.56-2.47-3.56a2.94,2.94,0,0,1,1.07-2,4,4,0,0,1,2.88-1,5.75,5.75,0,0,1,1,.09,6.38,6.38,0,0,1,.86.21l.47.14c.19,0,.3.15.34.39a11.14,11.14,0,0,1,.28,1.92.79.79,0,0,1-.06.29c0,.1-.09.16-.14.16a1.12,1.12,0,0,1-.36-.13.46.46,0,0,1-.27-.32,2.27,2.27,0,0,0-2.39-1.84c-1.2,0-1.79.51-1.79,1.53a1.43,1.43,0,0,0,.07.46,1.92,1.92,0,0,0,.26.45c.12.16.23.28.32.38a3.41,3.41,0,0,0,.44.38l.43.32c.07.06.24.17.49.33l.43.26c1.91,1.23,2.86,2.48,2.86,3.77a3.26,3.26,0,0,1-1.07,2.34,4.14,4.14,0,0,1-3.06,1.06,6.84,6.84,0,0,1-1.15-.08,7.26,7.26,0,0,1-1-.22l-.63-.17a.44.44,0,0,1-.18,0s-.07,0-.08-.08l0-.07a8.61,8.61,0,0,1-.36-1.17,7.85,7.85,0,0,1-.24-1.3c0-.07.06-.14.19-.2a.75.75,0,0,1,.33-.09s.13.13.29.39.34.55.56.87a3.26,3.26,0,0,0,.93.87A2.42,2.42,0,0,0,232.17,103.88Z"/><path class="cls-1" d="M247.79,94c-1.28,0-2.13,0-2.54,0-.19,0-.29.28-.29.78v7.62a1.16,1.16,0,0,0,.34.91,2.69,2.69,0,0,0,1.35.62.25.25,0,0,1,.18.2.41.41,0,0,1,0,.31.17.17,0,0,1-.18.14,13.3,13.3,0,0,1-1.34-.09,13.62,13.62,0,0,0-1.39-.09,12.45,12.45,0,0,0-1.33.09,12,12,0,0,1-1.27.09c-.07,0-.12,0-.16-.14a.54.54,0,0,1,0-.31c0-.11.08-.18.17-.2a2.69,2.69,0,0,0,1.35-.62,1.16,1.16,0,0,0,.34-.91V94.78c0-.48-.1-.74-.31-.78s-.85,0-1.93,0a1.39,1.39,0,0,0-1.3.73,2.37,2.37,0,0,1-.37.45.81.81,0,0,1-.46.28c-.24,0-.26-.23,0-.68a2.86,2.86,0,0,0,.23-.68,6,6,0,0,0,.13-1c0-.4.06-.64.08-.73,0-.26.15-.39.34-.39s.29.19.49.55.51.36,1.15.36h7c.7,0,1.14-.11,1.33-.33a.92.92,0,0,1,.62-.32.21.21,0,0,1,.16.11.2.2,0,0,1,0,.21,9.26,9.26,0,0,0-.45,2.44,1.32,1.32,0,0,1-.05.23.66.66,0,0,1-.09.19.21.21,0,0,1-.17.07c-.15,0-.29-.21-.41-.59a1.16,1.16,0,0,0,0-.16c0-.09,0-.15,0-.18a1.16,1.16,0,0,0-.06-.16.85.85,0,0,0-.09-.14l-.13-.12a.45.45,0,0,0-.21-.1l-.29,0A2.17,2.17,0,0,0,247.79,94Z"/><path class="cls-1" d="M257.91,98.89a7.7,7.7,0,0,0-2.24,0c-.29,0-.44.19-.44.45,0,.55,0,1.5.05,2.86,0,.88.41,1.32,1.12,1.32h2.29a3.67,3.67,0,0,0,.61-.1,2.21,2.21,0,0,0,.64-.21,3.28,3.28,0,0,0,.83-1.2q.08-.18.39-.18c.15,0,.23.07.23.21a12.79,12.79,0,0,1-.44,2.24c0,.2-.11.31-.23.31-.89,0-2,0-3.42-.07s-2.36-.06-2.9-.06l-2.78.15s-.07,0-.09-.15a.83.83,0,0,1,0-.31c0-.11.05-.16.11-.16a3,3,0,0,0,1.17-.55,1.26,1.26,0,0,0,.49-1V95.22a2.24,2.24,0,0,0-.23-1.3.79.79,0,0,1-.13-.14.53.53,0,0,0-.12-.1l-.1-.07-.15-.06-.15-.06a1.22,1.22,0,0,1-.21-.06l-.26-.08c-.09,0-.14-.11-.14-.28s0-.26.14-.26.58,0,1,0l1.07,0,2.47,0,2.46,0h1.19c.19,0,.29,0,.31.16a13.08,13.08,0,0,1,.28,2.39c0,.1-.09.15-.28.15s-.16-.06-.21-.18a2.62,2.62,0,0,0-.52-1,1.35,1.35,0,0,0-1.09-.46h-2.76a.38.38,0,0,0-.29.14.63.63,0,0,0-.15.32,10.27,10.27,0,0,0-.16,1.38c0,1.15-.05,1.76-.05,1.85q0,.39.18.39h2.26a1.17,1.17,0,0,0,.79-.26,1.41,1.41,0,0,0,.31-.47c.15-.23.27-.34.36-.34a.26.26,0,0,1,.17.09.2.2,0,0,1,.06.2,22.66,22.66,0,0,0,0,2.62c0,.21,0,.32-.15.32s-.31-.17-.47-.5A1,1,0,0,0,257.91,98.89Z"/><path class="cls-1" d="M266.77,99.59c0,.4,0,.92.06,1.55s0,1,0,1.26c0,.69.58,1.18,1.69,1.46.09,0,.13.16.13.4s0,.35-.13.35l-1-.08c-.61,0-1.1-.08-1.48-.08s-1,0-1.71.08l-1.21.08c-.08,0-.13-.1-.13-.31s.05-.32.13-.34a2.32,2.32,0,0,0,1.17-.6,1.39,1.39,0,0,0,.52-1.06v-7a2.24,2.24,0,0,0-.23-1.3,1.76,1.76,0,0,0-.43-.37,3.07,3.07,0,0,0-.69-.22c-.05,0-.09-.08-.13-.19a.8.8,0,0,1,0-.31q0-.15.15-.15l1.11,0c.51,0,.92,0,1.25,0a9.23,9.23,0,0,0,.95-.07,9.19,9.19,0,0,1,1.24-.08,5.83,5.83,0,0,1,3.27.82,2.55,2.55,0,0,1,1.25,2.25A3.08,3.08,0,0,1,272.2,97a3.25,3.25,0,0,1-.59.94,3.39,3.39,0,0,1-1,.75c-.07,0-.07.07,0,.16q.31.47.9,1.47a18.68,18.68,0,0,0,1.09,1.69,11.69,11.69,0,0,0,1.23,1.39,2.24,2.24,0,0,0,.51.38,2.78,2.78,0,0,0,.39.14,2.54,2.54,0,0,0,.51,0h.55c.05,0,.08,0,.1.1a.35.35,0,0,1,0,.24.31.31,0,0,1-.13.18,2.19,2.19,0,0,1-1.27.39,3.62,3.62,0,0,1-2.89-1q-.31-.39-.57-.75c-.17-.24-.31-.46-.42-.64l-.55-.95c-.27-.45-.52-.86-.75-1.22a1.87,1.87,0,0,0-.78-.7,3.42,3.42,0,0,0-1.43-.39.16.16,0,0,0-.19.08A.52.52,0,0,0,266.77,99.59Zm0-1.79a.76.76,0,0,0,.13.48.4.4,0,0,0,.25.15,4.34,4.34,0,0,0,.48,0,3.39,3.39,0,0,0,1.9-.52c.54-.33.81-1,.81-2.11A2.07,2.07,0,0,0,268,93.48a1.2,1.2,0,0,0-.9.25,1.16,1.16,0,0,0-.25.74C266.78,96.06,266.76,97.17,266.77,97.8Z"/><path class="cls-1" d="M302,94.37a4.55,4.55,0,0,0-2.81,1.48l-1.95,2.08-1.79,1.92-.34.37.44.62c.4.57.67,1,.82,1.14s.39.46.72.8a2.55,2.55,0,0,0,1,.67,3.75,3.75,0,0,0,1.22.17,2,2,0,0,0,1-.3A5.72,5.72,0,0,1,301,103c.18-.07.31-.06.39,0,.23.23.27.39.13.5l-.75.5-.75.5a3.25,3.25,0,0,1-.71.28,3.11,3.11,0,0,1-1,.15,3.25,3.25,0,0,1-2.12-.64,11,11,0,0,1-1.88-2.38l-.34-.55-.16.16-.67.73-.69.75c-.11.12-.32.33-.63.61a3.32,3.32,0,0,1-.72.57l-.72.38a2.56,2.56,0,0,1-.88.3,7.22,7.22,0,0,1-1,.07,5.48,5.48,0,0,1-3.12-1,3,3,0,0,1-1.38-2.51c-.05-2.49,1.4-4.43,4.37-5.8l.52-.23-.39-.42a3.71,3.71,0,0,1-.29-.31,3.81,3.81,0,0,1-.36-.43c-.07-.09-.19-.25-.34-.48a3,3,0,0,1-.56-1.21,3.18,3.18,0,0,1-.09-.74,2.42,2.42,0,0,1,1-2,4.3,4.3,0,0,1,2.44-.82,3.49,3.49,0,0,1,2.3.72,2.38,2.38,0,0,1,1,2,3.52,3.52,0,0,1-.67,2.14,3.88,3.88,0,0,1-1.85,1.37l-.37.13.24.26c.2.24.72.78,1.54,1.62a16.69,16.69,0,0,1,1.84,2.15l.31.47.41-.44A12.19,12.19,0,0,0,298,95.59a.84.84,0,0,0-.1-.69,1.12,1.12,0,0,0-.63-.46.31.31,0,0,1-.21-.33.27.27,0,0,1,.13-.11c.33,0,.75,0,1.26,0s.94.06,1.27.06a9.53,9.53,0,0,0,1.47-.17,10.32,10.32,0,0,1,1.07-.17c.26,0,.33.09.21.28A.62.62,0,0,1,302,94.37ZM289.4,95.82l-.55.21a4.82,4.82,0,0,0-1.43.84A3,3,0,0,0,286.6,98a5.43,5.43,0,0,0-.32,1.17,7.54,7.54,0,0,0-.08,1.23,2.58,2.58,0,0,0,.88,2,3,3,0,0,0,2.11.81,5,5,0,0,0,2.31-.51,7.35,7.35,0,0,0,2-1.6l.24-.23-.31-.5a13.19,13.19,0,0,0-.91-1.21c-.35-.4-.85-.94-1.49-1.61l-1.32-1.39Zm1-1.09.34-.16c.95-.43,1.43-1.39,1.43-2.88a2.16,2.16,0,0,0-.52-1.39,1.6,1.6,0,0,0-1.3-.64,2,2,0,0,0-1.28.43,1.31,1.31,0,0,0-.54,1.08A5.43,5.43,0,0,0,290,94.29Z"/><path class="cls-1" d="M314.28,103.88c1.35,0,2-.65,2-1.95a1.86,1.86,0,0,0,0-.34c0-.1,0-.2-.08-.28A1.07,1.07,0,0,0,316,101l-.19-.26a2.08,2.08,0,0,0-.26-.26l-.27-.23L315,100l-.37-.25-.43-.27-.44-.27c-1.64-1-2.47-2.23-2.47-3.56a2.94,2.94,0,0,1,1.07-2,4,4,0,0,1,2.88-1,5.67,5.67,0,0,1,1,.09,6.38,6.38,0,0,1,.86.21l.47.14c.19,0,.3.15.34.39a11.14,11.14,0,0,1,.28,1.92.79.79,0,0,1-.06.29c0,.1-.09.16-.14.16a1,1,0,0,1-.35-.13.45.45,0,0,1-.28-.32A2.27,2.27,0,0,0,315,93.51c-1.2,0-1.79.51-1.79,1.53a1.43,1.43,0,0,0,.07.46,1.92,1.92,0,0,0,.26.45l.32.38a3.41,3.41,0,0,0,.44.38l.43.32.49.33.43.26c1.91,1.23,2.86,2.48,2.86,3.77a3.22,3.22,0,0,1-1.07,2.34,4.14,4.14,0,0,1-3.06,1.06,6.84,6.84,0,0,1-1.15-.08,7.13,7.13,0,0,1-1-.22l-.64-.17a.44.44,0,0,1-.18,0,.16.16,0,0,1-.08-.08l0-.07a8.61,8.61,0,0,1-.36-1.17,7.85,7.85,0,0,1-.24-1.3c0-.07.06-.14.19-.2a.75.75,0,0,1,.33-.09s.13.13.29.39.34.55.56.87a3.18,3.18,0,0,0,.94.87A2.36,2.36,0,0,0,314.28,103.88Z"/><path class="cls-1" d="M321.82,98.86a6,6,0,0,1,1.84-4.31,5.84,5.84,0,0,1,4.32-1.9,6.49,6.49,0,0,1,4.56,1.75,5.68,5.68,0,0,1,1.92,4.36,6.06,6.06,0,0,1-1.72,4.34,6.26,6.26,0,0,1-4.76,1.8,6,6,0,0,1-4.38-1.76A5.78,5.78,0,0,1,321.82,98.86Zm6-5.38a3.15,3.15,0,0,0-2.89,1.43,6.56,6.56,0,0,0-.9,3.56,6.47,6.47,0,0,0,1.13,3.93,3.78,3.78,0,0,0,3.24,1.53,3.62,3.62,0,0,0,1.86-.46,3.24,3.24,0,0,0,1.2-1.24,6.32,6.32,0,0,0,.62-1.59,7,7,0,0,0,.19-1.65,6.7,6.7,0,0,0-1.13-3.86A3.76,3.76,0,0,0,327.82,93.48Z"/><path class="cls-1" d="M342.65,93.35l-.52.12a3.9,3.9,0,0,0-.49.12,2.4,2.4,0,0,0-.36.14A1,1,0,0,0,341,94a2,2,0,0,0-.34,1.38v6.94a1.24,1.24,0,0,0,1.4,1.4h2.5a1.71,1.71,0,0,0,.48-.13,1.6,1.6,0,0,0,.56-.33,6.35,6.35,0,0,0,1.06-1.67c.09-.15.33-.21.73-.18a.28.28,0,0,1,.18.06.16.16,0,0,1,.06.17,18.09,18.09,0,0,0-.58,2.66c0,.07,0,.13-.13.2a.4.4,0,0,1-.26.11c-1,0-2.23,0-3.78,0s-2.6-.06-3.13-.06l-2.76.08s-.06,0-.09-.14a.57.57,0,0,1,0-.29c0-.09,0-.14.1-.14a2.79,2.79,0,0,0,1.2-.55,1.55,1.55,0,0,0,.52-1.09v-7a2.31,2.31,0,0,0-.24-1.35l-.13-.14a.28.28,0,0,0-.13-.11l-.11-.06-.15-.07-.15,0-.21-.06a1.23,1.23,0,0,0-.26-.08c-.09,0-.14-.13-.14-.33s0-.3.14-.3l1,0,1,0,1.91,0,1.47,0q.18,0,.15.3C342.78,93.23,342.73,93.33,342.65,93.35Z"/><path class="cls-1" d="M353.7,94.7v7.67a1.28,1.28,0,0,0,.36,1,2.75,2.75,0,0,0,1.38.62c.15,0,.23.15.23.34s-.08.28-.23.28c-.35,0-.79,0-1.33-.06s-1-.07-1.32-.07-.87,0-1.45.07-1,.06-1.34.06c-.07,0-.12,0-.17-.14a.44.44,0,0,1,0-.3A.22.22,0,0,1,350,104a2.8,2.8,0,0,0,1.41-.62,1.28,1.28,0,0,0,.34-1V94.7a.93.93,0,0,0-.42-.72,4.66,4.66,0,0,0-1.14-.63q-.09,0-.12-.18a.48.48,0,0,1,0-.29c0-.08.06-.13.12-.13l1.33,0,1.27,0,1.19,0,1.28,0c.1,0,.15.09.15.28s-.05.29-.15.32a4.38,4.38,0,0,0-1.2.65A.82.82,0,0,0,353.7,94.7Z"/><path class="cls-1" d="M364.1,92.6a6.59,6.59,0,0,1,1.87.21c.1,0,.35.09.74.16l.74.17c.09,0,.16.2.23.55.07.74.12,1.4.13,2a.46.46,0,0,1-.11.28c-.08.11-.15.15-.22.13a.58.58,0,0,1-.58-.57,2,2,0,0,0-1.67-1.91,6.1,6.1,0,0,0-1.55-.2,3.37,3.37,0,0,0-2.9,1.49,5.71,5.71,0,0,0-1,3.4,6.68,6.68,0,0,0,1.17,3.9A3.83,3.83,0,0,0,364,104a4.06,4.06,0,0,0,2.19-.68,2.15,2.15,0,0,0,1-1.35c0-.08.12-.16.32-.23a1.55,1.55,0,0,1,.46-.11c.15,0,.21.16.18.47a5.55,5.55,0,0,1-.35,1,9.23,9.23,0,0,1-.51,1c-.09.17-.56.34-1.42.5a12.46,12.46,0,0,1-2.43.25,5.61,5.61,0,0,1-4.15-1.82,6,6,0,0,1-1.75-4.32,5.66,5.66,0,0,1,1.94-4.36A6.57,6.57,0,0,1,364.1,92.6Z"/><path class="cls-1" d="M374.21,94.7v7.67a1.28,1.28,0,0,0,.36,1A2.75,2.75,0,0,0,376,104c.16,0,.24.15.24.34s-.08.28-.24.28q-.52,0-1.32-.06c-.54,0-1-.07-1.33-.07s-.86,0-1.44.07-1,.06-1.34.06c-.07,0-.13,0-.17-.14a.5.5,0,0,1,0-.3.23.23,0,0,1,.2-.18,2.8,2.8,0,0,0,1.4-.62,1.24,1.24,0,0,0,.34-1V94.7a.93.93,0,0,0-.42-.72,4.3,4.3,0,0,0-1.14-.63q-.07,0-.12-.18a.71.71,0,0,1,0-.29c0-.08.07-.13.12-.13l1.34,0,1.26,0,1.2,0,1.27,0c.1,0,.16.09.16.28s-.06.29-.16.32a4.38,4.38,0,0,0-1.2.65A.82.82,0,0,0,374.21,94.7Z"/><path class="cls-1" d="M387.57,94c-1.28,0-2.13,0-2.54,0-.19,0-.29.28-.29.78v7.62a1.16,1.16,0,0,0,.34.91,2.69,2.69,0,0,0,1.35.62.25.25,0,0,1,.18.2.41.41,0,0,1,0,.31.17.17,0,0,1-.18.14,13.3,13.3,0,0,1-1.34-.09,13.62,13.62,0,0,0-1.39-.09,12.45,12.45,0,0,0-1.33.09,12,12,0,0,1-1.27.09c-.07,0-.12,0-.16-.14a.64.64,0,0,1,0-.31c0-.11.08-.18.17-.2a2.69,2.69,0,0,0,1.35-.62,1.16,1.16,0,0,0,.34-.91V94.78c0-.48-.1-.74-.31-.78s-.85,0-1.93,0a1.39,1.39,0,0,0-1.3.73,2.37,2.37,0,0,1-.37.45.81.81,0,0,1-.46.28c-.24,0-.26-.23-.05-.68a2.86,2.86,0,0,0,.23-.68,6,6,0,0,0,.13-1c0-.4.06-.64.08-.73,0-.26.15-.39.34-.39s.29.19.49.55.51.36,1.15.36h7c.7,0,1.14-.11,1.33-.33a.92.92,0,0,1,.62-.32.21.21,0,0,1,.16.11.2.2,0,0,1,0,.21,9.26,9.26,0,0,0-.45,2.44,1.32,1.32,0,0,1,0,.23.48.48,0,0,1-.09.19.21.21,0,0,1-.17.07c-.15,0-.29-.21-.41-.59a1.16,1.16,0,0,0,0-.16c0-.09,0-.15,0-.18a1.16,1.16,0,0,0-.06-.16.85.85,0,0,0-.09-.14l-.13-.12a.45.45,0,0,0-.21-.1L388,94A2.17,2.17,0,0,0,387.57,94Z"/><path class="cls-1" d="M392.72,98.86a6,6,0,0,1,1.85-4.31,5.82,5.82,0,0,1,4.32-1.9,6.53,6.53,0,0,1,4.56,1.75,5.7,5.7,0,0,1,1.91,4.36,6,6,0,0,1-1.72,4.34,6.25,6.25,0,0,1-4.75,1.8,6,6,0,0,1-4.39-1.76A5.81,5.81,0,0,1,392.72,98.86Zm6-5.38a3.17,3.17,0,0,0-2.9,1.43,6.56,6.56,0,0,0-.9,3.56,6.47,6.47,0,0,0,1.13,3.93,3.8,3.8,0,0,0,3.24,1.53,3.62,3.62,0,0,0,1.86-.46,3.27,3.27,0,0,0,1.21-1.24,6.29,6.29,0,0,0,.61-1.59,7,7,0,0,0,.2-1.65A6.63,6.63,0,0,0,402,95.13,3.75,3.75,0,0,0,398.73,93.48Z"/><path class="cls-1" d="M411.34,99.59c0,.4,0,.92.05,1.55s0,1,0,1.26c0,.69.58,1.18,1.69,1.46.08,0,.13.16.13.4s-.05.35-.13.35l-1-.08c-.6,0-1.1-.08-1.48-.08s-1,0-1.7.08l-1.21.08c-.09,0-.13-.1-.13-.31s0-.32.13-.34a2.41,2.41,0,0,0,1.17-.6,1.39,1.39,0,0,0,.52-1.06v-7a2.33,2.33,0,0,0-.23-1.3,2,2,0,0,0-.43-.37,3.49,3.49,0,0,0-.69-.22.27.27,0,0,1-.13-.19.65.65,0,0,1,0-.31c0-.1.05-.15.14-.15l1.12,0c.5,0,.92,0,1.25,0a9.42,9.42,0,0,0,.95-.07,9,9,0,0,1,1.23-.08,5.86,5.86,0,0,1,3.28.82,2.55,2.55,0,0,1,1.25,2.25,3,3,0,0,1-.33,1.24,3.28,3.28,0,0,1-.58.94,3.52,3.52,0,0,1-1,.75c-.07,0-.07.07,0,.16.2.31.5.8.89,1.47s.76,1.23,1.09,1.69a11,11,0,0,0,1.24,1.39,1.87,1.87,0,0,0,.51.38,2.1,2.1,0,0,0,.39.14,2.41,2.41,0,0,0,.5,0h.55c.05,0,.09,0,.1.1a.41.41,0,0,1,0,.24.44.44,0,0,1-.13.18,2.22,2.22,0,0,1-1.28.39,3.58,3.58,0,0,1-2.88-1q-.32-.39-.57-.75a5.71,5.71,0,0,1-.42-.64c-.1-.18-.29-.5-.56-.95l-.74-1.22a2,2,0,0,0-.78-.7,3.42,3.42,0,0,0-1.43-.39.18.18,0,0,0-.2.08A.53.53,0,0,0,411.34,99.59Zm0-1.79a.71.71,0,0,0,.13.48.4.4,0,0,0,.25.15,4.06,4.06,0,0,0,.48,0,3.42,3.42,0,0,0,1.9-.52,2.31,2.31,0,0,0,.8-2.11,2.07,2.07,0,0,0-2.34-2.34,1.2,1.2,0,0,0-.9.25,1.16,1.16,0,0,0-.24.74C411.35,96.06,411.32,97.17,411.34,97.8Z"/></g></g></svg>