<svg xmlns="http://www.w3.org/2000/svg" viewBox="0 0 502.9 155.92"><defs><style>.cls-1{fill:#c2b697;}.cls-2{fill:#fff;}</style></defs><title>Prime lawAsset 23</title><g id="Layer_2" data-name="Layer 2"><g id="Layer_2-2" data-name="Layer 2"><path class="cls-1" d="M145.65,0h-68a55.34,55.34,0,0,1-6.85,102.69c-.86.27-1.73.53-2.62.76v.11l-4.39.89A11.25,11.25,0,0,0,55.32,112v43.89h90.33a5.35,5.35,0,0,0,5.35-5.35V5.35A5.34,5.34,0,0,0,145.65,0Z"/><path class="cls-2" d="M49.34,0h-44A5.34,5.34,0,0,0,0,5.35V150.57a5.35,5.35,0,0,0,5.35,5.35H46V111.28A16.61,16.61,0,0,1,58.8,99.2v0h0a50.41,50.41,0,0,0,6.41-1.58A50,50,0,0,0,100,49.4C99.65,21.92,76.83,0,49.34,0Z"/><path class="cls-2" d="M168.21,38.82V58.26c0,1.65,1.33,2.81,4,3.47.2,0,.31.34.31.9s-.11.83-.31.83-1-.06-2.48-.18-2.7-.19-3.65-.19-2.19.06-3.72.19-2.43.18-2.72.18-.25-.23-.25-.71.08-.73.25-.77a4.89,4.89,0,0,0,2.78-1.43A3.52,3.52,0,0,0,163.57,58V41.61c0-1.74-.19-2.79-.56-3.16a4.12,4.12,0,0,0-1-.84,11.09,11.09,0,0,0-1.64-.59c-.12,0-.22-.19-.31-.46a2.1,2.1,0,0,1-.09-.77c0-.25.13-.38.34-.38.58,0,1.34,0,2.29.07s1.74.06,2.35.06,1.62,0,3.13-.16,2.45-.15,2.82-.15a18.92,18.92,0,0,1,8.95,2,6.37,6.37,0,0,1,3.74,5.94,8.11,8.11,0,0,1-3,6.82,10.21,10.21,0,0,1-4.74,1.76,15.78,15.78,0,0,1-4.86.15c-.74-.12-1-.37-.68-.74a.57.57,0,0,1,.56-.25,5.7,5.7,0,0,0,4.46-1,8.48,8.48,0,0,0,2.47-2.69,9.83,9.83,0,0,0,.75-4.43,4.9,4.9,0,0,0-1.3-3.56,6.07,6.07,0,0,0-2.85-1.73,13.76,13.76,0,0,0-3.47-.41Q168.21,37,168.21,38.82Z"/><path class="cls-2" d="M196.45,51.58c0,1,.08,2.17.12,3.68s.07,2.51.07,3q.06,2.48,4,3.47c.21.08.31.4.31,1s-.1.84-.31.84-1-.07-2.41-.19-2.63-.19-3.53-.19-2.39.07-4.06.19-2.63.19-2.88.19-.31-.25-.31-.75.1-.76.31-.8a5.69,5.69,0,0,0,2.79-1.43A3.34,3.34,0,0,0,191.81,58V41.48c0-1.65-.19-2.68-.56-3.09a4.09,4.09,0,0,0-1-.9,8.37,8.37,0,0,0-1.64-.53c-.13,0-.23-.18-.31-.43a1.75,1.75,0,0,1-.1-.74c0-.25.14-.38.34-.38.58,0,1.47,0,2.67.1s2.19.09,3,.09a20.77,20.77,0,0,0,2.26-.19,26,26,0,0,1,2.94-.18,14,14,0,0,1,7.8,2,6.07,6.07,0,0,1,3,5.35,7.22,7.22,0,0,1-.78,3A7.42,7.42,0,0,1,208,47.74a8.58,8.58,0,0,1-2.48,1.79c-.16,0-.16.17,0,.37.5.75,1.21,1.91,2.14,3.5a46.29,46.29,0,0,0,2.6,4,25.53,25.53,0,0,0,2.94,3.31,4.46,4.46,0,0,0,1.21.9,4.19,4.19,0,0,0,.93.34,6.67,6.67,0,0,0,1.2,0l1.3,0c.13,0,.21.08.25.25a.9.9,0,0,1-.06.55,1,1,0,0,1-.31.44,5.26,5.26,0,0,1-3,.93q-4.91,0-6.88-2.36c-.49-.62-.95-1.21-1.36-1.79s-.74-1.09-1-1.52-.69-1.19-1.33-2.26-1.23-2-1.77-2.91a4.76,4.76,0,0,0-1.85-1.67,8.48,8.48,0,0,0-3.41-.93.4.4,0,0,0-.46.18A1.26,1.26,0,0,0,196.45,51.58Zm0-4.28a1.68,1.68,0,0,0,.31,1.15,1,1,0,0,0,.59.37c.18,0,.57,0,1.14,0A7.9,7.9,0,0,0,203,47.61q1.92-1.17,1.92-5c0-3.72-1.85-5.58-5.57-5.58a2.87,2.87,0,0,0-2.13.59,2.75,2.75,0,0,0-.59,1.77Q196.39,45.08,196.45,47.3Z"/><path class="cls-2" d="M234.41,39.93V58.2a3,3,0,0,0,.87,2.29A6.48,6.48,0,0,0,238.56,62a.71.71,0,0,1,.56.8c0,.46-.19.68-.56.68-.83,0-1.88-.05-3.16-.15s-2.33-.16-3.16-.16-2.05.06-3.43.16-2.45.15-3.19.15c-.17,0-.3-.11-.41-.34a1.07,1.07,0,0,1-.06-.71.53.53,0,0,1,.47-.43A6.65,6.65,0,0,0,229,60.49a3,3,0,0,0,.81-2.29V39.93a2.27,2.27,0,0,0-1-1.73,11.12,11.12,0,0,0-2.72-1.49c-.12,0-.22-.18-.28-.43a1.3,1.3,0,0,1,0-.68c.06-.21.16-.31.28-.31.91,0,2,0,3.19.06s2.22.06,3,.06,1.69,0,2.85-.06,2.17-.06,3-.06c.25,0,.38.22.38.65s-.13.69-.38.77a10.48,10.48,0,0,0-2.84,1.55A2,2,0,0,0,234.41,39.93Z"/><path class="cls-2" d="M265.49,63.34q-.56,1.05-1.2,1c-.44-.06-.8-.42-1.09-1.08q-1.67-3.54-4.49-10.31T254.53,43c-.29-.7-.47-.7-.55,0Q252.74,55,252.55,58.39a3.5,3.5,0,0,0,1.24,2.41A4.47,4.47,0,0,0,256.08,62c.21,0,.34.3.4.77s-.07.71-.4.71c-.54,0-1.31,0-2.32-.12s-1.83-.12-2.45-.12-1.6,0-2.69.12-1.87.12-2.32.12c-.25,0-.36-.23-.34-.71s.13-.73.34-.77A7.56,7.56,0,0,0,249,61a2.34,2.34,0,0,0,.81-1.61q1.92-14.12,1.92-18.83a3.58,3.58,0,0,0-.68-2.35,6.94,6.94,0,0,0-3.6-1.61c-.37-.08-.49-.45-.37-1.11.09-.25.19-.38.31-.38a28.86,28.86,0,0,0,4.49.31c1.67,0,2.85,0,3.53-.09a3.79,3.79,0,0,1,1.52.09q6.81,17.1,8.54,21.31.5,1.23,1,.12c.83-1.69,1.6-3.34,2.33-5s1.26-2.84,1.61-3.71.94-2.33,1.76-4.4,1.45-3.59,1.86-4.58a27.24,27.24,0,0,1,1.67-3.59h2.85q1.11,0,5.57-.56.44-.06,0,.87a1.13,1.13,0,0,1-.37.49,4,4,0,0,1-1,.25,3.24,3.24,0,0,0-.8.19,5.55,5.55,0,0,0-.81.43,2.34,2.34,0,0,0-.68,2q.06,10.65.8,19.51a2.42,2.42,0,0,0,1,1.73,6.21,6.21,0,0,0,2.85,1.43c.21.08.33.36.38.83s-.09.71-.38.71-1.11,0-2.23-.12-2.06-.12-2.84-.12c-1,0-2.39,0-4.06.12l-2.82.12c-.25,0-.39-.23-.43-.71s0-.75.25-.83l.74-.22a1.63,1.63,0,0,0,.53-.25l.27-.21.28-.28.34-.34a2.61,2.61,0,0,0,.87-1.86q.06-2.61-.49-15.48c0-.79-.25-.79-.62,0Q266,62.11,265.49,63.34Z"/><path class="cls-2" d="M304.63,49.9a18.07,18.07,0,0,0-5.33-.06c-.7.08-1.05.44-1.05,1q0,2,.12,6.82c.09,2.1,1,3.15,2.67,3.15h5.45a9.91,9.91,0,0,0,1.45-.24,5.11,5.11,0,0,0,1.52-.5,7.92,7.92,0,0,0,2-2.85c.12-.29.43-.43.93-.43s.56.16.56.49a31.15,31.15,0,0,1-1.06,5.33c-.08.49-.27.74-.55.74-2.11,0-4.82,0-8.15-.15s-5.62-.16-6.9-.16l-6.63.37c-.08,0-.15-.12-.21-.37a1.54,1.54,0,0,1,0-.74c0-.25.12-.37.24-.37a7.11,7.11,0,0,0,2.79-1.3,3.08,3.08,0,0,0,1.18-2.29V41.17c0-1.69-.19-2.72-.56-3.09-.12-.13-.23-.24-.31-.34a.94.94,0,0,0-.28-.25l-.25-.16a1.68,1.68,0,0,0-.34-.15l-.37-.13L291,36.9l-.62-.19c-.21,0-.32-.26-.34-.68s.09-.62.34-.62c.57,0,1.39,0,2.44.07s1.91.06,2.57.06q2.42,0,5.88-.06c2.32,0,4.27-.08,5.86-.1l2.81,0c.46,0,.71.13.75.37a32.06,32.06,0,0,1,.68,5.7c0,.25-.23.37-.68.37-.21,0-.37-.14-.5-.43A5.93,5.93,0,0,0,309,39a3.17,3.17,0,0,0-2.6-1.12H299.8a.88.88,0,0,0-.68.34,1.42,1.42,0,0,0-.37.78,25,25,0,0,0-.38,3.28c-.08,2.72-.12,4.19-.12,4.39,0,.62.14.93.43.93h5.39a2.65,2.65,0,0,0,1.86-.62,2.87,2.87,0,0,0,.74-1.11q.56-.81.87-.81a.62.62,0,0,1,.4.22.46.46,0,0,1,.16.46,49.76,49.76,0,0,0,0,6.26c.08.49-.05.74-.38.74s-.74-.39-1.11-1.17A2.31,2.31,0,0,0,304.63,49.9Z"/><path class="cls-2" d="M331,36.71c-.33.09-.75.18-1.24.28s-.88.2-1.15.28a6.93,6.93,0,0,0-.86.34,2.82,2.82,0,0,0-.78.53c-.53.54-.8,1.63-.8,3.28V58q0,3.34,3.34,3.35h6a4.44,4.44,0,0,0,1.14-.31,3.67,3.67,0,0,0,1.33-.81,14.4,14.4,0,0,0,2.54-4c.21-.37.79-.52,1.74-.43a.68.68,0,0,1,.43.15.37.37,0,0,1,.12.4,44.47,44.47,0,0,0-1.36,6.32.64.64,0,0,1-.31.49,1,1,0,0,1-.62.25q-3.47,0-9-.12c-3.69-.08-6.18-.13-7.46-.13l-6.56.19c-.09,0-.16-.11-.22-.34a1.56,1.56,0,0,1,0-.68c0-.23.12-.34.25-.34a6.53,6.53,0,0,0,2.84-1.3,3.66,3.66,0,0,0,1.24-2.6V41.36c0-1.74-.18-2.81-.55-3.22a4.18,4.18,0,0,1-.31-.34.93.93,0,0,0-.31-.25l-.28-.15a1.36,1.36,0,0,0-.34-.16l-.37-.12-.5-.16-.62-.18c-.21,0-.32-.3-.34-.78s.09-.71.34-.71c.58,0,1.35,0,2.32.06s1.77.06,2.39.06c1.07,0,2.59,0,4.55-.09l3.5-.09c.29,0,.41.24.37.71S331.21,36.67,331,36.71Z"/><path class="cls-2" d="M347,63.46c-.24,0-.36-.22-.34-.68s.14-.72.34-.8a10.26,10.26,0,0,0,3.53-1.8,7.67,7.67,0,0,0,1.92-2.6q2.73-5.7,7.19-16.59a10,10,0,0,0,.43-1.61q.06-.32.12-.81c0-.33.09-.6.13-.8l.06-.37a4.92,4.92,0,0,0,1.42-.81,9.24,9.24,0,0,0,1.37-1.11c.49-.58.78-.87.86-.87s.31.18.44.56q1.23,3.34,3.68,10.27t4.06,11.21a9.44,9.44,0,0,0,2.16,3.53A5.51,5.51,0,0,0,377.2,62c.25.08.39.35.43.8s-.1.68-.43.68q-1.11,0-2.94-.15c-1.22-.1-2.22-.16-3-.16s-2.05.06-3.41.16-2.37.15-3,.15c-.17,0-.27-.12-.31-.37a1.35,1.35,0,0,1,.06-.74c.08-.25.18-.37.31-.37a3.1,3.1,0,0,0,2.6-4.21,18.55,18.55,0,0,0-.87-2.66c-.08-.29-.47-.44-1.17-.44h-8.8c-.29,0-.54.25-.74.74a25.15,25.15,0,0,0-1,2.67,3.33,3.33,0,0,0,.06,2,4,4,0,0,0,2.6,1.86c.29,0,.43.3.43.77s-.14.71-.43.71c-.83,0-1.86-.05-3.1-.15s-2.25-.16-3-.16a21.62,21.62,0,0,0-2.23.16A20.9,20.9,0,0,1,347,63.46Zm14.43-21.05q-1.31,3.23-4.39,10c-.13.25-.13.41,0,.5a1.7,1.7,0,0,0,.8.12h7.25a1.24,1.24,0,0,0,.55-.06s0-.23-.06-.56q-.37-1.37-3.4-10a3.64,3.64,0,0,0-.28-.62c-.07-.08-.13-.08-.19,0A3.64,3.64,0,0,0,361.47,42.41Z"/><path class="cls-2" d="M409.52,40.86q-1.29,3.84-3.34,10.1T402.71,61.3a7.59,7.59,0,0,1-1.3,2.1c-.66.83-1.07,1.24-1.24,1.24a2,2,0,0,1-.74-.34,1.74,1.74,0,0,1-.74-.77C398,62.16,397.47,61,397,60s-1-2.39-1.64-4.12-1.17-3.1-1.58-4.09a.53.53,0,0,0-.07-.18c-.16-.5-.33-.56-.49-.19l-.13.25c-.57,1.57-1.35,3.43-2.32,5.6s-1.76,4.14-2.38,5.91a3.09,3.09,0,0,1-.9,1,2.1,2.1,0,0,1-1,.55,2.94,2.94,0,0,1-.81-.52,2.25,2.25,0,0,1-.8-.9L375.47,40a5.05,5.05,0,0,0-1.06-1.68A7,7,0,0,0,372.06,37c-.29-.08-.43-.34-.43-.77s.14-.65.43-.65c.62,0,1.47,0,2.54.09s1.94.09,2.6.09,1.79,0,3-.09,2.12-.09,2.7-.09a.39.39,0,0,1,.4.34,1.24,1.24,0,0,1,0,.71.45.45,0,0,1-.43.37,5.12,5.12,0,0,0-1.92.44c-.54.24-.81.51-.81.8l.74,2.23Q386.55,55,388,58.2a.44.44,0,0,0,.34.22.33.33,0,0,0,.34-.16c.45-1.11,1-2.57,1.67-4.36s1.22-3.25,1.67-4.37a4.78,4.78,0,0,0,.34-1.17c0-.09-.15-.46-.4-1.12s-.61-1.62-1.09-3a31.46,31.46,0,0,0-1.39-3.5,6.92,6.92,0,0,0-1.73-2.42A6.45,6.45,0,0,0,384.88,37c-.25,0-.36-.24-.34-.71s.13-.71.34-.71q.67,0,2.07.09c.93.06,1.71.09,2.33.09s1.52,0,2.6-.09,1.77-.09,2.1-.09.42.21.4.65-.15.69-.4.77a1.14,1.14,0,0,0-1.05,1.24,24.64,24.64,0,0,0,1.55,4.71l.12.24.25.5s.08-.12.12-.37.17-.48.25-.68a20.12,20.12,0,0,0,1.49-4.4,1.29,1.29,0,0,0-.31-.77,1.18,1.18,0,0,0-.81-.47c-.12,0-.21-.17-.28-.4a1.31,1.31,0,0,1,0-.68c.07-.23.16-.34.28-.34.46,0,1,0,1.61.09s1.14.09,1.55.09c.58,0,1.31,0,2.2-.09s1.54-.09,1.95-.09.42.2.4.62-.15.66-.4.74a4.25,4.25,0,0,1-.56.12l-.49.1-.44.09-.4.09a2.14,2.14,0,0,0-.34.16,2.18,2.18,0,0,0-.37.21,2.89,2.89,0,0,1-.34.22.93.93,0,0,0-.34.31l-.31.43-.37.5a36.29,36.29,0,0,0-2.67,5.76,2.61,2.61,0,0,0-.12,1.92q1.61,4.57,4.89,11.58a.21.21,0,0,0,.16.06.33.33,0,0,0,.21-.12c.08-.09.13-.15.13-.19q3.34-10.28,5.38-17.52a9.45,9.45,0,0,0,.25-2.42c0-.25-.23-.5-.68-.74a4.63,4.63,0,0,0-1.55-.5c-.29,0-.43-.29-.43-.74s.14-.68.43-.68c.58,0,1.36,0,2.36.09s1.79.09,2.41.09,1.24,0,2.11-.09,1.61-.09,2.22-.09c.09,0,.17.11.25.34a1.23,1.23,0,0,1,.06.71c0,.25-.14.37-.31.37a10.48,10.48,0,0,0-2.6.87A6,6,0,0,0,409.52,40.86Z"/><path class="cls-2" d="M168.21,75.21V94.66c0,1.65,1.33,2.81,4,3.47.2,0,.31.34.31.89s-.11.84-.31.84-1-.06-2.48-.19-2.7-.18-3.65-.18-2.19.06-3.72.18-2.43.19-2.72.19-.25-.24-.25-.71.08-.74.25-.78A4.88,4.88,0,0,0,162.39,97a3.52,3.52,0,0,0,1.18-2.54V78c0-1.73-.19-2.79-.56-3.16a3.81,3.81,0,0,0-1-.83,10,10,0,0,0-1.64-.59c-.12,0-.22-.2-.31-.47a2.06,2.06,0,0,1-.09-.77c0-.25.13-.37.34-.37.58,0,1.34,0,2.29.06s1.74.06,2.35.06,1.62-.05,3.13-.15,2.45-.16,2.82-.16a18.92,18.92,0,0,1,8.95,2,6.39,6.39,0,0,1,3.74,6,8.11,8.11,0,0,1-3,6.81,10,10,0,0,1-4.74,1.76,15.83,15.83,0,0,1-4.86.16c-.74-.12-1-.37-.68-.74a.55.55,0,0,1,.56-.25,5.7,5.7,0,0,0,4.46-1.05,8.51,8.51,0,0,0,2.47-2.7,9.8,9.8,0,0,0,.75-4.43,4.92,4.92,0,0,0-1.3-3.56,6.23,6.23,0,0,0-2.85-1.73,13.78,13.78,0,0,0-3.47-.4C169.12,73.42,168.21,74,168.21,75.21Z"/><path class="cls-2" d="M189,99.86c-.25,0-.36-.23-.34-.68s.13-.72.34-.81a10.36,10.36,0,0,0,3.53-1.79,8,8,0,0,0,1.92-2.6q2.73-5.7,7.18-16.6a9.8,9.8,0,0,0,.44-1.61c0-.2.08-.47.12-.8s.08-.6.12-.81l.07-.37a4.8,4.8,0,0,0,1.42-.81,7.5,7.5,0,0,0,1.36-1.11q.75-.87.87-.87c.16,0,.31.19.43.56q1.25,3.34,3.69,10.28t4.05,11.21a9.6,9.6,0,0,0,2.17,3.53,5.42,5.42,0,0,0,2.79,1.79c.24.09.39.35.43.81s-.1.68-.43.68c-.75,0-1.73,0-2.94-.16s-2.22-.15-3-.15-2,0-3.4.15-2.38.16-3,.16c-.16,0-.27-.12-.31-.37a1.6,1.6,0,0,1,.06-.75c.09-.24.19-.37.31-.37a3.08,3.08,0,0,0,2.6-4.21,19.9,19.9,0,0,0-.86-2.66c-.09-.29-.48-.43-1.18-.43h-8.79c-.29,0-.54.24-.74.74a24.48,24.48,0,0,0-1,2.66,3.42,3.42,0,0,0,.07,2,3.94,3.94,0,0,0,2.6,1.85c.29,0,.43.3.43.78s-.14.71-.43.71c-.83,0-1.86,0-3.1-.16s-2.25-.15-3-.15a21.19,21.19,0,0,0-2.23.15A18.82,18.82,0,0,1,189,99.86Zm14.43-21q-1.3,3.21-4.4,10c-.12.24-.12.41,0,.49a1.75,1.75,0,0,0,.81.12h7.24a1.3,1.3,0,0,0,.56-.06s0-.22-.06-.55q-.37-1.36-3.41-10a3,3,0,0,0-.28-.62q-.09-.14-.18,0A3,3,0,0,0,203.45,78.81Z"/><path class="cls-2" d="M232.06,88c0,1,.08,2.18.12,3.68s.06,2.51.06,3q.06,2.48,4,3.47c.2.08.31.4.31,1s-.11.83-.31.83-1-.06-2.42-.18-2.62-.19-3.53-.19-2.38.06-4,.19-2.64.18-2.88.18-.31-.25-.31-.74.1-.77.31-.81A5.77,5.77,0,0,0,226.17,97a3.33,3.33,0,0,0,1.24-2.54V77.88c0-1.65-.18-2.69-.56-3.1a4.56,4.56,0,0,0-1-.9,8.32,8.32,0,0,0-1.64-.52c-.12,0-.23-.19-.31-.44a1.88,1.88,0,0,1-.09-.74c0-.25.13-.37.34-.37.58,0,1.46,0,2.66.09s2.19.09,3,.09a22.64,22.64,0,0,0,2.26-.18,24.24,24.24,0,0,1,2.95-.19,14,14,0,0,1,7.8,1.95,6.1,6.1,0,0,1,3,5.36,7.27,7.27,0,0,1-.77,3,7.14,7.14,0,0,1-1.4,2.23,8.59,8.59,0,0,1-2.47,1.8c-.17,0-.17.16,0,.37.49.74,1.2,1.91,2.13,3.5a46.8,46.8,0,0,0,2.6,4,26.4,26.4,0,0,0,2.94,3.31A4.34,4.34,0,0,0,250,98a3.73,3.73,0,0,0,.93.34,5.94,5.94,0,0,0,1.21,0l1.3,0c.12,0,.21.09.25.25a.87.87,0,0,1-.07.56.86.86,0,0,1-.3.43,5.27,5.27,0,0,1-3,.93q-4.89,0-6.87-2.35c-.5-.62-.95-1.22-1.36-1.8a16.84,16.84,0,0,1-1-1.52c-.24-.43-.69-1.18-1.33-2.26s-1.23-2-1.76-2.91A4.86,4.86,0,0,0,236.08,88a8.77,8.77,0,0,0-3.4-.93.41.41,0,0,0-.47.19A1.29,1.29,0,0,0,232.06,88Zm0-4.27a1.65,1.65,0,0,0,.31,1.14,1,1,0,0,0,.58.37,9.5,9.5,0,0,0,1.15,0A8,8,0,0,0,238.62,84q1.92-1.19,1.92-5,0-5.56-5.57-5.57a2.84,2.84,0,0,0-2.14.59,2.8,2.8,0,0,0-.59,1.76C232.08,79.57,232,82.21,232.06,83.7Z"/><path class="cls-2" d="M280.79,74.53q-4.59,0-6.07.13c-.45,0-.68.66-.68,1.85V94.66a2.8,2.8,0,0,0,.8,2.16,6.47,6.47,0,0,0,3.22,1.49.59.59,0,0,1,.44.47,1.17,1.17,0,0,1,0,.74.44.44,0,0,1-.44.34,30,30,0,0,1-3.18-.22c-1.35-.14-2.45-.21-3.32-.21a30.26,30.26,0,0,0-3.16.21,27.35,27.35,0,0,1-3,.22c-.16,0-.29-.11-.37-.34a1.32,1.32,0,0,1,0-.74c.06-.27.19-.43.4-.47a6.47,6.47,0,0,0,3.22-1.49,2.77,2.77,0,0,0,.81-2.16V76.51c0-1.15-.25-1.77-.75-1.85a41.71,41.71,0,0,0-4.58-.13,3.32,3.32,0,0,0-3.1,1.74,5.37,5.37,0,0,1-.89,1.08A1.82,1.82,0,0,1,259,78c-.58,0-.62-.54-.12-1.61a6.8,6.8,0,0,0,.56-1.61,22.13,22.13,0,0,0,.31-2.29c.08-.95.14-1.53.18-1.73q.12-.93.81-.93c.28,0,.68.43,1.17,1.3.29.58,1.2.86,2.73.86h16.78c1.65,0,2.7-.26,3.16-.8a2.11,2.11,0,0,1,1.48-.74.48.48,0,0,1,.37.24.45.45,0,0,1,.07.5A22.28,22.28,0,0,0,285.43,77c0,.21-.08.39-.12.56a1,1,0,0,1-.22.43.51.51,0,0,1-.4.19c-.37,0-.7-.52-1-1.43a3.36,3.36,0,0,0-.06-.37c0-.21-.08-.35-.1-.43a1.77,1.77,0,0,0-.15-.37,1.25,1.25,0,0,0-.22-.35,3.91,3.91,0,0,0-.31-.27,1,1,0,0,0-.49-.25l-.68-.13A6.17,6.17,0,0,0,280.79,74.53Z"/><path class="cls-2" d="M293.11,99.86c-.25,0-.36-.24-.34-.71s.13-.74.34-.78a4.28,4.28,0,0,0,2.48-1,4.43,4.43,0,0,0,.93-2.72q.44-7.86.43-17.34a4,4,0,0,0-.37-2.23,5.57,5.57,0,0,0-4-1.73c-.29,0-.44-.25-.44-.75s.15-.74.44-.74,1.72,0,4.55,0l4.36,0a.5.5,0,0,1,.37.12,2.38,2.38,0,0,1,.31.41,3.83,3.83,0,0,0,.31.4q2,2.36,7.4,9t9.32,11a2.73,2.73,0,0,1,.22.28,2.2,2.2,0,0,0,.28.34.77.77,0,0,0,.28.19c.1,0,.18,0,.25-.13a1.73,1.73,0,0,0,.09-.68q.18-5.51-.19-16.59a1.61,1.61,0,0,0-.37-1,3.23,3.23,0,0,0-1-.77,8.18,8.18,0,0,0-1.08-.49c-.33-.13-.71-.25-1.12-.38a7,7,0,0,1-.74-.24c-.12,0-.2-.28-.22-.72s.05-.65.22-.65c.74,0,1.66.05,2.75.13s2,.12,2.7.12,1.53,0,2.6-.12,1.92-.13,2.54-.13c.12,0,.2.23.25.68s-.05.69-.25.69a4.43,4.43,0,0,0-2.17,1A2.28,2.28,0,0,0,323.14,76c-.12,2.1-.21,4.18-.27,6.22s-.1,3.72-.1,5,0,3.18,0,5.63,0,4.45,0,6a1.69,1.69,0,0,1-.46,1.18,1.43,1.43,0,0,1-1.08.49,4.21,4.21,0,0,1-3.1-1.67q-7.62-9.42-16.59-19.57a2.68,2.68,0,0,0-.93-.74c-.25-.08-.41-.07-.47,0a1.64,1.64,0,0,0-.15.52q-.37,11.77-.25,16a3.53,3.53,0,0,0,.68,2,3.38,3.38,0,0,0,2.17,1.17c.25,0,.36.3.34.78s-.2.71-.53.71c-.74,0-1.57,0-2.47-.12s-1.66-.13-2.23-.13-1.35,0-2.3.13S293.73,99.86,293.11,99.86Z"/><path class="cls-2" d="M345.19,86.3a17.73,17.73,0,0,0-5.33-.06q-1,.12-1.05,1.05,0,2,.12,6.81c.09,2.11,1,3.16,2.67,3.16h5.45A9.11,9.11,0,0,0,348.5,97a5.18,5.18,0,0,0,1.52-.49,7.92,7.92,0,0,0,2-2.85c.12-.29.43-.44.93-.44s.56.17.56.5a31,31,0,0,1-1.06,5.32c-.08.5-.27.75-.55.75-2.11,0-4.82,0-8.15-.16s-5.62-.15-6.9-.15l-6.63.37c-.08,0-.15-.12-.21-.37a1.59,1.59,0,0,1,0-.75c0-.24.12-.37.24-.37a7,7,0,0,0,2.79-1.3,3.07,3.07,0,0,0,1.18-2.29V77.57c0-1.7-.19-2.73-.56-3.1a4.37,4.37,0,0,1-.31-.34,1.1,1.1,0,0,0-.28-.25l-.25-.15a1.57,1.57,0,0,0-.34-.16l-.37-.12a4.92,4.92,0,0,1-.49-.16l-.62-.18c-.21,0-.32-.27-.34-.68s.09-.62.34-.62c.57,0,1.39,0,2.44.06s1.91.06,2.57.06q2.42,0,5.88-.06l5.86-.09,2.81,0c.46,0,.71.12.75.37a31.86,31.86,0,0,1,.68,5.69c0,.25-.23.38-.68.38-.21,0-.37-.15-.5-.44a6,6,0,0,0-1.24-2.35,3.2,3.2,0,0,0-2.6-1.11h-6.56a.88.88,0,0,0-.68.34,1.36,1.36,0,0,0-.37.77,25.24,25.24,0,0,0-.38,3.28c-.08,2.73-.12,4.19-.12,4.4,0,.62.14.93.43.93h5.39a2.68,2.68,0,0,0,1.86-.62,2.9,2.9,0,0,0,.74-1.12c.37-.53.66-.8.87-.8a.6.6,0,0,1,.4.21.48.48,0,0,1,.16.47,49.6,49.6,0,0,0,0,6.25c.08.5-.05.75-.38.75s-.74-.4-1.11-1.18A2.3,2.3,0,0,0,345.19,86.3Z"/><path class="cls-2" d="M366.3,88c0,1,.09,2.18.13,3.68s.06,2.51.06,3q.06,2.48,4,3.47c.21.08.31.4.31,1s-.1.83-.31.83-1-.06-2.41-.18-2.62-.19-3.53-.19-2.38.06-4.06.19-2.63.18-2.88.18-.3-.25-.3-.74.1-.77.3-.81A5.76,5.76,0,0,0,360.42,97a3.33,3.33,0,0,0,1.24-2.54V77.88c0-1.65-.19-2.69-.56-3.1a4.56,4.56,0,0,0-1-.9,8.32,8.32,0,0,0-1.64-.52c-.12,0-.23-.19-.31-.44a1.88,1.88,0,0,1-.09-.74c0-.25.13-.37.34-.37.58,0,1.46,0,2.66.09s2.19.09,3,.09a22.64,22.64,0,0,0,2.26-.18,24.21,24.21,0,0,1,2.94-.19A14,14,0,0,1,377,73.57a6.1,6.1,0,0,1,3,5.36,9.52,9.52,0,0,1-2.17,5.2,8.5,8.5,0,0,1-2.48,1.8c-.16,0-.16.16,0,.37.5.74,1.21,1.91,2.14,3.5a46.8,46.8,0,0,0,2.6,4A26.4,26.4,0,0,0,383,97.13a4.34,4.34,0,0,0,1.21.9,3.73,3.73,0,0,0,.93.34,5.94,5.94,0,0,0,1.21,0l1.3,0c.12,0,.2.09.25.25a.87.87,0,0,1-.07.56.82.82,0,0,1-.31.43,5.26,5.26,0,0,1-3,.93q-4.89,0-6.87-2.35c-.5-.62-.95-1.22-1.37-1.8s-.74-1.08-1-1.52-.69-1.18-1.33-2.26-1.23-2-1.76-2.91A4.86,4.86,0,0,0,370.33,88a8.77,8.77,0,0,0-3.41-.93.4.4,0,0,0-.46.19A1.2,1.2,0,0,0,366.3,88Zm0-4.27a1.71,1.71,0,0,0,.31,1.14,1,1,0,0,0,.59.37,9.5,9.5,0,0,0,1.15,0A8,8,0,0,0,372.87,84q1.92-1.19,1.92-5,0-5.56-5.58-5.57a2.17,2.17,0,0,0-2.72,2.35Q366.24,81.47,366.3,83.7Z"/><path class="cls-2" d="M402.16,98.19q4.83,0,4.83-4.65a2.92,2.92,0,0,0-.1-.8c-.06-.25-.12-.48-.18-.68a2.2,2.2,0,0,0-.37-.68c-.19-.25-.34-.46-.47-.62a3.56,3.56,0,0,0-.62-.62l-.65-.56c-.14-.12-.41-.32-.8-.59l-.87-.59-1-.65-1.05-.65Q395,83.4,395,78.62q0-2.41,2.54-4.86a9.52,9.52,0,0,1,6.88-2.45,14,14,0,0,1,2.47.22,15,15,0,0,1,2.05.5l1.11.34c.46,0,.72.35.81.92a27.16,27.16,0,0,1,.68,4.59,1.71,1.71,0,0,1-.16.68c-.1.25-.21.37-.34.37a2.14,2.14,0,0,1-.83-.31,1,1,0,0,1-.65-.74,5.44,5.44,0,0,0-5.7-4.4q-4.27,0-4.27,3.65a3.32,3.32,0,0,0,.18,1.09,4,4,0,0,0,.62,1.08c.29.37.54.67.74.9a7.75,7.75,0,0,0,1.06.9l1,.77c.18.15.58.4,1.17.77s.94.58,1,.62q6.81,4.41,6.81,9a7.78,7.78,0,0,1-2.54,5.58q-2.53,2.54-7.31,2.53a17.82,17.82,0,0,1-5.17-.71c-.8-.22-1.31-.36-1.52-.4a2,2,0,0,1-.43-.12.41.41,0,0,1-.18-.19l-.07-.19a18.39,18.39,0,0,1-.86-2.78,17.63,17.63,0,0,1-.56-3.1c0-.16.14-.32.43-.46a1.77,1.77,0,0,1,.81-.22c.08,0,.31.31.68.93s.81,1.31,1.33,2.07A7.5,7.5,0,0,0,399,97.26,5.7,5.7,0,0,0,402.16,98.19Z"/><path class="cls-2" d="M426.18,83.64c0,.24.21.37.62.37q9,.18,15.11,0c.21,0,.31-.17.31-.5V76.33a2.28,2.28,0,0,0-1-1.74,11.48,11.48,0,0,0-2.73-1.48q-.3-.12-.3-.78c0-.43.1-.65.3-.65.91,0,1.94,0,3.1.07s2.11.06,2.85.06,1.8,0,3-.06,2.29-.07,3.16-.07c.25,0,.36.22.34.65s-.13.7-.34.78a10.41,10.41,0,0,0-2.91,1.55,2.16,2.16,0,0,0-.87,1.67V94.6a3,3,0,0,0,.87,2.29,6.56,6.56,0,0,0,3.35,1.48c.33.09.49.35.49.81s-.16.68-.49.68c-.83,0-1.92,0-3.29-.16s-2.47-.15-3.34-.15-1.9,0-3.22.15-2.38.16-3.16.16c-.16,0-.3-.11-.4-.34a1,1,0,0,1-.06-.71.53.53,0,0,1,.46-.44,6.69,6.69,0,0,0,3.35-1.48,3,3,0,0,0,.8-2.29v-8c0-.21-.08-.31-.25-.31q-9.35-.19-15.6,0c-.13,0-.19.14-.19.43V94.6a3,3,0,0,0,.87,2.29,6.47,6.47,0,0,0,3.28,1.48.72.72,0,0,1,.56.81c0,.45-.19.68-.56.68-.83,0-1.88,0-3.16-.16s-2.33-.15-3.15-.15-2.06,0-3.44.15-2.45.16-3.19.16c-.17,0-.3-.11-.4-.34a1,1,0,0,1-.07-.71.55.55,0,0,1,.47-.44,6.61,6.61,0,0,0,3.34-1.48,3,3,0,0,0,.81-2.29V76.33a2.28,2.28,0,0,0-1-1.74,11.48,11.48,0,0,0-2.73-1.48c-.12,0-.21-.19-.28-.44a1.31,1.31,0,0,1,0-.68c.07-.2.16-.31.28-.31.91,0,2,0,3.19.07s2.22.06,3,.06,1.69,0,2.84-.06,2.17-.07,3-.07c.25,0,.37.22.37.65s-.12.7-.37.78a10.15,10.15,0,0,0-2.85,1.55,1.94,1.94,0,0,0-.87,1.67Z"/><path class="cls-2" d="M467.3,76.33V94.6a3,3,0,0,0,.87,2.29,6.47,6.47,0,0,0,3.28,1.48c.37.09.55.35.55.81s-.18.68-.55.68c-.83,0-1.88,0-3.16-.16s-2.33-.15-3.16-.15-2.05,0-3.44.15-2.44.16-3.18.16c-.17,0-.3-.11-.41-.34a1.09,1.09,0,0,1-.06-.71.54.54,0,0,1,.47-.44,6.65,6.65,0,0,0,3.34-1.48,3,3,0,0,0,.8-2.29V76.33a2.28,2.28,0,0,0-1-1.74,11.16,11.16,0,0,0-2.72-1.48c-.12,0-.22-.19-.28-.44a1.31,1.31,0,0,1,0-.68c.06-.2.16-.31.28-.31.91,0,2,0,3.19.07s2.22.06,3,.06,1.69,0,2.85-.06,2.17-.07,3-.07c.25,0,.38.22.38.65s-.13.7-.38.78a10.21,10.21,0,0,0-2.84,1.55A1.94,1.94,0,0,0,467.3,76.33Z"/><path class="cls-2" d="M487.49,75.21V94.66q0,2.48,4,3.47c.2,0,.31.34.31.89s-.11.84-.31.84-1-.06-2.48-.19-2.7-.18-3.65-.18-2.19.06-3.72.18-2.43.19-2.72.19-.25-.24-.25-.71.08-.74.25-.78A4.88,4.88,0,0,0,481.66,97a3.52,3.52,0,0,0,1.18-2.54V78c0-1.73-.18-2.79-.56-3.16a3.81,3.81,0,0,0-1-.83,10,10,0,0,0-1.64-.59c-.12,0-.22-.2-.31-.47a2.06,2.06,0,0,1-.09-.77c0-.25.13-.37.34-.37.58,0,1.34,0,2.29.06s1.74.06,2.36.06,1.61-.05,3.12-.15,2.45-.16,2.82-.16a18.92,18.92,0,0,1,9,2,6.39,6.39,0,0,1,3.74,6,8.11,8.11,0,0,1-3,6.81,10,10,0,0,1-4.74,1.76,15.83,15.83,0,0,1-4.86.16c-.74-.12-1-.37-.68-.74a.55.55,0,0,1,.56-.25,5.7,5.7,0,0,0,4.46-1.05,8.51,8.51,0,0,0,2.47-2.7,9.8,9.8,0,0,0,.75-4.43,4.92,4.92,0,0,0-1.3-3.56,6.23,6.23,0,0,0-2.85-1.73,13.73,13.73,0,0,0-3.47-.4C488.39,73.42,487.49,74,487.49,75.21Z"/><path class="cls-1" d="M167.71,121l-1-.08c-.61,0-1.06-.08-1.35-.08s-.72,0-1.31.06-1,.07-1.11.07-.13-.1-.13-.3,0-.31.13-.32a5.46,5.46,0,0,0,.7-.11,1.14,1.14,0,0,0,.47-.28,1.38,1.38,0,0,0,.52-1.1v-7.09a2.13,2.13,0,0,0-.23-1.23,2.17,2.17,0,0,0-1.12-.67.26.26,0,0,1-.13-.18.71.71,0,0,1,0-.32c0-.1.06-.15.14-.15l1.06,0,1.13,0c.21,0,.55,0,1-.07s.92-.06,1.3-.06q4.22,0,4.21,2.7a2.48,2.48,0,0,1-.57,1.82,5.13,5.13,0,0,1-1.48.78.13.13,0,0,0-.07.09s0,.08.07.1c.38.12.67.22.88.31a4.12,4.12,0,0,1,.78.44,1.89,1.89,0,0,1,.69.84,3.55,3.55,0,0,1-1.6,4.33A6.25,6.25,0,0,1,167.71,121Zm-1.17-7.39a.9.9,0,0,0,.14.52.76.76,0,0,0,.41.13,3.54,3.54,0,0,0,2.18-.49,1.81,1.81,0,0,0,.76-1.69,2.43,2.43,0,0,0-.46-1.54,2.27,2.27,0,0,0-1.83-.57,1.73,1.73,0,0,0-1,.18.75.75,0,0,0-.27.63C166.5,111.7,166.51,112.64,166.54,113.61Zm3.77,4a2.21,2.21,0,0,0-.88-2.08,3.72,3.72,0,0,0-1.87-.44,1.27,1.27,0,0,0-.81.21.48.48,0,0,0-.21.44q0,1.14,0,3.15a1.51,1.51,0,0,0,.31.93,1.4,1.4,0,0,0,1.12.37,2.22,2.22,0,0,0,1.69-.7A2.69,2.69,0,0,0,170.31,117.56Z"/><path class="cls-1" d="M175.46,121c-.1,0-.15-.1-.14-.29s.05-.3.14-.34a4.53,4.53,0,0,0,1.48-.75,3.36,3.36,0,0,0,.81-1.09c.76-1.6,1.77-3.92,3-7a4.44,4.44,0,0,0,.19-.68c0-.09,0-.2.05-.34s0-.25.05-.33l0-.16a2.05,2.05,0,0,0,.59-.34,3.24,3.24,0,0,0,.58-.47c.2-.24.33-.36.36-.36s.13.08.18.23c.35.94.86,2.38,1.55,4.32s1.25,3.51,1.7,4.71a4.15,4.15,0,0,0,.91,1.48,2.27,2.27,0,0,0,1.17.75c.11,0,.17.15.18.34s0,.29-.18.29c-.31,0-.72,0-1.23-.07s-.93-.06-1.26-.06-.86,0-1.43.06-1,.07-1.28.07c-.07,0-.11-.06-.13-.16a.55.55,0,0,1,0-.31c0-.11.08-.16.13-.16a1.5,1.5,0,0,0,1-.7,1.54,1.54,0,0,0,0-1.07,10.34,10.34,0,0,0-.36-1.11c0-.13-.2-.19-.5-.19h-3.69c-.12,0-.23.11-.31.32a10.7,10.7,0,0,0-.42,1.11,1.39,1.39,0,0,0,0,.86,1.64,1.64,0,0,0,1.09.78q.18,0,.18.33t-.18.3c-.35,0-.78,0-1.3-.07s-1-.06-1.27-.06a9.25,9.25,0,0,0-.94.06C176,121,175.68,121,175.46,121Zm6.06-8.84c-.37.9-1,2.29-1.85,4.18,0,.11,0,.17,0,.21a.79.79,0,0,0,.34,0h3a.84.84,0,0,0,.24,0,.68.68,0,0,0,0-.24c-.1-.38-.58-1.78-1.43-4.18a.91.91,0,0,0-.12-.26s-.05,0-.08,0A1.59,1.59,0,0,0,181.52,112.16Z"/><path class="cls-1" d="M193.53,116c0,.4,0,.92.05,1.55s0,1,0,1.26c0,.7.58,1.18,1.69,1.46.09,0,.13.17.13.4s0,.35-.13.35-.41,0-1-.08-1.1-.07-1.48-.07-1,0-1.7.07-1.11.08-1.21.08-.13-.1-.13-.31,0-.32.13-.34a2.41,2.41,0,0,0,1.17-.6,1.38,1.38,0,0,0,.52-1.06v-6.94a2.28,2.28,0,0,0-.23-1.3,1.82,1.82,0,0,0-.43-.38,3.49,3.49,0,0,0-.69-.22.26.26,0,0,1-.13-.18.71.71,0,0,1,0-.32c0-.1.06-.15.14-.15.24,0,.62,0,1.12,0s.92,0,1.25,0,.51,0,1-.08a11,11,0,0,1,1.23-.08A5.86,5.86,0,0,1,198,110a2.55,2.55,0,0,1,1.25,2.25,3,3,0,0,1-.33,1.25,3.19,3.19,0,0,1-.58.93,3.76,3.76,0,0,1-1,.76c-.07,0-.07.07,0,.15.2.31.5.8.89,1.47a18.56,18.56,0,0,0,1.1,1.69,10.86,10.86,0,0,0,1.23,1.39,1.69,1.69,0,0,0,.51.38,1.56,1.56,0,0,0,.39.14,2.48,2.48,0,0,0,.51,0h.54c.05,0,.09,0,.1.11a.38.38,0,0,1,0,.23.38.38,0,0,1-.13.18,2.22,2.22,0,0,1-1.28.39,3.59,3.59,0,0,1-2.88-1q-.31-.39-.57-.75a5.71,5.71,0,0,1-.42-.64c-.1-.18-.29-.5-.56-1l-.74-1.22a2.08,2.08,0,0,0-.78-.7,3.42,3.42,0,0,0-1.43-.39.16.16,0,0,0-.19.08A.47.47,0,0,0,193.53,116Zm0-1.79a.69.69,0,0,0,.13.48.42.42,0,0,0,.25.16h.48a3.34,3.34,0,0,0,1.9-.52,2.31,2.31,0,0,0,.8-2.11,2.07,2.07,0,0,0-2.34-2.34,1.19,1.19,0,0,0-.89.25,1.16,1.16,0,0,0-.25.74C193.54,112.48,193.51,113.59,193.53,114.21Z"/><path class="cls-1" d="M208.27,116c0,.4,0,.92.06,1.55s0,1,0,1.26c0,.7.58,1.18,1.69,1.46.09,0,.13.17.13.4s0,.35-.13.35-.41,0-1-.08-1.1-.07-1.49-.07-1,0-1.7.07-1.1.08-1.21.08-.13-.1-.13-.31.05-.32.13-.34a2.32,2.32,0,0,0,1.17-.6,1.38,1.38,0,0,0,.52-1.06v-6.94a2.2,2.2,0,0,0-.23-1.3,1.64,1.64,0,0,0-.43-.38,3.07,3.07,0,0,0-.69-.22c-.05,0-.09-.08-.13-.18a.88.88,0,0,1,0-.32c0-.1.06-.15.14-.15.25,0,.62,0,1.12,0s.92,0,1.25,0,.51,0,.95-.08a11,11,0,0,1,1.24-.08,5.83,5.83,0,0,1,3.27.82,2.55,2.55,0,0,1,1.25,2.25,3,3,0,0,1-.33,1.25,3,3,0,0,1-.58.93,3.62,3.62,0,0,1-1,.76c-.07,0-.07.07,0,.15q.31.47.9,1.47a18.68,18.68,0,0,0,1.09,1.69,11.69,11.69,0,0,0,1.23,1.39,2,2,0,0,0,.51.38,1.71,1.71,0,0,0,.39.14,2.51,2.51,0,0,0,.51,0h.54c.06,0,.09,0,.11.11a.39.39,0,0,1,0,.23.33.33,0,0,1-.13.18,2.19,2.19,0,0,1-1.27.39,3.62,3.62,0,0,1-2.89-1q-.32-.39-.57-.75c-.17-.24-.31-.46-.42-.64s-.29-.5-.56-1-.51-.85-.74-1.22a1.94,1.94,0,0,0-.78-.7,3.42,3.42,0,0,0-1.43-.39.16.16,0,0,0-.19.08A.47.47,0,0,0,208.27,116Zm0-1.79a.74.74,0,0,0,.13.48.42.42,0,0,0,.25.16h.48a3.31,3.31,0,0,0,1.9-.52c.54-.33.81-1,.81-2.11a2.07,2.07,0,0,0-2.34-2.34,1.22,1.22,0,0,0-.9.25,1.16,1.16,0,0,0-.25.74C208.28,112.48,208.26,113.59,208.27,114.21Z"/><path class="cls-1" d="M224.21,111.12v7.67a1.24,1.24,0,0,0,.37,1,2.68,2.68,0,0,0,1.37.62.31.31,0,0,1,.24.34c0,.19-.08.29-.24.29-.34,0-.78,0-1.32-.07s-1-.06-1.33-.06-.86,0-1.44.06-1,.07-1.34.07c-.07,0-.13,0-.17-.15a.5.5,0,0,1,0-.3.25.25,0,0,1,.2-.18,2.8,2.8,0,0,0,1.4-.62,1.24,1.24,0,0,0,.34-1v-7.67a1,1,0,0,0-.41-.73,4.92,4.92,0,0,0-1.15-.63s-.09-.07-.12-.18a.66.66,0,0,1,0-.28c0-.09.07-.13.12-.13.38,0,.83,0,1.34,0l1.26,0,1.2,0c.48,0,.91,0,1.27,0,.11,0,.16.09.16.27s-.05.29-.16.32a4.4,4.4,0,0,0-1.19.65A.82.82,0,0,0,224.21,111.12Z"/><path class="cls-1" d="M232.17,120.29c1.35,0,2-.65,2-2a1.66,1.66,0,0,0,0-.33c0-.11-.06-.2-.08-.29a1.07,1.07,0,0,0-.16-.29l-.19-.26a2.08,2.08,0,0,0-.26-.26l-.28-.23-.33-.25-.37-.24-.43-.28-.44-.27q-2.48-1.56-2.47-3.56a2.9,2.9,0,0,1,1.07-2,4,4,0,0,1,2.88-1,5.75,5.75,0,0,1,1,.09,6.38,6.38,0,0,1,.86.21l.47.14c.19,0,.3.15.34.39a11.08,11.08,0,0,1,.28,1.93.79.79,0,0,1-.06.28c0,.11-.09.16-.14.16a1.12,1.12,0,0,1-.36-.13.47.47,0,0,1-.27-.31,2.27,2.27,0,0,0-2.39-1.85c-1.2,0-1.79.51-1.79,1.53a1.43,1.43,0,0,0,.07.46,1.74,1.74,0,0,0,.26.45,3.67,3.67,0,0,0,.32.38,2.77,2.77,0,0,0,.44.38l.43.32c.07.06.24.17.49.33l.43.26c1.91,1.23,2.86,2.48,2.86,3.77a3.26,3.26,0,0,1-1.07,2.34,4.14,4.14,0,0,1-3.06,1.06,8.16,8.16,0,0,1-1.15-.07,9,9,0,0,1-1-.23c-.33-.09-.55-.15-.63-.16a.6.6,0,0,1-.18-.06.11.11,0,0,1-.08-.07l0-.08a8.61,8.61,0,0,1-.36-1.17,7.85,7.85,0,0,1-.24-1.3c0-.07.06-.14.19-.2a.75.75,0,0,1,.33-.09s.13.13.29.39.34.55.56.87a3.26,3.26,0,0,0,.93.87A2.42,2.42,0,0,0,232.17,120.29Z"/><path class="cls-1" d="M247.79,110.36c-1.28,0-2.13,0-2.54,0-.19,0-.29.28-.29.78v7.62a1.16,1.16,0,0,0,.34.91,2.78,2.78,0,0,0,1.35.63c.09,0,.15.08.18.19a.41.41,0,0,1,0,.31.18.18,0,0,1-.18.15,11.24,11.24,0,0,1-1.34-.1,13.62,13.62,0,0,0-1.39-.09,12.45,12.45,0,0,0-1.33.09,10.13,10.13,0,0,1-1.27.1c-.07,0-.12,0-.16-.15a.54.54,0,0,1,0-.31c0-.11.08-.18.17-.19a2.78,2.78,0,0,0,1.35-.63,1.16,1.16,0,0,0,.34-.91v-7.62c0-.48-.1-.74-.31-.78s-.85,0-1.93,0a1.39,1.39,0,0,0-1.3.73,2.37,2.37,0,0,1-.37.45.76.76,0,0,1-.46.28c-.24,0-.26-.23,0-.68a2.94,2.94,0,0,0,.23-.67,6.36,6.36,0,0,0,.13-1c0-.4.06-.64.08-.72,0-.27.15-.4.34-.4s.29.19.49.55.51.37,1.15.37h7a1.81,1.81,0,0,0,1.33-.34.9.9,0,0,1,.62-.31.19.19,0,0,1,.16.1.2.2,0,0,1,0,.21,9.26,9.26,0,0,0-.45,2.44,1.44,1.44,0,0,1-.05.24.61.61,0,0,1-.09.18.21.21,0,0,1-.17.08c-.15,0-.29-.22-.41-.6a1.16,1.16,0,0,0,0-.16c0-.09,0-.15,0-.18a1.16,1.16,0,0,0-.06-.16l-.09-.14-.13-.12a.58.58,0,0,0-.21-.1l-.29,0A2.17,2.17,0,0,0,247.79,110.36Z"/><path class="cls-1" d="M257.91,115.3a7.34,7.34,0,0,0-2.24,0c-.29,0-.44.18-.44.44,0,.55,0,1.51.05,2.86,0,.88.41,1.32,1.12,1.32h2.29a3.67,3.67,0,0,0,.61-.1,2.21,2.21,0,0,0,.64-.21,3.32,3.32,0,0,0,.83-1.19c.05-.13.18-.19.39-.19s.23.07.23.21a12.79,12.79,0,0,1-.44,2.24c0,.21-.11.31-.23.31-.89,0-2,0-3.42-.07s-2.36-.06-2.9-.06l-2.78.16s-.07-.06-.09-.16a.81.81,0,0,1,0-.31c0-.11.05-.16.11-.16a3,3,0,0,0,1.17-.54,1.3,1.3,0,0,0,.49-1v-7.22a2.19,2.19,0,0,0-.23-1.3.81.81,0,0,1-.13-.15.53.53,0,0,0-.12-.1l-.1-.07-.15-.06-.15,0-.21-.07-.26-.08c-.09,0-.14-.11-.14-.28s0-.26.14-.26l1,0,1.07,0,2.47,0,2.46,0h1.19c.19,0,.29,0,.31.16a13.18,13.18,0,0,1,.28,2.39c0,.1-.09.16-.28.16s-.16-.07-.21-.19a2.65,2.65,0,0,0-.52-1,1.33,1.33,0,0,0-1.09-.47h-2.76a.38.38,0,0,0-.29.14.67.67,0,0,0-.15.33,10,10,0,0,0-.16,1.37c0,1.15-.05,1.76-.05,1.85q0,.39.18.39h2.26a1.17,1.17,0,0,0,.79-.26,1.41,1.41,0,0,0,.31-.47c.15-.22.27-.34.36-.34a.26.26,0,0,1,.17.09.2.2,0,0,1,.06.2,22.82,22.82,0,0,0,0,2.63c0,.2,0,.31-.15.31s-.31-.17-.47-.5A1,1,0,0,0,257.91,115.3Z"/><path class="cls-1" d="M266.77,116c0,.4,0,.92.06,1.55s0,1,0,1.26c0,.7.58,1.18,1.69,1.46.09,0,.13.17.13.4s0,.35-.13.35-.4,0-1-.08-1.1-.07-1.48-.07-1,0-1.71.07-1.1.08-1.21.08-.13-.1-.13-.31.05-.32.13-.34a2.32,2.32,0,0,0,1.17-.6,1.38,1.38,0,0,0,.52-1.06v-6.94a2.2,2.2,0,0,0-.23-1.3,1.64,1.64,0,0,0-.43-.38,3.07,3.07,0,0,0-.69-.22c-.05,0-.09-.08-.13-.18a.88.88,0,0,1,0-.32q0-.15.15-.15c.24,0,.61,0,1.11,0s.92,0,1.25,0,.51,0,.95-.08a11.17,11.17,0,0,1,1.24-.08,5.83,5.83,0,0,1,3.27.82,2.55,2.55,0,0,1,1.25,2.25,3.82,3.82,0,0,1-.91,2.18,3.62,3.62,0,0,1-1,.76c-.07,0-.07.07,0,.15q.31.47.9,1.47a18.68,18.68,0,0,0,1.09,1.69,11.69,11.69,0,0,0,1.23,1.39,2,2,0,0,0,.51.38,1.89,1.89,0,0,0,.39.14,2.54,2.54,0,0,0,.51,0h.55c.05,0,.08,0,.1.11a.32.32,0,0,1,0,.23.28.28,0,0,1-.13.18,2.19,2.19,0,0,1-1.27.39,3.62,3.62,0,0,1-2.89-1q-.31-.39-.57-.75c-.17-.24-.31-.46-.42-.64l-.55-1c-.27-.45-.52-.85-.75-1.22a1.94,1.94,0,0,0-.78-.7,3.42,3.42,0,0,0-1.43-.39.16.16,0,0,0-.19.08A.55.55,0,0,0,266.77,116Zm0-1.79a.74.74,0,0,0,.13.48.42.42,0,0,0,.25.16h.48a3.31,3.31,0,0,0,1.9-.52c.54-.33.81-1,.81-2.11a2.07,2.07,0,0,0-2.34-2.34,1.24,1.24,0,0,0-.9.25,1.16,1.16,0,0,0-.25.74C266.78,112.48,266.76,113.59,266.77,114.21Z"/><path class="cls-1" d="M302,110.78a4.6,4.6,0,0,0-2.81,1.48l-1.95,2.08-1.79,1.92-.34.37.44.62c.4.57.67,1,.82,1.15s.39.45.72.79a2.44,2.44,0,0,0,1,.67,3.75,3.75,0,0,0,1.22.17,2,2,0,0,0,1-.3,7.33,7.33,0,0,1,.78-.37c.18-.07.31-.06.39,0,.23.23.27.39.13.5l-.75.5-.75.5a3.25,3.25,0,0,1-.71.28,3.11,3.11,0,0,1-1,.15,3.19,3.19,0,0,1-2.12-.64,10.72,10.72,0,0,1-1.88-2.38l-.34-.54-.16.15-.67.73-.69.75a7.81,7.81,0,0,1-.63.61,3.82,3.82,0,0,1-.72.58l-.72.37a2.56,2.56,0,0,1-.88.3,5.86,5.86,0,0,1-1,.07,5.4,5.4,0,0,1-3.12-1,3,3,0,0,1-1.38-2.51c-.05-2.49,1.4-4.43,4.37-5.79l.52-.24-.39-.41-.29-.32a3.81,3.81,0,0,1-.36-.43c-.07-.09-.19-.25-.34-.48a3.29,3.29,0,0,1-.35-.58,3.08,3.08,0,0,1-.21-.63,3.12,3.12,0,0,1-.09-.74,2.42,2.42,0,0,1,1-2,4.3,4.3,0,0,1,2.44-.82,3.49,3.49,0,0,1,2.3.72,2.38,2.38,0,0,1,1,2,3.55,3.55,0,0,1-.67,2.15,3.86,3.86,0,0,1-1.85,1.36l-.37.13.24.26c.2.24.72.79,1.54,1.63a16.06,16.06,0,0,1,1.84,2.14l.31.47.41-.44A12,12,0,0,0,298,112a.84.84,0,0,0-.1-.69,1.06,1.06,0,0,0-.63-.45.23.23,0,0,1-.08-.45q.5,0,1.26.06c.52,0,.94,0,1.27,0a9.53,9.53,0,0,0,1.47-.17c.63-.11,1-.17,1.07-.17.26,0,.33.09.21.29A.64.64,0,0,1,302,110.78Zm-12.58,1.45-.55.21a4.84,4.84,0,0,0-1.43.85,3,3,0,0,0-.82,1.14,5.76,5.76,0,0,0-.32,1.17,7.67,7.67,0,0,0-.08,1.24,2.56,2.56,0,0,0,.88,2,3,3,0,0,0,2.11.81,5,5,0,0,0,2.31-.51,7.35,7.35,0,0,0,2-1.6l.24-.23-.31-.5a13.19,13.19,0,0,0-.91-1.21c-.35-.4-.85-.94-1.49-1.61s-1.08-1.13-1.32-1.39Zm1-1.09.34-.15c.95-.44,1.43-1.4,1.43-2.89a2.18,2.18,0,0,0-.52-1.39,1.6,1.6,0,0,0-1.3-.64,2,2,0,0,0-1.28.43,1.34,1.34,0,0,0-.54,1.08A5.43,5.43,0,0,0,290,110.7Z"/><path class="cls-1" d="M314.28,120.29c1.35,0,2-.65,2-2a1.66,1.66,0,0,0,0-.33c0-.11,0-.2-.08-.29a1.07,1.07,0,0,0-.16-.29l-.19-.26a2.08,2.08,0,0,0-.26-.26l-.27-.23-.34-.25-.37-.24a4.7,4.7,0,0,0-.43-.28l-.44-.27c-1.64-1-2.47-2.23-2.47-3.56a2.9,2.9,0,0,1,1.07-2,4,4,0,0,1,2.88-1,5.67,5.67,0,0,1,1,.09,6.38,6.38,0,0,1,.86.21l.47.14c.19,0,.3.15.34.39a11.08,11.08,0,0,1,.28,1.93.79.79,0,0,1-.06.28c0,.11-.09.16-.14.16a1,1,0,0,1-.35-.13.46.46,0,0,1-.28-.31,2.27,2.27,0,0,0-2.39-1.85c-1.2,0-1.79.51-1.79,1.53a1.43,1.43,0,0,0,.07.46,1.74,1.74,0,0,0,.26.45c.13.16.23.29.32.38a2.77,2.77,0,0,0,.44.38l.43.32.49.33.43.26c1.91,1.23,2.86,2.48,2.86,3.77a3.22,3.22,0,0,1-1.07,2.34,4.14,4.14,0,0,1-3.06,1.06,8.16,8.16,0,0,1-1.15-.07,8.85,8.85,0,0,1-1-.23l-.64-.16a.6.6,0,0,1-.18-.06.14.14,0,0,1-.08-.07l0-.08a8.61,8.61,0,0,1-.36-1.17,7.85,7.85,0,0,1-.24-1.3c0-.07.06-.14.19-.2a.75.75,0,0,1,.33-.09s.13.13.29.39.34.55.56.87a3.18,3.18,0,0,0,.94.87A2.36,2.36,0,0,0,314.28,120.29Z"/><path class="cls-1" d="M321.82,115.28a6,6,0,0,1,1.84-4.32,5.84,5.84,0,0,1,4.32-1.9,6.5,6.5,0,0,1,4.56,1.76,5.66,5.66,0,0,1,1.92,4.35,6.06,6.06,0,0,1-1.72,4.34,6.26,6.26,0,0,1-4.76,1.8,6,6,0,0,1-4.38-1.76A5.75,5.75,0,0,1,321.82,115.28Zm6-5.39a3.15,3.15,0,0,0-2.89,1.43,6.59,6.59,0,0,0-.9,3.57,6.46,6.46,0,0,0,1.13,3.92,3.78,3.78,0,0,0,3.24,1.54,3.62,3.62,0,0,0,1.86-.47,3.17,3.17,0,0,0,1.2-1.24,6.4,6.4,0,0,0,.62-1.58,7.14,7.14,0,0,0,.19-1.65,6.73,6.73,0,0,0-1.13-3.87A3.76,3.76,0,0,0,327.82,109.89Z"/><path class="cls-1" d="M342.65,109.76l-.52.12a3.9,3.9,0,0,0-.49.12,2.4,2.4,0,0,0-.36.14,1,1,0,0,0-.32.22,2,2,0,0,0-.34,1.38v6.94a1.24,1.24,0,0,0,1.4,1.41h2.5A2.17,2.17,0,0,0,345,120a1.61,1.61,0,0,0,.56-.34,6.18,6.18,0,0,0,1.06-1.67c.09-.15.33-.21.73-.18a.24.24,0,0,1,.18.07.16.16,0,0,1,.06.17,17.75,17.75,0,0,0-.58,2.65.28.28,0,0,1-.13.21.44.44,0,0,1-.26.1c-1,0-2.23,0-3.78,0s-2.6,0-3.13,0l-2.76.07s-.06,0-.09-.14a.57.57,0,0,1,0-.29c0-.09,0-.14.1-.14a2.81,2.81,0,0,0,1.2-.54,1.59,1.59,0,0,0,.52-1.1v-7a2.33,2.33,0,0,0-.24-1.35l-.13-.14a.28.28,0,0,0-.13-.11l-.11-.06-.15-.07-.15,0-.21-.06-.26-.08c-.09,0-.14-.13-.14-.33s0-.29.14-.29.57,0,1,0l1,0,1.91,0,1.47,0q.18,0,.15.3C342.78,109.64,342.73,109.75,342.65,109.76Z"/><path class="cls-1" d="M353.7,111.12v7.67a1.27,1.27,0,0,0,.36,1,2.75,2.75,0,0,0,1.38.62.31.31,0,0,1,.23.34c0,.19-.08.29-.23.29-.35,0-.79,0-1.33-.07s-1-.06-1.32-.06-.87,0-1.45.06-1,.07-1.34.07c-.07,0-.12,0-.17-.15a.44.44,0,0,1,0-.3.22.22,0,0,1,.19-.18,2.8,2.8,0,0,0,1.41-.62,1.27,1.27,0,0,0,.34-1v-7.67a.94.94,0,0,0-.42-.73,5,5,0,0,0-1.14-.63q-.09,0-.12-.18a.45.45,0,0,1,0-.28c0-.09.06-.13.12-.13.38,0,.82,0,1.33,0l1.27,0,1.19,0c.49,0,.91,0,1.28,0q.15,0,.15.27c0,.18-.05.29-.15.32a4.68,4.68,0,0,0-1.2.65A.84.84,0,0,0,353.7,111.12Z"/><path class="cls-1" d="M364.1,109a6.59,6.59,0,0,1,1.87.21l.74.17a5,5,0,0,1,.74.17c.09,0,.16.19.23.54.07.75.12,1.41.13,2a.46.46,0,0,1-.11.28c-.08.11-.15.15-.22.13a.58.58,0,0,1-.58-.57,2.32,2.32,0,0,0-.65-1.43,2.3,2.3,0,0,0-1-.48,6.09,6.09,0,0,0-1.55-.19,3.36,3.36,0,0,0-2.9,1.48,5.74,5.74,0,0,0-1,3.4,6.65,6.65,0,0,0,1.17,3.9,3.83,3.83,0,0,0,3.14,1.77,4.13,4.13,0,0,0,2.19-.67,2.15,2.15,0,0,0,1-1.36c0-.08.12-.16.32-.23a1.47,1.47,0,0,1,.46-.1c.15,0,.21.15.18.46a5.55,5.55,0,0,1-.35,1,8.43,8.43,0,0,1-.51,1c-.09.17-.56.34-1.42.5a12.46,12.46,0,0,1-2.43.25,5.61,5.61,0,0,1-4.15-1.82,6,6,0,0,1-1.75-4.31,5.68,5.68,0,0,1,1.94-4.37A6.57,6.57,0,0,1,364.1,109Z"/><path class="cls-1" d="M374.21,111.12v7.67a1.27,1.27,0,0,0,.36,1,2.75,2.75,0,0,0,1.38.62.31.31,0,0,1,.24.34c0,.19-.08.29-.24.29-.35,0-.79,0-1.32-.07s-1-.06-1.33-.06-.86,0-1.44.06-1,.07-1.34.07c-.07,0-.13,0-.17-.15a.5.5,0,0,1,0-.3.23.23,0,0,1,.2-.18,2.8,2.8,0,0,0,1.4-.62,1.24,1.24,0,0,0,.34-1v-7.67a.94.94,0,0,0-.42-.73,4.61,4.61,0,0,0-1.14-.63q-.07,0-.12-.18a.66.66,0,0,1,0-.28c0-.09.07-.13.12-.13.38,0,.83,0,1.34,0l1.26,0,1.2,0c.48,0,.91,0,1.27,0,.1,0,.16.09.16.27s-.06.29-.16.32a4.68,4.68,0,0,0-1.2.65A.84.84,0,0,0,374.21,111.12Z"/><path class="cls-1" d="M387.57,110.36c-1.28,0-2.13,0-2.54,0-.19,0-.29.28-.29.78v7.62a1.16,1.16,0,0,0,.34.91,2.78,2.78,0,0,0,1.35.63c.09,0,.15.08.18.19a.41.41,0,0,1,0,.31.18.18,0,0,1-.18.15,11.24,11.24,0,0,1-1.34-.1,13.62,13.62,0,0,0-1.39-.09,12.45,12.45,0,0,0-1.33.09,10.13,10.13,0,0,1-1.27.1c-.07,0-.12,0-.16-.15a.64.64,0,0,1,0-.31c0-.11.08-.18.17-.19a2.78,2.78,0,0,0,1.35-.63,1.16,1.16,0,0,0,.34-.91v-7.62c0-.48-.1-.74-.31-.78s-.85,0-1.93,0a1.39,1.39,0,0,0-1.3.73,2.37,2.37,0,0,1-.37.45.76.76,0,0,1-.46.28c-.24,0-.26-.23-.05-.68a2.94,2.94,0,0,0,.23-.67,6.36,6.36,0,0,0,.13-1c0-.4.06-.64.08-.72,0-.27.15-.4.34-.4s.29.19.49.55.51.37,1.15.37h7a1.81,1.81,0,0,0,1.33-.34.9.9,0,0,1,.62-.31.19.19,0,0,1,.16.1.2.2,0,0,1,0,.21,9.26,9.26,0,0,0-.45,2.44,1.44,1.44,0,0,1,0,.24.44.44,0,0,1-.09.18.21.21,0,0,1-.17.08c-.15,0-.29-.22-.41-.6a1.16,1.16,0,0,0,0-.16c0-.09,0-.15,0-.18a1.16,1.16,0,0,0-.06-.16l-.09-.14-.13-.12a.58.58,0,0,0-.21-.1l-.29,0A2.17,2.17,0,0,0,387.57,110.36Z"/><path class="cls-1" d="M392.72,115.28a6,6,0,0,1,1.85-4.32,5.82,5.82,0,0,1,4.32-1.9,6.54,6.54,0,0,1,4.56,1.76,5.68,5.68,0,0,1,1.91,4.35,6,6,0,0,1-1.72,4.34,6.25,6.25,0,0,1-4.75,1.8,6,6,0,0,1-4.39-1.76A5.79,5.79,0,0,1,392.72,115.28Zm6-5.39a3.17,3.17,0,0,0-2.9,1.43,6.59,6.59,0,0,0-.9,3.57,6.46,6.46,0,0,0,1.13,3.92,3.81,3.81,0,0,0,3.24,1.54,3.62,3.62,0,0,0,1.86-.47,3.2,3.2,0,0,0,1.21-1.24,6.37,6.37,0,0,0,.61-1.58,7.16,7.16,0,0,0,.2-1.65,6.66,6.66,0,0,0-1.14-3.87A3.75,3.75,0,0,0,398.73,109.89Z"/><path class="cls-1" d="M411.34,116c0,.4,0,.92.05,1.55s0,1,0,1.26c0,.7.58,1.18,1.69,1.46.08,0,.13.17.13.4s-.05.35-.13.35-.41,0-1-.08-1.1-.07-1.48-.07-1,0-1.7.07-1.11.08-1.21.08-.13-.1-.13-.31,0-.32.13-.34a2.41,2.41,0,0,0,1.17-.6,1.38,1.38,0,0,0,.52-1.06v-6.94a2.28,2.28,0,0,0-.23-1.3,1.82,1.82,0,0,0-.43-.38,3.49,3.49,0,0,0-.69-.22.26.26,0,0,1-.13-.18.71.71,0,0,1,0-.32c0-.1.05-.15.14-.15.24,0,.62,0,1.12,0s.92,0,1.25,0,.5,0,.95-.08a11,11,0,0,1,1.23-.08,5.86,5.86,0,0,1,3.28.82,2.55,2.55,0,0,1,1.25,2.25,3,3,0,0,1-.33,1.25,3.19,3.19,0,0,1-.58.93,3.76,3.76,0,0,1-1,.76c-.07,0-.07.07,0,.15.2.31.5.8.89,1.47s.76,1.23,1.09,1.69a11,11,0,0,0,1.24,1.39,1.69,1.69,0,0,0,.51.38,1.56,1.56,0,0,0,.39.14,2.41,2.41,0,0,0,.5,0h.55c.05,0,.09,0,.1.11a.38.38,0,0,1,0,.23.38.38,0,0,1-.13.18,2.22,2.22,0,0,1-1.28.39,3.58,3.58,0,0,1-2.88-1q-.32-.39-.57-.75a5.71,5.71,0,0,1-.42-.64c-.1-.18-.29-.5-.56-1l-.74-1.22a2.08,2.08,0,0,0-.78-.7,3.42,3.42,0,0,0-1.43-.39.18.18,0,0,0-.2.08A.55.55,0,0,0,411.34,116Zm0-1.79a.69.69,0,0,0,.13.48.42.42,0,0,0,.25.16h.48a3.34,3.34,0,0,0,1.9-.52,2.31,2.31,0,0,0,.8-2.11,2.07,2.07,0,0,0-2.34-2.34,1.24,1.24,0,0,0-.9.25,1.16,1.16,0,0,0-.24.74C411.35,112.48,411.32,113.59,411.34,114.21Z"/></g></g></svg>